M48
METRIC,TZ
T01C.3
T02C.701
T03C.8992
T04C1.0008
T05C1.1989
;LEADER: 12 
;HEADER: 
;CODE  : ASCII 
;FILE  : AutoSave1-1-2.drl for board #Taaaaaf09240.tmp ... layers TOP and BOTTOM
;T01 Holesize 1. = 0.300000 Tolerance = +0.000000/-0.000000 PLATED MM Quantity = 278
;T02 Holesize 2. = 0.701000 Tolerance = +0.000000/-0.000000 PLATED MM Quantity = 4
;T03 Holesize 3. = 0.899200 Tolerance = +0.000000/-0.000000 PLATED MM Quantity = 82
;T04 Holesize 4. = 1.000800 Tolerance = +0.000000/-0.000000 PLATED MM Quantity = 2
;T05 Holesize 5. = 1.198900 Tolerance = +0.000000/-0.000000 PLATED MM Quantity = 10
%
G90
T01
X25539700Y23139400
X25603200Y24028400
X25783480Y23810020
X25844500Y24028400
X26847800Y23901400
X29476700Y23964900
X29514800Y23622000
X29984700Y24015700
X30124400Y24561800
X29578300Y24650700
X29400500Y25069800
X29108400Y25031700
X27329010Y24434320
X27258030Y24396220
X25966600Y24490500
X25742900Y24866600
X25730200Y24790400
X25730200Y24511000
X25692100Y24714200
X25095200Y24612600
X25273000Y25781000
X25552400Y25527000
X25793700Y25349200
X26263600Y25501600
X27736800Y25781000
X28067000Y25387300
X28752800Y25463500
X28765500Y25577800
X28778200Y25666700
X28960000Y26185800
X28892500Y26212800
X27622500Y26428700
X27089100Y26276300
X25793700Y26441400
X25730200Y26657300
X25400000Y26339800
X25059590Y26136830
X25623520Y27017980
X25666700Y27266900
X25689580Y27180520
X25730200Y27038310
X25755600Y26936700
X25895300Y26758900
X26026740Y27118940
X26098500Y26784300
X26529740Y26962100
X26670000Y26873200
X26847800Y26949400
X27203400Y26974800
X27279600Y26962100
X27368500Y26962100
X27470100Y26962100
X27724100Y27305000
X27927300Y27241500
X28083530Y27296130
X28384500Y26987500
X28422600Y27419300
X28943300Y27533600
X28651200Y28041600
X28625800Y27724100
X28613100Y27647900
X28613100Y27470100
X28603560Y27562160
X28600400Y28155900
X28575000Y28003020
X28549600Y27800300
X28536900Y27901900
X28498800Y27990800
X28155900Y27889200
X27749500Y27698700
X27736800Y28143200
X27655350Y27729350
X27529920Y27729190
X27508200Y28168600
X27457400Y27724100
X27355370Y27762630
X27305340Y28028560
X27178000Y28067000
X27038300Y28181300
X26911300Y28067000
X26860500Y27736800
X26805210Y28024410
X26797000Y28117800
X26770000Y27734480
X26690220Y27763840
X26619200Y28092400
X26605310Y27776090
X26250900Y28067000
X26003870Y27940000
X25908000Y27889200
X25869900Y28181300
X25857200Y27813000
X25857200Y27740310
X25628600Y27508200
X25596340Y27579040
X25238120Y27698560
X25234900Y28105100
X25214360Y27619700
X25190280Y27819370
X25183870Y27746960
X25147560Y27905720
X25120120Y27838400
X24980900Y27762200
X25224020Y28194470
X25281450Y28239040
X25616380Y28765500
X25730200Y28194000
X25742900Y28270200
X25819100Y28333700
X25984200Y28460700
X25984200Y28714700
X26035600Y28651680
X26035000Y28841700
X26035000Y28917900
X26047700Y28765500
X26136600Y28638500
X26250900Y28601160
X26314400Y28651200
X26631900Y28829000
X26644600Y28740100
X26758900Y28702000
X26784300Y28295600
X26797000Y28460700
X26822400Y28378150
X26846050Y28778200
X26936700Y28879800
X26962190Y28206610
X26974800Y28486100
X27063700Y28435300
X27127200Y28524200
X27165300Y28397200
X27330400Y28244800
X27609800Y28778200
X27635200Y28892500
X27673300Y28194000
X27686000Y28308300
X27736800Y28549600
X27800300Y28206700
X28116320Y28600670
X28117780Y28701310
X28120680Y28802160
X28155900Y28422600
X28172840Y28651780
X28174740Y28753560
X28195770Y28859720
X28206700Y28549600
X28259970Y28893820
X28270200Y28486100
X29489400Y28549600
X29629100Y28511500
X28816300Y29514800
X28805120Y29306010
X28804160Y28955440
X28740100Y29489400
X28735040Y29334750
X28679050Y29449920
X28664050Y29319120
X28590220Y29301420
X28550160Y28955440
X28460700Y29159200
X28295600Y29057600
X28212410Y28960360
X28194000Y29108400
X28143200Y29000930
X27927300Y29400500
X27571690Y29654480
X27499100Y29665450
X27301490Y29146500
X27228800Y29146500
X27114500Y29654500
X27063700Y29552900
X26848010Y28962940
X26846050Y29035610
X26758900Y29210000
X26619200Y29705300
X26619200Y28956000
X26606500Y29578300
X26568410Y29248110
X26517600Y29349700
X26047700Y29260800
X26047700Y29083000
X26040590Y29001210
X26035000Y29171900
X26003240Y29356060
X25044400Y29476700
X24765000Y29552900
X24726900Y29400500
X24523700Y30073600
X24745340Y30434940
X24993600Y29984700
X25082500Y29756100
X25159330Y30314270
X25323800Y29921200
X25387300Y30340300
X25527000Y30060900
X25628600Y29756100
X25665370Y30250070
X25742900Y30251400
X25857200Y30010100
X25920700Y30251400
X26073100Y29743400
X26085800Y29832300
X26162000Y29895800
X26250900Y29857700
X26327100Y29946600
X26364690Y29757060
X26466800Y30010100
X26581100Y30035500
X26707500Y30060300
X26758900Y30111700
X26809660Y30048200
X26826570Y30412870
X26847800Y30289500
X26876370Y30359910
X26949400Y30429200
X27020680Y30443460
X27101800Y30454600
X27368500Y30048200
X27481050Y29892860
X27487400Y29820440
X27503200Y29738400
X27508200Y30022800
X27508200Y30443180
X27520900Y30187900
X27724100Y29933900
X27800300Y29946600
X27978100Y30048200
X28041600Y30314900
X28460700Y29832300
X28486030Y30010100
X28663900Y30035500
X28854400Y30353000
X29235400Y29997400
X29400500Y30060900
X29895800Y30010100
X28536900Y30530800
X28168600Y30746700
X28028900Y30886400
X27635200Y31165800
X27482800Y30530800
X27317830Y30492620
X27255300Y30529700
X27165300Y30543500
X27089100Y30530800
X27076400Y30822900
X27038300Y31216600
X26835100Y31013400
X26758900Y30937200
X26454100Y30886400
X26408870Y31165820
X26301700Y30619700
X26292990Y31153110
X26289000Y30784920
X26225500Y30873700
X26193740Y30664140
X26154220Y30859440
X26060400Y30861000
X25999920Y30901330
X25958800Y31203900
X25946100Y30759400
X25926290Y31138880
X25901820Y30906350
X25819100Y30708600
X25692100Y30886400
X25590500Y30810200
X25539700Y30683200
X25488900Y30899100
X25444450Y30664150
X25384700Y30858380
X25323800Y30657800
X25247600Y30899100
X25209500Y30632400
X25311100Y31534100
X25407460Y31452660
X25565100Y31356300
X25616500Y31292800
X26352500Y31330900
X27101800Y31280100
T02
X25240990Y23556140
X25836990Y23558220
X26333190Y23568840
X26929190Y23570920
T03
X24612600Y25298400
X24633730Y25666270
X24632840Y25920270
X24631950Y26174270
X24631070Y26428260
X24630180Y26682260
X24629290Y26936260
X24628410Y27190260
X24627520Y27444260
X24626630Y27698260
X24625750Y27952260
X24624860Y28206250
X24623970Y28460250
X24623090Y28714250
X24622200Y28968250
X24621310Y29222250
X24620430Y29476250
X24619540Y29730240
X24618650Y29984240
X24617770Y30238240
X24616880Y30492240
X24870880Y30493130
X24871770Y30239130
X24872650Y29985130
X24873540Y29731130
X24874420Y29477130
X24875310Y29223130
X24876200Y28969140
X24877080Y28715140
X24877970Y28461140
X24878860Y28207140
X24879740Y27953140
X24880630Y27699140
X24881520Y27445140
X24882400Y27191150
X24883290Y26937150
X24884180Y26683150
X24885060Y26429150
X24885950Y26175150
X24886840Y25921150
X24887720Y25667160
X24866600Y25298400
X29781430Y25659920
X29780540Y25913920
X29779650Y26167920
X29778770Y26421910
X29777880Y26675910
X29776990Y26929910
X29776110Y27183910
X29775220Y27437910
X29774330Y27691910
X29773450Y27945910
X29772560Y28199900
X29771670Y28453900
X29770790Y28707900
X29769900Y28961900
X29769010Y29215900
X29768130Y29469900
X29767240Y29723890
X29766350Y29977890
X29765470Y30231890
X29764580Y30485890
X30018580Y30486780
X30019470Y30232780
X30020350Y29978780
X30021240Y29724780
X30022120Y29470780
X30023010Y29216780
X30023900Y28962790
X30024780Y28708790
X30025670Y28454790
X30026560Y28200790
X30027440Y27946790
X30028330Y27692790
X30029220Y27438790
X30030100Y27184800
X30030990Y26930800
X30031880Y26676800
X30032760Y26422800
X30033650Y26168800
X30034540Y25914800
X30035420Y25660810
T04
X28294960Y31201910
X29094950Y31204700
T05
X27863800Y23266400
R04X254000
X28879800Y23520400
R04X-254000
M30
