G04 ================== begin FILE IDENTIFICATION RECORD ==================*
G04 Layout Name:  D:/project/pcb/stm32_h750_v1/pcb2/AutoSave1.brd*
G04 Film Name:    BOTTOM*
G04 File Format:  Gerber RS274X*
G04 File Origin:  Cadence Allegro 17.2-P019*
G04 Origin Date:  Thu Feb 11 11:46:33 2021*
G04 *
G04 Layer:  VIA CLASS/BOTTOM*
G04 Layer:  PIN/BOTTOM*
G04 Layer:  ETCH/BOTTOM*
G04 *
G04 Offset:    (0.0000 0.0000)*
G04 Mirror:    No*
G04 Mode:      Positive*
G04 Rotation:  0*
G04 FullContactRelief:  No*
G04 UndefLineWidth:     0.1524*
G04 ================== end FILE IDENTIFICATION RECORD ====================*
%FSLAX55Y55*MOMM*%
%IR0*IPPOS*OFA0.00000B0.00000*MIA0B0*SFA1.00000B1.00000*%
%AMMACRO20*
21,1,1.3513,1.999,0.0,0.0,89.8*%
%ADD20MACRO20*%
%ADD19C,.701*%
%AMMACRO17*
21,1,.8001,.8001,0.0,0.0,89.8*%
%ADD17MACRO17*%
%ADD13C,.5999*%
%AMMACRO10*
21,1,.8128,.8128,0.0,0.0,89.8*%
%ADD10MACRO10*%
%ADD12C,1.5011*%
%ADD23C,1.0008*%
%AMMACRO16*
21,1,1.0008,1.0972,0.0,0.0,.2*
1,1,1.0008,.001915,-.548597*
1,1,1.0008,-.001915,.548597*%
%ADD16MACRO16*%
%AMMACRO14*
21,1,1.5011,1.5011,0.0,0.0,.2*%
%ADD14MACRO14*%
%ADD11R,1.5011X1.5011*%
%AMMACRO15*
21,1,1.0008,.5969,0.0,0.0,.2*
1,1,1.0008,.001042,-.298448*
1,1,1.0008,-.001042,.298448*%
%ADD15MACRO15*%
%ADD18R,1.999X1.3513*%
%ADD22C,1.6993*%
%ADD21R,1.6993X1.6993*%
%ADD24C,.2032*%
%ADD25C,.127*%
%ADD26C,.254*%
%ADD27C,.327*%
%ADD28C,.1524*%
%ADD29C,.508*%
%ADD30C,.527*%
%ADD31C,.635*%
%ADD32C,.762*%
%ADD33C,.627*%
%ADD34C,1.27*%
%ADD35C,2.2636*%
%ADD36C,1.9156*%
G75*
%LPD*%
G75*
G36*
G01X27151340Y23569850D02*
X27150960Y23679570D01*
G03X26974640Y23678950I-88160J-310D01*
G01X26974670Y23668920D01*
G02X26949300Y23649170I-20317J-71D01*
G03X26939780Y23651010I-20064J-78259D01*
G01X26930920Y23652180D01*
X26931040Y23685520D01*
G03X26898110Y23718680I-33043J117D01*
G01X26731850Y23719260D01*
X26642830Y23808270D01*
G02X26657200Y23842960I14367J14370D01*
G01X26824090D01*
X26825810Y23842320D01*
G03Y23960480I21990J59080D01*
G01X26824090Y23959840D01*
X25995710D01*
X25902590Y24052960D01*
X25901830Y24054620D01*
G03X25794970Y24067390I-57327J-26221D01*
G02X25764630Y24065590I-15969J12568D01*
G01X25516860Y24313360D01*
Y24900560D01*
X25543840Y24927540D01*
X25670110D01*
G02X25687850Y24897320I-4J-20319D01*
G03X25687410Y24836690I55050J-30716D01*
G03X25669590Y24773080I42792J-46289D01*
G03X25676770Y24653050I22511J-58883D01*
G01X25684460Y24651120D01*
Y24554380D01*
G03X25775940I45740J-43380D01*
G01Y24638100D01*
G02X25810630Y24652470I20320J3D01*
G01X25891160Y24571940D01*
X25898560D01*
G02X25913680Y24538040I3J-20320D01*
G03X25966600Y24419360I52920J-47541D01*
G01X26889630D01*
X27135830Y24173160D01*
X29167830D01*
X29426400Y23914600D01*
G03X29527000Y24015200I50300J50300D01*
G01X29226770Y24315440D01*
X27315420D01*
G02X27301430Y24350500I-3J20320D01*
G03X27316450Y24372540I-43403J45717D01*
G03X27302510Y24491520I12558J61778D01*
G01X27296070Y24488530D01*
X27103400Y24681200D01*
X25973100D01*
X25804020Y24850280D01*
X25804960Y24855500D01*
G03X25797950Y24897320I-62058J11095D01*
G02X25815690Y24927540I17744J9901D01*
G01X28224020D01*
X28711960Y25415480D01*
G03X28707430Y25507270I40840J48022D01*
G01X28704430Y25504160D01*
X28697690D01*
G02X28690510Y25521500I3J10158D01*
G01X28772750Y25603750D01*
X28777070Y25603670D01*
G03X28821760Y25712270I1130J63030D01*
G02X28821430Y25741330I14038J14691D01*
G01X29060160Y25980060D01*
Y26308280D01*
X28518080Y26850360D01*
X28236240D01*
X27938740Y27147870D01*
G02X27946810Y27181560I14365J14370D01*
G03X27968130Y27193470I-19501J59946D01*
G01X27975260Y27199530D01*
X28291460Y26883340D01*
X28554260D01*
X29699550Y25738050D01*
G03X29870440Y25729820I81880J-78132D01*
G01X29868270Y25732590D01*
Y25746260D01*
X29892470D01*
X29931840Y25706890D01*
X29929520Y25700760D01*
G03X29995470Y25766710I105900J-39950D01*
G01X29989340Y25764390D01*
X29926150Y25827580D01*
X29896570D01*
G02X29878910Y25857950I1J20320D01*
G03X29869550Y25983820I-98371J55968D01*
G01X29867380Y25986590D01*
Y26000260D01*
X29891580D01*
X29930960Y25960880D01*
X29928640Y25954750D01*
G03X29994590Y26020700I105900J-39950D01*
G01X29988460Y26018380D01*
X29925260Y26081580D01*
X29895680D01*
G02X29878020Y26111950I1J20320D01*
G03X29868660Y26237820I-98371J55968D01*
G01X29866490Y26240590D01*
Y26254260D01*
X29890690D01*
X29930070Y26214880D01*
X29927750Y26208750D01*
G03X29993700Y26274700I105900J-39950D01*
G01X29987570Y26272380D01*
X29924370Y26335580D01*
X29894810D01*
G02X29877150Y26365950I-1J20319D01*
G03X29867780Y26491810I-98380J55955D01*
G01X29865610Y26494580D01*
Y26508250D01*
X29889810D01*
X29929180Y26468880D01*
X29926860Y26462750D01*
G03X29992810Y26528700I105900J-39950D01*
G01X29986680Y26526380D01*
X29923490Y26589570D01*
X29893910D01*
G02X29876250Y26619940I1J20320D01*
G03X29887170Y26705340I-98369J55976D01*
G02X29906790Y26730940I19620J5281D01*
G01X29920240D01*
X29928300Y26722880D01*
X29925980Y26716750D01*
G03X29991930Y26782700I105900J-39950D01*
G01X29985800Y26780380D01*
X29953920Y26812260D01*
X29868360D01*
G02X29854460Y26847390I7J20318D01*
G03X29866000Y26999810I-77470J82512D01*
G01X29863830Y27002580D01*
Y27016250D01*
X29888040D01*
X29927410Y26976880D01*
X29925090Y26970750D01*
G03X29991040Y27036700I105900J-39950D01*
G01X29984910Y27034380D01*
X29921720Y27097570D01*
X29892140D01*
G02X29874480Y27127940I1J20320D01*
G03X29885400Y27213340I-98369J55976D01*
G02X29905020Y27238940I19620J5281D01*
G01X29918460D01*
X29926520Y27230880D01*
X29924200Y27224750D01*
G03X29990150Y27290700I105900J-39950D01*
G01X29984020Y27288380D01*
X29952140Y27320260D01*
X29866590D01*
G02X29852690Y27355390I7J20318D01*
G03X29881020Y27478100I-77472J82511D01*
G02X29900020Y27505640I18995J7219D01*
G01X29904870D01*
X29925640Y27484870D01*
X29923320Y27478740D01*
G03X29989270Y27544690I105900J-39950D01*
G01X29983140Y27542370D01*
X29938550Y27586960D01*
X29877580D01*
G02X29861860Y27620160I-4J20320D01*
G03X29863340Y27761810I-87531J71747D01*
G01X29861170Y27764580D01*
Y27778250D01*
X29885370D01*
X29924750Y27738870D01*
X29922430Y27732740D01*
G03X29988380Y27798690I105900J-39950D01*
G01X29982250Y27796370D01*
X29919050Y27859570D01*
X29889480D01*
G02X29871820Y27889940I1J20320D01*
G03X29862470Y28015810I-98370J55975D01*
G01X29860300Y28018570D01*
Y28032240D01*
X29884490D01*
X29923860Y27992870D01*
X29921540Y27986740D01*
G03X29987490Y28052690I105900J-39950D01*
G01X29981360Y28050370D01*
X29918170Y28113560D01*
X29888590D01*
G02X29870930Y28143930I1J20320D01*
G03X29861570Y28269800I-98371J55968D01*
G01X29859400Y28272570D01*
Y28286240D01*
X29883610D01*
X29922980Y28246870D01*
X29920660Y28240740D01*
G03X29986610Y28306690I105900J-39950D01*
G01X29980480Y28304370D01*
X29917290Y28367560D01*
X29887700D01*
G02X29870040Y28397930I1J20320D01*
G03X29860680Y28523800I-98371J55968D01*
G01X29858510Y28526570D01*
Y28540240D01*
X29882720D01*
X29922090Y28500870D01*
X29919770Y28494740D01*
G03X29985720Y28560690I105900J-39950D01*
G01X29979590Y28558370D01*
X29916400Y28621560D01*
X29886820D01*
G02X29869160Y28651930I1J20320D01*
G03X29865650Y28769640I-98370J55974D01*
G02X29882680Y28801040I17031J11081D01*
G01X29922960D01*
X29939860Y28784140D01*
X29934520Y28777080D01*
G03X30021580Y28821920I90252J-68294D01*
G01X30017200Y28821800D01*
X29999110Y28839890D01*
X30009630Y28850410D01*
X30014340Y28850010D01*
G03X30010610Y29075190I9548J112779D01*
G01X30005710Y29074610D01*
X29984500Y29095830D01*
X29995520Y29106850D01*
X30000850Y29105790D01*
G03X29986930Y29324050I22163J110987D01*
G01X29980960Y29322050D01*
X29919440Y29383560D01*
X29884160D01*
G02X29866500Y29413930I1J20320D01*
G03X29857140Y29539800I-98371J55968D01*
G01X29854970Y29542570D01*
Y29556240D01*
X29879160D01*
X29918540Y29516860D01*
X29916220Y29510730D01*
G03X29982170Y29576680I105900J-39950D01*
G01X29976040Y29574360D01*
X29912840Y29637560D01*
X29883280D01*
G02X29865620Y29667930I-1J20319D01*
G03X29876520Y29753330I-98381J55952D01*
G02X29896140Y29778940I19621J5289D01*
G01X29909580D01*
X29917660Y29770860D01*
X29915340Y29764730D01*
G03X29981290Y29830680I105900J-39950D01*
G01X29975160Y29828360D01*
X29943260Y29860260D01*
X29857740D01*
G02X29843830Y29895390I3J20320D01*
G03X29821350Y30076810I-77480J82502D01*
G01X29816120Y30079710D01*
Y30095850D01*
X29845780D01*
X29916770Y30024860D01*
X29914450Y30018730D01*
G03X29980400Y30084680I105900J-39950D01*
G01X29974270Y30082360D01*
X29869590Y30187040D01*
X29871810Y30193130D01*
G03X29863840Y30287860I-106339J38754D01*
G02X29881500Y30318230I17661J10050D01*
G01X29899330D01*
X29924000Y30293560D01*
G03X29995700Y30343430I95470J-60782D01*
G01X29990290Y30342270D01*
X29961480Y30371080D01*
X29973270Y30382860D01*
X29979370Y30380610D01*
G03X30002740Y30598850I39208J106173D01*
G01X29997720Y30598140D01*
X29960900Y30634960D01*
X29420190D01*
X29189030Y30866100D01*
X28112260D01*
G02X28091940Y30886410I0J20320D01*
G03X28057350Y30942650I-63038J-14D01*
G01X28055900Y30943390D01*
X27774100Y31225190D01*
X27656400D01*
X27654860Y31225700D01*
G03Y31105900I-19660J-59900D01*
G01X27656400Y31106410D01*
X27724900D01*
X27930520Y30900790D01*
G02X27916150Y30866100I-14366J-14370D01*
G01X27534200D01*
X27260750Y30592650D01*
X27256430Y30592730D01*
G03X27224030Y30584440I-1133J-63030D01*
G02X27211540Y30586350I-5042J8819D01*
G03X27164170Y30606530I-46238J-42850D01*
G01X27159850Y30606450D01*
X27118640Y30647660D01*
X26665850D01*
X26589650Y30571460D01*
X26380240D01*
G02X26361100Y30598590I5J20320D01*
G03X26300620Y30682730I-59400J21110D01*
G02X26290290Y30692890I-170J10159D01*
G01Y30721300D01*
X26298860Y30722660D01*
G03X26351980Y30787560I-9862J62261D01*
G01X26351800Y30792010D01*
X26398480Y30838700D01*
G02X26412390Y30839130I7184J-7186D01*
G03X26404880Y30925790I41709J47270D01*
G01X26374160D01*
X26321990Y30873620D01*
G02X26287610Y30884510I-14363J14370D01*
G03X26216750Y30936130I-62107J-10811D01*
G02X26193610Y30956250I-2820J20123D01*
G01Y31113720D01*
X26243770D01*
G03X26341720Y31113120I49218J39390D01*
G02X26369970Y31116220I15710J-12892D01*
G03X26406230Y31228800I38905J49599D01*
G01X26401780Y31228620D01*
X26387110Y31243290D01*
X26254520D01*
X26108180Y31389620D01*
G02X26122550Y31424310I14369J14369D01*
G01X26303110D01*
Y31370070D01*
G03X26401890I49390J-39170D01*
G01Y31446610D01*
X26878140D01*
X26976210Y31348540D01*
Y31227530D01*
X26976080Y31226720D01*
G03X27074990Y31267860I62221J-10121D01*
G01Y31389460D01*
X26919060Y31545390D01*
X26352500D01*
G03X26317580Y31530920I7J-49387D01*
G01X26309740Y31523090D01*
X25408040D01*
X25400330Y31515380D01*
X25397120Y31514850D01*
G03X25369850Y31402070I10340J-62187D01*
G02X25372090Y31371400I-12128J-16303D01*
G01X25132010Y31131320D01*
Y30654180D01*
X25146700Y30639490D01*
X25146520Y30635040D01*
G03X25147710Y30619930I62982J-2642D01*
G02X25127790Y30595590I-19920J-4019D01*
G01X25077260D01*
X25012490Y30660360D01*
X24801000D01*
X24740800Y30600160D01*
G02X24714350Y30598200I-14363J14373D01*
G03X24713830Y30598570I-22359J-30873D01*
G02X24711280Y30629480I11813J16535D01*
G01X25069800Y30988000D01*
Y31635700D01*
X29413200D01*
X29591000Y31457900D01*
Y30759400D01*
X29692600Y30657800D01*
X30226000D01*
Y24645760D01*
G02X30191550Y24631160I-20320J2D01*
G03X30056140Y24630060I-67146J-69361D01*
G01X29906610Y24480540D01*
X29516690D01*
X29204940Y24792290D01*
Y25031700D01*
G03X29011860I-96540J0D01*
G01Y24712310D01*
X29436710Y24287460D01*
X29986590D01*
X30192660Y24493540D01*
G03X30207130Y24512050I-68255J68269D01*
G01X30226000Y24506810D01*
Y23698200D01*
X30099000Y23571200D01*
X29476700D01*
X29451300Y23596600D01*
X29375100Y23520400D01*
Y22923500D01*
X25095200D01*
X24917400Y23101300D01*
Y23622000D01*
X24472900Y24066500D01*
X24358600D01*
Y30581600D01*
X24396700Y30619700D01*
X24492890D01*
G02X24509820Y30588130I6J-20321D01*
G03X24503440Y30566900I31739J-21112D01*
G01X24503970Y30416790D01*
G03X24542220Y30378800I38120J130D01*
G01X24672360Y30379260D01*
X24726150Y30325470D01*
X24755740D01*
G02X24773400Y30295100I-1J-20320D01*
G03X24768170Y30193560I98370J-55971D01*
G02X24749570Y30165060I-18601J-8180D01*
G01X24740360D01*
G02X24721700Y30193430I-2J20320D01*
G03X24537150Y30158810I-103929J44812D01*
G01X24544220Y30151620D01*
X24529150Y30136550D01*
X24524830Y30136630D01*
G03X24509000Y30012300I-1127J-63029D01*
G03X24634130Y29872120I109649J-28061D01*
G01X24634820Y29872220D01*
X24645680D01*
Y29842380D01*
X24634860D01*
X24634200Y29842470D01*
G03X24617640Y29617080I-14662J-112226D01*
G01X24621750Y29617010D01*
X24631840Y29606920D01*
X24614240Y29589320D01*
X24610560Y29589000D01*
G03X24630130Y29363490I9870J-112748D01*
G01X24634850Y29363890D01*
X24654610Y29344130D01*
X24643780Y29333300D01*
X24638680Y29334090D01*
G03X24661260Y29116350I-17366J-111842D01*
G01X24667390Y29118670D01*
X24730580Y29055480D01*
X24760170D01*
G02X24777830Y29025110I-1J-20320D01*
G03X24787190Y28899240I98371J-55968D01*
G01X24789360Y28896470D01*
Y28882800D01*
X24765150D01*
X24725780Y28922170D01*
X24728100Y28928300D01*
G03X24662150Y28862350I-105900J39950D01*
G01X24668280Y28864670D01*
X24731470Y28801480D01*
X24761050D01*
G02X24778710Y28771110I-1J-20320D01*
G03X24788070Y28645240I98371J-55968D01*
G01X24790240Y28642470D01*
Y28628800D01*
X24766040D01*
X24726670Y28668170D01*
X24728990Y28674300D01*
G03X24663040Y28608350I-105900J39950D01*
G01X24669170Y28610670D01*
X24732360Y28547480D01*
X24761940D01*
G02X24779600Y28517110I-1J-20320D01*
G03X24788960Y28391240I98371J-55968D01*
G01X24791130Y28388470D01*
Y28374800D01*
X24766920D01*
X24727550Y28414170D01*
X24729870Y28420300D01*
G03X24663920Y28354350I-105900J39950D01*
G01X24670050Y28356670D01*
X24733240Y28293480D01*
X24762830D01*
G02X24780490Y28263110I-1J-20320D01*
G03X24789850Y28137240I98371J-55968D01*
G01X24792020Y28134470D01*
Y28120800D01*
X24767810D01*
X24728440Y28160170D01*
X24730760Y28166300D01*
G03X24664810Y28100350I-105900J39950D01*
G01X24670940Y28102670D01*
X24734130Y28039480D01*
X24763710D01*
G02X24781370Y28009110I-1J-20320D01*
G03X24790730Y27883240I98371J-55968D01*
G01X24792900Y27880470D01*
Y27866800D01*
X24768710D01*
X24729330Y27906180D01*
X24731650Y27912310D01*
G03X24585090Y27846640I-105894J39952D01*
G01Y27842150D01*
X24590880Y27836360D01*
G02X24584140Y27803160I-14371J-14367D01*
G03X24666580Y27592360I42491J-104903D01*
G01X24672710Y27594680D01*
X24761750Y27505640D01*
X24768920D01*
G02X24778200Y27491330I4J-10162D01*
G03X24792510Y27375240I103322J-46191D01*
G01X24794680Y27372470D01*
Y27358800D01*
X24770480D01*
X24731100Y27398180D01*
X24733420Y27404310D01*
G03X24667470Y27338360I-105900J39950D01*
G01X24673600Y27340680D01*
X24736800Y27277480D01*
X24766360D01*
G02X24784020Y27247110I1J-20319D01*
G03X24793390Y27121250I98380J-55955D01*
G01X24795560Y27118480D01*
Y27104810D01*
X24771360D01*
X24731990Y27144180D01*
X24734310Y27150310D01*
G03X24668360Y27084360I-105900J39950D01*
G01X24674490Y27086680D01*
X24737680Y27023490D01*
X24767260D01*
G02X24784920Y26993120I-1J-20320D01*
G03X24794280Y26867250I98371J-55968D01*
G01X24796450Y26864480D01*
Y26850810D01*
X24772240D01*
X24732870Y26890180D01*
X24735190Y26896310D01*
G03X24669240Y26830360I-105900J39950D01*
G01X24675370Y26832680D01*
X24738560Y26769490D01*
X24768150D01*
G02X24785810Y26739120I-1J-20320D01*
G03X24795170Y26613250I98371J-55968D01*
G01X24797340Y26610480D01*
Y26596810D01*
X24773130D01*
X24733760Y26636180D01*
X24736080Y26642310D01*
G03X24670130Y26576360I-105900J39950D01*
G01X24676260Y26578680D01*
X24739450Y26515490D01*
X24769030D01*
G02X24786690Y26485120I-1J-20320D01*
G03X24796050Y26359250I98371J-55968D01*
G01X24798220Y26356480D01*
Y26342810D01*
X24774020D01*
X24734650Y26382180D01*
X24736970Y26388310D01*
G03X24671020Y26322360I-105900J39950D01*
G01X24677150Y26324680D01*
X24740340Y26261490D01*
X24769920D01*
G02X24787580Y26231120I-1J-20320D01*
G03X24796940Y26105250I98371J-55968D01*
G01X24799110Y26102480D01*
Y26088810D01*
X24774910D01*
X24735530Y26128190D01*
X24737850Y26134320D01*
G03X24671900Y26068370I-105900J39950D01*
G01X24678030Y26070690D01*
X24741230Y26007490D01*
X24770810D01*
G02X24788470Y25977120I-1J-20320D01*
G03X24938940Y25820670I98371J-55973D01*
G02X24968610Y25802630I9352J-18038D01*
G01Y25786130D01*
G02X24939070Y25768020I-20320J-2D01*
G03Y25566300I-51350J-100860D01*
G02X24968610Y25548190I9220J-18108D01*
G01Y25457910D01*
X24912680Y25401980D01*
X24906550Y25404300D01*
G03X24972500Y25338350I-39950J-105900D01*
G01X24970180Y25344480D01*
X25049930Y25424230D01*
Y26063630D01*
G02X25060020Y26073790I10159J1D01*
G03X25122620Y26137960I-430J63039D01*
G01X25122540Y26142280D01*
X25165100Y26184840D01*
X27055140D01*
X27083650Y26213350D01*
X27087970Y26213270D01*
G03X27026060Y26276320I1130J63030D01*
G01Y26266160D01*
X25524640D01*
G02X25510280Y26300850I5J20319D01*
G01X25798460Y26589040D01*
G03X25661940Y26725560I-68260J68260D01*
G01X25366880Y26430500D01*
X25364890Y26429730D01*
G03X25314100Y26295750I35112J-89927D01*
G02X25296010Y26266160I-18084J-9269D01*
G01X25191620D01*
G02X25177250Y26300850I-3J20320D01*
G01X25750150Y26873750D01*
X25754470Y26873670D01*
G03X25793580Y26987020I1133J63031D01*
G02X25787390Y27011780I12242J16214D01*
G03X25793150Y27035020I-57195J26510D01*
G01X25793360Y27038920D01*
X26310880Y27556440D01*
X26902740D01*
X26912150Y27565850D01*
G02X26946840Y27551480I14370J-14367D01*
G01Y27159600D01*
X26074910D01*
G03Y27078280I-48170J-40660D01*
G01X26940820D01*
X27173860Y26845240D01*
X27410740D01*
X27464650Y26899150D01*
X27468970Y26899070D01*
G03X27426350Y27007490I1129J63031D01*
G02X27412250I-7050J7313D01*
G03X27367370Y27025130I-43747J-45391D01*
G01X27363050Y27025050D01*
X27142460Y27245640D01*
Y28134640D01*
X27101250Y28175850D01*
X27101330Y28180170D01*
G03X27098350Y28200490I-63030J1135D01*
G02X27117700Y28227000I19353J6191D01*
G01X27174450D01*
X27283460Y28117990D01*
G02X27277920Y28085330I-14373J-14362D01*
G03X27264680Y27980390I27420J-56765D01*
G01Y27800600D01*
X27254180Y27790100D01*
Y27692020D01*
X27592960Y27353240D01*
X27645560D01*
G02X27664700Y27326110I-5J-20320D01*
G03X27725230Y27241970I59400J-21110D01*
G01X27729550Y27242050D01*
X28202560Y26769040D01*
X28484400D01*
X28978840Y26274600D01*
Y26269150D01*
G02X28958880Y26248830I-20320J-3D01*
G03X28945380Y26247120I1125J-63030D01*
G03X28849300Y26166890I-52879J-34320D01*
G01Y26027490D01*
X28198180Y25376370D01*
G02X28163500Y25390140I-14369J14368D01*
G03X28135260Y25455560I-96497J-2850D01*
G01X27878390Y25712440D01*
X25601310D01*
X25484140Y25595260D01*
G03X25620660Y25458740I68260J-68260D01*
G01X25681290Y25519360D01*
X26149660D01*
G02X26164030Y25484670I0J-20321D01*
G01X26086990Y25407640D01*
X25817410D01*
X25815690Y25408280D01*
G03X25743710Y25310800I-21987J-59080D01*
G02X25727590Y25278100I-16115J-12379D01*
G01X25166210D01*
X24942140Y25054030D01*
Y24990940D01*
X24935150Y24988640D01*
G03X24920790Y24979210I10332J-31382D01*
G02X24890330Y24979320I-15181J13506D01*
G03X24865600Y24990570I-24836J-21789D01*
G01X24785590Y24990850D01*
G03X24762530Y24981580I-113J-33037D01*
G02X24748460Y24981540I-7056J7313D01*
G03X24725800Y24990650I-22782J-23930D01*
G01X24644520Y24990930D01*
G03X24611360Y24958010I-120J-33040D01*
G01X24611080Y24876730D01*
G03X24619570Y24854500I33039J-118D01*
G02X24619680Y24827410I-15092J-13607D01*
G03X24611360Y24805610I24720J-21922D01*
G01X24611080Y24724330D01*
G03X24623760Y24698190I33039J-119D01*
G02X24623860Y24666270I-12526J-15999D01*
G03X24611360Y24640510I20541J-25880D01*
G01X24611080Y24559230D01*
G03X24620580Y24535930I33038J-116D01*
G01X24613340Y24518640D01*
X24604680D01*
G02X24585910Y24546750I-2J20321D01*
G03X24588440Y24559300I-30510J12681D01*
G01X24588720Y24640580D01*
G03X24576960Y24665980I-33041J125D01*
G01X24573340Y24669020D01*
Y24696770D01*
G03X24588440Y24724400I-17942J27746D01*
G01X24588720Y24805680D01*
G03X24576960Y24831080I-33041J125D01*
G01X24573340Y24834120D01*
Y24849170D01*
G03X24588440Y24876800I-17942J27746D01*
G01X24588720Y24958080D01*
G03X24576960Y24983480I-33041J125D01*
G01X24573340Y24986520D01*
Y25128210D01*
X24551010Y25150540D01*
G02X24565380Y25185220I14370J14363D01*
G01X24687660D01*
G03X24725780Y25223340I-5J38125D01*
G01Y25373460D01*
G03X24687660Y25411580I-38125J-5D01*
G01X24537540D01*
G03X24530180Y25410860I14J-38123D01*
G02X24505940Y25430790I-3921J19937D01*
G01Y25455830D01*
X24606410Y25556300D01*
X24611730Y25555250D01*
G03X24522710Y25644270I22000J111020D01*
G01X24523760Y25638950D01*
X24389060Y25504250D01*
Y25147190D01*
X24456460Y25079790D01*
Y24986230D01*
G03X24441360Y24958600I17942J-27746D01*
G01X24441080Y24877320D01*
G03X24452840Y24851920I33041J-125D01*
G01X24456460Y24848880D01*
Y24833830D01*
G03X24441360Y24806200I17942J-27746D01*
G01X24441080Y24724920D01*
G03X24452840Y24699520I33041J-125D01*
G01X24456460Y24696480D01*
Y24668730D01*
G03X24441360Y24641100I17942J-27746D01*
G01X24441080Y24559820D01*
G03X24454730Y24532950I33039J-118D01*
G01Y24471920D01*
X24524890Y24401760D01*
X24880490D01*
X24947860Y24334390D01*
Y23458090D01*
X25070990Y23334960D01*
X25484700D01*
X25827600Y22992060D01*
X26338980D01*
X26415400Y23067950D01*
X26565690Y23067430D01*
G03X26598840Y23099940I115J33039D01*
G01X26599000Y23109940D01*
X26662710D01*
X26663020Y23100110D01*
G03X26695930Y23068120I33025J1052D01*
G01X26895830Y23067430D01*
G03X26928980Y23100350I112J33038D01*
G01X26929460Y23235480D01*
G03X26896530Y23268640I-33043J117D01*
G01X26696630Y23269330D01*
G03X26663480Y23236820I-115J-33039D01*
G01X26663320Y23226820D01*
X26599610D01*
X26599300Y23236650D01*
G03X26566390Y23268640I-33025J-1052D01*
G01X26366490Y23269330D01*
G03X26333340Y23236410I-112J-33038D01*
G01X26333040Y23150880D01*
X26290800Y23108940D01*
X26272280D01*
Y23122170D01*
X26273980Y23124720D01*
G03X26288710Y23173830I-73430J48789D01*
G01X26288510Y23233520D01*
G03X26112190Y23232910I-88160J-305D01*
G01X26112390Y23173220D01*
G03X26120070Y23137550I88161J320D01*
G02X26101520Y23108940I-18552J-8290D01*
G01X26075170D01*
G02X26055910Y23135740I1J20321D01*
G03X26060510Y23164150I-83557J28107D01*
G01X26060310Y23223840D01*
G03X25883990Y23223230I-88160J-305D01*
G01X25884190Y23163540D01*
G03X25893850Y23123720I88162J306D01*
G02X25884810Y23108940I-9046J-4622D01*
G01X25876020D01*
X25533120Y23451840D01*
X25178390D01*
G02X25165020Y23487460I1J20320D01*
G03X25172760Y23495130I-58065J66335D01*
G02X25187120Y23495930I7579J-6768D01*
G03X25312120Y23517820I53873J60209D01*
G01X25449170D01*
G03X25482210Y23550860I0J33040D01*
G01Y23623730D01*
G02X25516900Y23638100I20320J3D01*
G01X25776860Y23378140D01*
X26397060D01*
X26507870Y23488950D01*
X26507970Y23517670D01*
X26567270Y23517470D01*
G03X26600420Y23550390I112J33038D01*
G01X26600900Y23685520D01*
G03X26567970Y23718680I-33043J117D01*
G01X26368070Y23719370D01*
G03X26334920Y23686450I-112J-33038D01*
G01X26334790Y23650140D01*
X26325610Y23649270D01*
G03X26312510Y23646940I7549J-80436D01*
G02X26286990Y23666510I-5200J19644D01*
G01X26286960Y23676550D01*
G03X26250370Y23747740I-88160J-314D01*
G02X26262260Y23784540I11888J16480D01*
G01X26551560D01*
X26665000Y23671100D01*
X26664580Y23551320D01*
G03X26697510Y23518160I33043J-117D01*
G01X26868370Y23517570D01*
X26871350Y23514520D01*
G03X26983470Y23511080I57843J56401D01*
G02X26997830Y23510370I6825J-7526D01*
G03X27151340Y23569850I65351J59171D01*
G37*
G36*
G01X25058240Y24724450D02*
X25058320Y24746820D01*
X25123160Y24811660D01*
Y25027560D01*
X25226340Y25130740D01*
X25354380D01*
G02X25368750Y25096050I3J-20320D01*
G01X25308560Y25035860D01*
Y23719040D01*
X25249270D01*
G03X25216230Y23686000I0J-33040D01*
G01Y23633340D01*
X25209970Y23630740D01*
G03X25209020Y23630340I30876J-74659D01*
G01X25207110Y23629510D01*
X25194880Y23629470D01*
X25194760Y23663850D01*
G03X25089090Y23749940I-88159J-313D01*
G02X25064740Y23769860I-4029J19917D01*
G01Y24382810D01*
X24928910Y24518640D01*
X24914230D01*
G02X24895560Y24546980I0J20320D01*
G03X24898240Y24559910I-30358J13035D01*
G01X24898520Y24639920D01*
G03X24885340Y24666440I-33037J116D01*
G02X24885230Y24698850I12207J16247D01*
G03X24889890Y24703170I-20026J26276D01*
G02X24920350Y24703060I15181J-13506D01*
G03X24945080Y24691810I24836J21789D01*
G01X25025090Y24691530D01*
G03X25058240Y24724450I113J33037D01*
G37*
G36*
G01X26502340Y29141320D02*
G02X26467650Y29126950I-20320J-3D01*
G01X26136910Y29457690D01*
X25120910D01*
X25107350Y29471250D01*
X25107430Y29475570D01*
G03X25043100Y29539730I-63031J1132D01*
G02X25028260Y29574360I-421J20314D01*
G01X25118380Y29665120D01*
X25120180D01*
X25246700Y29791640D01*
X26037630D01*
G03X26116520Y29777250I48174J40660D01*
G02X26146740Y29759510I9901J-17744D01*
G01Y29663060D01*
X26454650Y29355150D01*
X26454570Y29350830D01*
G03X26495540Y29290650I63029J-1127D01*
G02X26507930Y29265880I-7107J-19039D01*
G03X26505380Y29246980I60479J-17782D01*
G01X26505460Y29242660D01*
X26502340Y29239540D01*
Y29141320D01*
G37*
G36*
G01X25940520Y30027860D02*
X26179760D01*
Y29979120D01*
G02X26160060Y29958810I-20320J0D01*
G03X26099510Y29904080I1943J-63009D01*
G02X26088930Y29895260I-10075J1329D01*
G03X26037630Y29872960I-3128J-62960D01*
G01X25280520D01*
G02X25266150Y29907650I-3J20320D01*
G01X25572240Y30213740D01*
G02X25606930Y30199370I14370J-14367D01*
G01Y30114220D01*
X25769490Y29951660D01*
X25833490D01*
X25835210Y29951020D01*
G03X25920210Y30008160I21990J59080D01*
G02X25940520Y30027860I20310J-620D01*
G37*
G36*
G01X25274990Y30698820D02*
X25236190Y30737620D01*
Y31041050D01*
X25513640Y31318510D01*
X25520830Y31311420D01*
G03X25553480Y31294340I44270J44880D01*
G03X25614050Y31229810I63020J-1539D01*
G02X25627630Y31195140I-790J-20304D01*
G01X25614610Y31182120D01*
Y30953520D01*
X25579520Y30918420D01*
G02X25546560Y30924580I-14370J14369D01*
G03X25425920Y30896460I-57657J-25485D01*
G01X25426100Y30892010D01*
X25394360Y30860270D01*
Y30854380D01*
X25347910Y30807930D01*
Y30741070D01*
G02X25326670Y30720770I-20321J0D01*
G03X25282140Y30705120I-2883J-62974D01*
G01X25274990Y30698820D01*
G37*
G36*
G01X26807700Y27785000D02*
G03X26746190Y27792850I-37703J-50520D01*
G03X26654360Y27815690I-55970J-29009D01*
G03X26550880Y27807890I-49049J-39600D01*
G01X26547940Y27802860D01*
X25954660D01*
G02X25920150Y27816310I-14217J14521D01*
G03X25920000Y27818530I-62962J-3139D01*
G02X25927050Y27829110I10120J895D01*
G03X25966660Y27866110I-19047J60093D01*
G02X25990030Y27878500I18911J-7435D01*
G03X25955700Y27980660I13842J61500D01*
G01X25790260D01*
X25788200Y27978610D01*
G02X25770860Y27985790I-7182J7183D01*
G01Y28145830D01*
G03X25785690Y28223910I-40661J48171D01*
G03X25805390Y28261920I-42792J46289D01*
G02X25815970Y28270740I10075J-1329D01*
G03X25872570Y28300310I3131J62961D01*
G02X25904180Y28303920I17240J-10757D01*
G01X25932850Y28275250D01*
X26544890D01*
X26608620Y28338980D01*
G02X26643310Y28324610I14370J-14367D01*
G01Y28172220D01*
X26626290Y28155200D01*
X26621840Y28155380D01*
G03X26682180Y28095040I-2640J-62980D01*
G01X26682000Y28099490D01*
X26700490Y28117980D01*
G02X26734880Y28107070I14368J-14367D01*
G03X26752300Y28073350I62119J10732D01*
G02X26753440Y28060380I-7201J-7168D01*
G03X26764550Y27976240I51771J-35968D01*
G01Y27864150D01*
X26825140Y27803550D01*
G02X26823860Y27788100I-7182J-7183D01*
G03X26820260Y27785330I36619J-51316D01*
G02X26807700Y27785000I-6490J7817D01*
G37*
G36*
G01X25803880Y30144740D02*
X25723810Y30224810D01*
Y30226430D01*
G03X25728410Y30250780I-58438J23649D01*
G01Y30261060D01*
X26268560D01*
G02X26282930Y30226370I0J-20321D01*
G01X26201290Y30144740D01*
X25803880D01*
G37*
G36*
G01X26629660Y29590530D02*
G02X26594970Y29576160I-20321J-1D01*
G01X26582390Y29588750D01*
Y29785120D01*
X26425450Y29942050D01*
X26437360Y29953960D01*
X26443570Y29951500D01*
G03X26467930Y29947070I23239J58599D01*
G01X26472250Y29947150D01*
X26629660Y29789740D01*
Y29590530D01*
G37*
G36*
G01X26668110Y29915350D02*
G02X26633420Y29900980I-20320J-3D01*
G01X26529750Y30004650D01*
X26529830Y30008970D01*
G03X26408200Y29986870I-63029J1133D01*
G01X26410660Y29980660D01*
X26398750Y29968750D01*
X26381520Y29985990D01*
X26376520D01*
X26373500Y29989270D01*
G03X26319430Y30009170I-46401J-42670D01*
G02X26296640Y30029340I-2470J20170D01*
G01Y30074790D01*
X26376710Y30154860D01*
X26678730D01*
G02X26698270Y30128970I-1J-20319D01*
G03X26696780Y30122420I60637J-17238D01*
G03X26668110Y30011080I10720J-62122D01*
G01Y29915350D01*
G37*
G36*
G01X28837360Y27256760D02*
X28439440D01*
X27956840Y27739360D01*
X27797670D01*
G03X27723330Y27756050I-48172J-40661D01*
G02X27710270Y27760310I-4209J9245D01*
G03X27607870Y27770820I-54917J-30959D01*
G02X27577290Y27770780I-15308J13364D01*
G03X27490050Y27778020I-47372J-41591D01*
G03X27435660Y27783270I-32653J-53921D01*
G02X27410790Y27792670I-7001J19077D01*
G03X27356050Y27825670I-55425J-30037D01*
G02X27346000Y27835830I109J10158D01*
G01Y27980390D01*
G03X27368380Y28028840I-40658J48175D01*
G01Y28039040D01*
X27672780D01*
X27687540Y28024280D01*
X27786060D01*
X27800820Y28039040D01*
X28420260D01*
G02X28439400Y28011910I-5J-20320D01*
G03X28471710Y27933880I59400J-21108D01*
G02X28477000Y27921540I-4366J-9176D01*
G03X28497660Y27852560I59901J-19643D01*
G02X28499420Y27838460I-6325J-7949D01*
G03X28544400Y27737470I50179J-38163D01*
G02X28562970Y27718900I-1676J-20246D01*
G03X28570310Y27694190I62825J5217D01*
G03X28562640Y27610110I42790J-46293D01*
G03X28559080Y27517480I40919J-47956D01*
G02X28560410Y27504710I-7165J-7200D01*
G03X28661270Y27429440I52694J-34602D01*
G01X28713740D01*
X28851730Y27291450D01*
G02X28837360Y27256760I-14367J-14370D01*
G37*
G36*
G01X27633080Y28973020D02*
G02X27598390Y28987390I-14369J14370D01*
G01Y29382430D01*
X27738090Y29522130D01*
Y29815980D01*
X27805820Y29883710D01*
X27809170Y29884190D01*
G03X27754010Y29989390I-8868J62411D01*
G03X27661120Y29931260I-29908J-55491D01*
G01X27661300Y29926810D01*
X27621210Y29886720D01*
Y29732560D01*
G02X27593770Y29713530I-20319J0D01*
G03X27582920Y29716510I-22054J-59057D01*
G02X27566220Y29736970I3616J19997D01*
G03X27541660Y29788350I-63023J1435D01*
G03X27535530Y29861150I-54261J32089D01*
G03X27528650Y29934190I-54481J31712D01*
G02X27535270Y29965870I15341J13326D01*
G03X27461290Y30064910I-27067J56932D01*
G02X27427230Y30071100I-15126J13571D01*
G03X27424710Y30076740I-58746J-22865D01*
G01X27423610Y30078910D01*
Y30147410D01*
X27435250Y30159050D01*
G02X27466990Y30155220I14367J-14369D01*
G03X27564670Y30233270I53907J32683D01*
G01X27561560Y30236270D01*
Y30247260D01*
X27687600Y30373300D01*
X29195700D01*
X29473150Y30095850D01*
X29675310D01*
G02X29689170Y30060670I0J-20320D01*
G03X29663610Y30025360I77183J-82777D01*
G01X29497960D01*
X29028060Y29555460D01*
X28864470D01*
G03X28762830Y29548200I-48175J-40660D01*
G03X28681610Y29512910I-22728J-58800D01*
G03X28634950Y29404870I-2562J-62989D01*
G02X28631300Y29372980I-14208J-14528D01*
G03X28615400Y29359210I32740J-53869D01*
G03X28549560Y29253250I-25174J-57793D01*
G01Y29217640D01*
X28634250Y29132950D01*
G02X28619880Y29098260I-14367J-14370D01*
G01X28533490D01*
G02X28515750Y29128480I4J20319D01*
G03X28486920Y29216530I-55049J30720D01*
G01X28485260Y29217290D01*
X28476020Y29226530D01*
X28254830D01*
X28225620Y29255740D01*
X27915790D01*
X27633080Y28973020D01*
G37*
G36*
G01X29487330Y28834100D02*
X28501820D01*
X28331520Y29004410D01*
X28338800Y29011690D01*
X28338910Y29011790D01*
G03X28343770Y29016940I-43345J45773D01*
G01X28367660D01*
X28405760Y28978840D01*
X29636440D01*
G02X29656760Y28959030I6J-20321D01*
G03X29668470Y28911690I113142J2868D01*
G02X29650250Y28882360I-18214J-9009D01*
G01X29535590D01*
X29487330Y28834100D01*
G37*
%LPC*%
G75*
G36*
G01X27152710Y23176850D02*
G02X26976390Y23176240I-88160J-305D01*
G01X26976190Y23235930D01*
G02X27152510Y23236540I88160J305D01*
G01X27152710Y23176850D01*
G37*
G36*
G01X25196510Y23161130D02*
G02X25020190Y23160520I-88160J-305D01*
G01X25019990Y23220210D01*
G02X25196310Y23220820I88160J305D01*
G01X25196510Y23161130D01*
G37*
G36*
G01X26982560Y30986590D02*
X27083530Y30885620D01*
X27086740Y30885090D01*
G02X27014210Y30812560I-10340J-62190D01*
G01X27013680Y30815770D01*
X26941640Y30887810D01*
X26798070D01*
G02Y30986590I-39170J49390D01*
G01X26982560D01*
G37*
G36*
G01X26842350Y26886450D02*
X26788440Y26832540D01*
X26718170D01*
G02Y26913860I-48170J40660D01*
G01X26754760D01*
X26784850Y26943950D01*
X26784770Y26948270D01*
G02X26846670Y26886370I63030J1130D01*
G01X26842350Y26886450D01*
G37*
G36*
G01X28226810Y23209230D02*
G02X28006250Y23214360I-109010J57169D01*
G01X28003520Y23220220D01*
X27986880D01*
Y23181440D01*
G02X27948760Y23143320I-38115J-5D01*
G01X27778840D01*
G02X27740720Y23181440I-5J38115D01*
G01Y23351360D01*
G02X27778840Y23389480I38115J5D01*
G01X27817620D01*
Y23406120D01*
X27811760Y23408850D01*
G02X27972810Y23577570I52041J111549D01*
G03X28008790I17990J9443D01*
G02X28226810I109010J-57170D01*
G03X28262790I17990J9443D01*
G02X28480810I109010J-57170D01*
G03X28516790I17990J9443D01*
G02X28734810I109010J-57170D01*
G03X28770790I17990J9443D01*
G02X28936970Y23411390I109010J-57170D01*
G03Y23375410I9443J-17990D01*
G02X28770790Y23209230I-57170J-109010D01*
G03X28734810I-17990J-9443D01*
G02X28516790I-109010J57170D01*
G03X28480810I-17990J-9443D01*
G02X28262790I-109010J57170D01*
G03X28226810I-17990J-9443D01*
G37*
G36*
G01X28665880Y29972490D02*
X28661860Y29972360D01*
X28656390Y29966900D01*
X28531940D01*
G02X28510170Y29951860I-45920J43192D01*
G01X28503900Y29949270D01*
Y29878210D01*
G02X28417500I-43200J-45910D01*
G01Y30002660D01*
X28422890Y30008060D01*
X28423020Y30012080D01*
G02X28531940Y30053300I63009J-1980D01*
G01X28603040D01*
X28605640Y30059580D01*
G02X28683560Y30095400I58262J-24078D01*
G01X28685100Y30094890D01*
X28757560D01*
X28796610Y30055840D01*
X29211690D01*
X29213410Y30056480D01*
G02Y29938320I21990J-59080D01*
G01X29211690Y29938960D01*
X28781670D01*
X28780840Y29938820D01*
G02X28729060Y29955400I-9787J58581D01*
G01X28708360Y29976110D01*
X28685100D01*
X28683560Y29975600D01*
G02X28665880Y29972490I-19650J59901D01*
G37*
G54D35*
X24632840Y25920270D03*
G54D36*
X28294960Y31201910D03*
X29094950Y31204700D03*
%LPD*%
G75*
G54D10*
X24514900Y24765300D03*
Y24600200D03*
Y24917700D03*
X24684900Y24764710D03*
Y24599610D03*
Y24917110D03*
G54D11*
X24612600Y25298400D03*
G54D20*
X26466090Y23168380D03*
X26796230D03*
X26467670Y23618420D03*
X26797810D03*
G54D30*
G01X26377500Y31556420D02*
X26968300D01*
G01X26898600Y31076900D02*
X27063700D01*
X27152600Y31165800D01*
Y31229300D01*
X27101800Y31280100D01*
G01X27635200Y31165800D02*
X27749500D01*
X28028900Y30886400D01*
G01X28168600Y30746700D02*
X28232100Y30683200D01*
X28384500D01*
X28536900Y30530800D01*
G01X28804160Y28955440D02*
X28550160D01*
G01X28771060Y29997400D02*
X28732960Y30035500D01*
X28663900D01*
G54D21*
X27863800Y23266400D03*
G54D12*
X24632840Y25920270D03*
X24633730Y25666270D03*
X24631070Y26428260D03*
X24631950Y26174270D03*
X24629290Y26936260D03*
X24630180Y26682260D03*
X24627520Y27444260D03*
X24628410Y27190260D03*
X24625750Y27952260D03*
X24626630Y27698260D03*
X24623970Y28460250D03*
X24624860Y28206250D03*
X24622200Y28968250D03*
X24623090Y28714250D03*
X24621310Y29222250D03*
X24620430Y29476250D03*
X24618650Y29984240D03*
X24619540Y29730240D03*
X24617770Y30238240D03*
X24866600Y25298400D03*
X24886840Y25921150D03*
X24887720Y25667160D03*
X24885060Y26429150D03*
X24885950Y26175150D03*
X24883290Y26937150D03*
X24884180Y26683150D03*
X24881520Y27445140D03*
X24882400Y27191150D03*
X24879740Y27953140D03*
X24880630Y27699140D03*
X24877970Y28461140D03*
X24878860Y28207140D03*
X24876200Y28969140D03*
X24877080Y28715140D03*
X24874420Y29477130D03*
X24875310Y29223130D03*
X24872650Y29985130D03*
X24873540Y29731130D03*
X24870880Y30493130D03*
X24871770Y30239130D03*
X29780540Y25913920D03*
X29781430Y25659920D03*
X29778770Y26421910D03*
X29779650Y26167920D03*
X29776990Y26929910D03*
X29777880Y26675910D03*
X29775220Y27437910D03*
X29776110Y27183910D03*
X29773450Y27945910D03*
X29774330Y27691910D03*
X29771670Y28453900D03*
X29772560Y28199900D03*
X29769900Y28961900D03*
X29770790Y28707900D03*
X29769010Y29215900D03*
X29768130Y29469900D03*
X29766350Y29977890D03*
X29767240Y29723890D03*
X29765470Y30231890D03*
X30034540Y25914800D03*
X30035420Y25660810D03*
X30032760Y26422800D03*
X30033650Y26168800D03*
X30030990Y26930800D03*
X30031880Y26676800D03*
X30029220Y27438790D03*
X30030100Y27184800D03*
X30027440Y27946790D03*
X30028330Y27692790D03*
X30025670Y28454790D03*
X30026560Y28200790D03*
X30023900Y28962790D03*
X30024780Y28708790D03*
X30022120Y29470780D03*
X30023010Y29216780D03*
X30020350Y29978780D03*
X30021240Y29724780D03*
X30018580Y30486780D03*
X30019470Y30232780D03*
G54D31*
G01X24632840Y25796930D02*
Y25920270D01*
G01D02*
Y26043610D01*
G01X24509500Y25920270D02*
X24632840D01*
G01D02*
X24756180D01*
G01X24886840Y25797810D02*
Y25921150D01*
G01X24763500D02*
X24886840D01*
G54D22*
X27863800Y23520400D03*
X28117800Y23266400D03*
X28371800D03*
X28117800Y23520400D03*
X28371800D03*
X28625800Y23266400D03*
X28879800D03*
Y23520400D03*
X28625800D03*
G54D13*
X24523700Y30073600D03*
X25095200Y24612600D03*
X25059590Y26136830D03*
X24980900Y27762200D03*
X25147560Y27905720D03*
X25120120Y27838400D03*
X25044400Y29476700D03*
X24726900Y29400500D03*
X24765000Y29552900D03*
X24993600Y29984700D03*
X25082500Y29756100D03*
X24745340Y30434940D03*
X25159330Y30314270D03*
X25539700Y23139400D03*
X25603200Y24028400D03*
X25692100Y24714200D03*
X25273000Y25781000D03*
X25552400Y25527000D03*
X25400000Y26339800D03*
X25666700Y27266900D03*
X25623520Y27017980D03*
X25689580Y27180520D03*
X25238120Y27698560D03*
X25183870Y27746960D03*
X25214360Y27619700D03*
X25596340Y27579040D03*
X25628600Y27508200D03*
X25190280Y27819370D03*
X25234900Y28105100D03*
X25224020Y28194470D03*
X25281450Y28239040D03*
X25616380Y28765500D03*
X25628600Y29756100D03*
X25527000Y30060900D03*
X25323800Y29921200D03*
X25665370Y30250070D03*
X25387300Y30340300D03*
X25444450Y30664150D03*
X25209500Y30632400D03*
X25323800Y30657800D03*
X25384700Y30858380D03*
X25247600Y30899100D03*
X25488900D03*
X25539700Y30683200D03*
X25692100Y30886400D03*
X25590500Y30810200D03*
X25311100Y31534100D03*
X25407460Y31452660D03*
X25565100Y31356300D03*
X25616500Y31292800D03*
X25844500Y24028400D03*
X25783480Y23810020D03*
X25730200Y24511000D03*
X25966600Y24490500D03*
X25730200Y24790400D03*
X25793700Y25349200D03*
X25742900Y24866600D03*
X25730200Y26657300D03*
X25793700Y26441400D03*
X26098500Y26784300D03*
X25895300Y26758900D03*
X25755600Y26936700D03*
X26026740Y27118940D03*
X25730200Y27038310D03*
X26003870Y27940000D03*
X25908000Y27889200D03*
X25857200Y27813000D03*
Y27740310D03*
X25869900Y28181300D03*
X25730200Y28194000D03*
X25742900Y28270200D03*
X25984200Y28460700D03*
X25819100Y28333700D03*
X25984200Y28714700D03*
X26035600Y28651680D03*
X26047700Y28765500D03*
X26035000Y28841700D03*
X26040590Y29001210D03*
X26035000Y28917900D03*
X26136600Y28638500D03*
X26047700Y29083000D03*
X26003240Y29356060D03*
X26035000Y29171900D03*
X26047700Y29260800D03*
X25857200Y30010100D03*
X26073100Y29743400D03*
X26162000Y29895800D03*
X26085800Y29832300D03*
X25920700Y30251400D03*
X25742900D03*
X26193740Y30664140D03*
X25901820Y30906350D03*
X25819100Y30708600D03*
X26060400Y30861000D03*
X25999920Y30901330D03*
X26154220Y30859440D03*
X26225500Y30873700D03*
X25926290Y31138880D03*
X25958800Y31203900D03*
X25946100Y30759400D03*
X26263600Y25501600D03*
X26529740Y26962100D03*
X26670000Y26873200D03*
X26770000Y27734480D03*
X26690220Y27763840D03*
X26605310Y27776090D03*
X26250900Y28067000D03*
X26619200Y28092400D03*
X26644600Y28740100D03*
X26758900Y28702000D03*
X26250900Y28601160D03*
X26631900Y28829000D03*
X26619200Y28956000D03*
X26314400Y28651200D03*
X26606500Y29578300D03*
X26758900Y29210000D03*
X26568410Y29248110D03*
X26517600Y29349700D03*
X26364690Y29757060D03*
X26250900Y29857700D03*
X26581100Y30035500D03*
X26619200Y29705300D03*
X26466800Y30010100D03*
X26327100Y29946600D03*
X26707500Y30060300D03*
X26758900Y30111700D03*
X26301700Y30619700D03*
X26758900Y30937200D03*
X26289000Y30784920D03*
X26454100Y30886400D03*
X26408870Y31165820D03*
X26292990Y31153110D03*
X26352500Y31330900D03*
X26847800Y23901400D03*
X27258030Y24396220D03*
X27089100Y26276300D03*
X26847800Y26949400D03*
X27279600Y26962100D03*
X27203400Y26974800D03*
X26805210Y28024410D03*
X26860500Y27736800D03*
X27178000Y28067000D03*
X27127200Y28524200D03*
X27165300Y28397200D03*
X26797000Y28460700D03*
X26822400Y28378150D03*
X26784300Y28295600D03*
X27038300Y28181300D03*
X26911300Y28067000D03*
X26797000Y28117800D03*
X26974800Y28486100D03*
X26962190Y28206610D03*
X27063700Y28435300D03*
X26846050Y28778200D03*
X26848010Y28962940D03*
X26846050Y29035610D03*
X26936700Y28879800D03*
X27063700Y29552900D03*
X27228800Y29146500D03*
X27301490D03*
X26809660Y30048200D03*
X27114500Y29654500D03*
X26826570Y30412870D03*
X26876370Y30359910D03*
X27089100Y30530800D03*
X26949400Y30429200D03*
X27165300Y30543500D03*
X26847800Y30289500D03*
X27101800Y30454600D03*
X27020680Y30443460D03*
X27255300Y30529700D03*
X26835100Y31013400D03*
X27076400Y30822900D03*
X27101800Y31280100D03*
X27038300Y31216600D03*
X27329010Y24434320D03*
X27736800Y25781000D03*
X27622500Y26428700D03*
X27470100Y26962100D03*
X27368500D03*
X27724100Y27305000D03*
X27529920Y27729190D03*
X27355370Y27762630D03*
X27457400Y27724100D03*
X27749500Y27698700D03*
X27655350Y27729350D03*
X27736800Y28143200D03*
X27508200Y28168600D03*
X27330400Y28244800D03*
X27673300Y28194000D03*
X27305340Y28028560D03*
X27800300Y28206700D03*
X27686000Y28308300D03*
X27736800Y28549600D03*
X27635200Y28892500D03*
X27609800Y28778200D03*
X27800300Y29946600D03*
X27487400Y29820440D03*
X27724100Y29933900D03*
X27481050Y29892860D03*
X27499100Y29665450D03*
X27571690Y29654480D03*
X27508200Y30022800D03*
X27503200Y29738400D03*
X27368500Y30048200D03*
X27482800Y30530800D03*
X27520900Y30187900D03*
X27317830Y30492620D03*
X27508200Y30443180D03*
X27635200Y31165800D03*
X28067000Y25387300D03*
X27927300Y27241500D03*
X28083530Y27296130D03*
X28155900Y27889200D03*
X28206700Y28549600D03*
X28270200Y28486100D03*
X28155900Y28422600D03*
X28295600Y29057600D03*
X28120680Y28802160D03*
X28174740Y28753560D03*
X28143200Y29000930D03*
X28117780Y28701310D03*
X28195770Y28859720D03*
X28212410Y28960360D03*
X28259970Y28893820D03*
X28172840Y28651780D03*
X28116320Y28600670D03*
X27927300Y29400500D03*
X28194000Y29108400D03*
X27978100Y30048200D03*
X28041600Y30314900D03*
X28168600Y30746700D03*
X28028900Y30886400D03*
X28765500Y25577800D03*
X28778200Y25666700D03*
X28752800Y25463500D03*
X28892500Y26212800D03*
X28422600Y27419300D03*
X28613100Y27470100D03*
X28384500Y26987500D03*
X28575000Y28003020D03*
X28549600Y27800300D03*
X28603560Y27562160D03*
X28613100Y27647900D03*
X28625800Y27724100D03*
X28498800Y27990800D03*
X28536900Y27901900D03*
X28651200Y28041600D03*
X28600400Y28155900D03*
X28804160Y28955440D03*
X28550160D03*
X28460700Y29159200D03*
X28664050Y29319120D03*
X28805120Y29306010D03*
X28590220Y29301420D03*
X28735040Y29334750D03*
X28679050Y29449920D03*
X28816300Y29514800D03*
X28740100Y29489400D03*
X28486030Y30010100D03*
X28460700Y29832300D03*
X28663900Y30035500D03*
X28536900Y30530800D03*
X28854400Y30353000D03*
X29400500Y25069800D03*
X29108400Y25031700D03*
X28960000Y26185800D03*
X28943300Y27533600D03*
X29235400Y29997400D03*
X29400500Y30060900D03*
X29514800Y23622000D03*
X29476700Y23964900D03*
X29578300Y24650700D03*
X29489400Y28549600D03*
X29629100Y28511500D03*
X29895800Y30010100D03*
X29984700Y24015700D03*
X30124400Y24561800D03*
G54D32*
G01X29476700Y23964900D02*
X29197300Y24244300D01*
X27165300D01*
X26919100Y24490500D01*
X25966600D01*
G54D14*
X24616880Y30492240D03*
X29764580Y30485890D03*
G54D23*
X28294960Y31201910D03*
X29094950Y31204700D03*
G54D33*
G01X25311100Y31534100D02*
X26305180D01*
X26327500Y31556420D01*
X26377500D01*
G01X26968300D02*
X27101800Y31422920D01*
Y31280100D01*
G54D24*
G01X28892500Y26212800D02*
Y26009600D01*
X28117800Y25234900D01*
X25184100D01*
X24985340Y25036140D01*
Y24917110D01*
G01X26250900Y29857700D02*
X26301700Y29806900D01*
X26344370D01*
X26364690Y29786580D01*
Y29757060D01*
G01X27736800Y28143200D02*
X27734740Y28141140D01*
X27535660D01*
X27508200Y28168600D01*
G01X28486030Y30010100D02*
X28460700Y29984770D01*
Y29832300D01*
G01X28486030Y30010100D02*
X28638500D01*
X28663900Y30035500D01*
G54D15*
X25108250Y23190670D03*
X26200450Y23203370D03*
X25972250Y23193690D03*
X27064450Y23206390D03*
G54D34*
G01X25273000Y25781000D02*
X27736800D01*
G01X28067000Y25387300D02*
X27838400Y25615900D01*
X25641300D01*
X25552400Y25527000D01*
G01X25400000Y26339800D02*
X25412700D01*
X25730200Y26657300D01*
G01X27622500Y26428700D02*
X25806400D01*
X25793700Y26441400D01*
G01X30124400Y24561800D02*
X29946600Y24384000D01*
X29476700D01*
X29108400Y24752300D01*
Y25031700D01*
G01X29578300Y24650700D02*
Y24892000D01*
X29400500Y25069800D01*
G54D25*
G01X24765000Y29552900D02*
X24752300Y29540200D01*
Y29425900D01*
X24726900Y29400500D01*
G01X25488900Y30899100D02*
X25433750Y30843950D01*
Y30838060D01*
X25387300Y30791610D01*
Y30632400D01*
X25311100Y30556200D01*
X25059150D01*
G01X25999920Y30901330D02*
Y30622720D01*
X25984200Y30607000D01*
X25615900D01*
X25539700Y30683200D01*
G01X26225500Y30873700D02*
Y30740830D01*
X26250900Y30715430D01*
Y30635900D01*
X26185170Y30570170D01*
X25538430D01*
X25444450Y30664150D01*
G01X26408870Y31165820D02*
X26370790Y31203900D01*
X26238200D01*
X26003800Y31438300D01*
X25494700D01*
X25171400Y31115000D01*
Y30670500D01*
X25209500Y30632400D01*
G01X25958800Y31203900D02*
X25895300Y31267400D01*
X25755600D01*
X25654000Y31165800D01*
Y30937200D01*
X25590500Y30873700D01*
Y30810200D01*
G01X26292990Y31153110D02*
X26200090D01*
X25946100Y31407100D01*
X25546530D01*
X25196800Y31057370D01*
Y30721300D01*
X25260300Y30657800D01*
X25323800D01*
G01X26154220Y30859440D02*
Y31148180D01*
X25946100Y31356300D01*
X25565100D01*
G01X25946100Y30759400D02*
Y30808460D01*
X25950870Y30813230D01*
Y30921650D01*
X26035000Y31005890D01*
Y31203900D01*
X25911400Y31327500D01*
X25651200D01*
X25616500Y31292800D01*
G01X26162000Y29895800D02*
X26187400Y29870400D01*
Y29857700D01*
G01X25901820Y30906350D02*
X25858040Y30862570D01*
Y30747540D01*
X25819100Y30708600D01*
G01X26060400Y30861000D02*
Y30708600D01*
X26104860Y30664140D01*
X26193740D01*
G01X25926290Y31138880D02*
X25877230D01*
X25692100Y30953750D01*
Y30886400D01*
G01X26707500Y30060300D02*
Y28733630D01*
X26682700Y28708830D01*
Y28155900D01*
X26619200Y28092400D01*
G01X26327100Y29946600D02*
X26365200D01*
X26543000Y29768800D01*
Y29572430D01*
X26641480Y29473950D01*
Y29251810D01*
X26619200Y29229530D01*
Y28956000D01*
G01X26301700Y30619700D02*
Y30530800D01*
G01X26289000Y30784920D02*
X26390480Y30886400D01*
X26454100D01*
G01X27165300Y28397200D02*
X27254200Y28308300D01*
X27686000D01*
G01X26809660Y30048200D02*
Y29191390D01*
X26797000Y29178730D01*
Y28733270D01*
X26807950Y28722320D01*
Y28681680D01*
X26797000Y28670730D01*
Y28460700D01*
G01X26846050Y28778200D02*
X26836850Y28787400D01*
Y28856140D01*
X27038300Y29057590D01*
Y29460300D01*
X26976550Y29522050D01*
Y29630850D01*
X27190700Y29845000D01*
X27459080D01*
X27483640Y29820440D01*
X27487400D01*
G01X26848010Y28962940D02*
X26855520Y28970450D01*
X26900350D01*
X27012900Y29083000D01*
Y29438600D01*
X26949400Y29502100D01*
Y29641790D01*
X27216110Y29908500D01*
X27464220D01*
X27479860Y29892860D01*
X27481050D01*
G01X27508200Y30022800D02*
X27470100Y29984700D01*
X27241500D01*
X26924000Y29667200D01*
Y29464000D01*
X26987500Y29400500D01*
Y29108400D01*
X26924000Y29044900D01*
X26855340D01*
X26846050Y29035610D01*
G01X26936700Y28879800D02*
X26949400D01*
X27062430Y28992830D01*
Y29017850D01*
X27063700Y29019120D01*
Y29470830D01*
X27001950Y29532580D01*
Y29618150D01*
X27165300Y29781500D01*
X27456970D01*
X27467080Y29771390D01*
X27470210D01*
X27503200Y29738400D01*
G01X27063700Y29552900D02*
X27082270D01*
X27145770Y29616400D01*
X27533610D01*
X27571690Y29654480D01*
G01X27499100Y29665450D02*
X27492390D01*
X27439840Y29718000D01*
X27165300D01*
X27114500Y29667200D01*
Y29654500D01*
G01X27800300Y29946600D02*
Y29933900D01*
X27698700Y29832300D01*
Y29538450D01*
X27559000Y29398750D01*
Y28829000D01*
X27609800Y28778200D01*
G01X27724100Y29933900D02*
X27660600Y29870400D01*
Y29552890D01*
X27520900Y29413190D01*
Y28765500D01*
X27736800Y28549600D01*
G54D16*
X25106790Y23608680D03*
X26198990Y23621380D03*
X25970790Y23611700D03*
X27062990Y23624400D03*
G54D26*
G01X25095200Y24612600D02*
X24998330D01*
X24985340Y24599610D01*
G01X24684900Y24764710D02*
X24824780D01*
X24825340Y24765270D01*
G01Y24600170D02*
X24685460D01*
X24684900Y24599610D01*
G01X24825340Y24917670D02*
X24685460D01*
X24684900Y24917110D01*
G01X25730200Y24511000D02*
Y24676100D01*
X25692100Y24714200D01*
G01X26073100Y29743400D02*
X25641300D01*
X25628600Y29756100D01*
G01X25920700Y26784300D02*
X25895300Y26758900D01*
G01X25869900Y28181300D02*
X26136600D01*
X26250900Y28067000D01*
G01X26619200Y29705300D02*
Y29591000D01*
X26606500Y29578300D01*
G01D02*
Y29760160D01*
G01X26335480Y30031180D02*
Y30107380D01*
X26377900Y30149800D01*
X26466800D01*
X26581100Y30035500D01*
G01X26606500Y29760160D02*
X26335480Y30031180D01*
G01X27178000Y28067000D02*
X27249710D01*
X27277780Y28095070D01*
G01D02*
X27317180D01*
X27396050Y28016200D01*
G01D02*
X28028900D01*
X28155900Y27889200D01*
G01X29895800Y30010100D02*
X29809070Y30096830D01*
X29436430D01*
G54D17*
X24985340Y24764710D03*
X24825340Y24765270D03*
X24985340Y24599610D03*
X24825340Y24600170D03*
X24985340Y24917110D03*
X24825340Y24917670D03*
G54D27*
G01X25527000Y30060900D02*
X25463500D01*
X25323800Y29921200D01*
G01X25384700Y30858380D02*
X25343980Y30899100D01*
X25247600D01*
G01X25407460Y31452660D02*
X25428500Y31473700D01*
X26330200D01*
X26352500Y31496000D01*
G01X25920700Y30251400D02*
X25742900D01*
G01X26758900Y30937200D02*
X26962100D01*
X27076400Y30822900D01*
G01X26352500Y31496000D02*
Y31330900D01*
G01Y31496000D02*
X26898600D01*
X27025600Y31369000D01*
Y31229300D01*
X27038300Y31216600D01*
G01X26835100Y31013400D02*
X26898600Y31076900D01*
G54D18*
X25349220Y23168390D03*
Y23618430D03*
G54D28*
G01X24631950Y26174270D02*
X24758070Y26048150D01*
X24938570D01*
X24981330Y26090910D01*
Y26231010D01*
X25148540Y26398220D01*
Y26451600D01*
X25730200Y27033260D01*
G01X24630180Y26682260D02*
X24756290Y26556150D01*
X24892070D01*
X25551800Y27215880D01*
Y27216080D01*
X25581280Y27245560D01*
X25581480D01*
X25616380Y27280460D01*
Y27330880D01*
X26011270Y27725770D01*
X26652150D01*
X26690220Y27763840D01*
G01X25689580Y27180520D02*
Y27178000D01*
X25031700Y26520120D01*
Y26379320D01*
X24954530Y26302150D01*
X24757180D01*
X24631070Y26428260D01*
G01X25628600Y27508200D02*
X25615900D01*
X24917850Y26810150D01*
X24755400D01*
X24629290Y26936260D01*
G01X24627520Y27444260D02*
X24753640Y27318140D01*
X25145720D01*
X25730200Y27902620D01*
Y28194000D01*
G01X25908000Y27889200D02*
X25806400D01*
X25758140Y27840940D01*
X25747560D01*
X24970770Y27064150D01*
X24754520D01*
X24628410Y27190260D01*
G01X24625750Y27952260D02*
Y27965850D01*
X24638000Y27978100D01*
G01X24625750Y27952260D02*
X24751870Y27826140D01*
X24917840D01*
X25011380Y27919680D01*
Y27983180D01*
X25095200Y28067000D01*
Y28319580D01*
X25299820Y28524200D01*
X26200100D01*
X26250900Y28575000D01*
Y28601160D01*
G01X25214360Y27619700D02*
X25178770Y27584110D01*
X24835820D01*
X24753630Y27666300D01*
Y27731110D01*
X24625750Y27858990D01*
Y27952260D01*
G01X25819100Y28333700D02*
X25805920Y28320520D01*
X25718440D01*
X25651940Y28254020D01*
Y27903400D01*
X25294840Y27546300D01*
X24778590D01*
X24626630Y27698260D01*
G01X25984200Y28714700D02*
X25946100Y28676600D01*
X25247600D01*
X24905140Y28334140D01*
X24750080D01*
X24623970Y28460250D01*
G01X26136600Y28638500D02*
Y28615640D01*
X26121360Y28600400D01*
X25296980D01*
X25039320Y28342740D01*
Y28341320D01*
X25031700Y28333700D01*
Y28130490D01*
X24981350Y28080140D01*
X24750970D01*
X24624860Y28206250D01*
G01X26035000Y28841700D02*
X26022300Y28854400D01*
X25195940D01*
X24929680Y28588140D01*
X24749200D01*
X24623090Y28714250D01*
G01X24622200Y28968250D02*
X24748310Y28842140D01*
X24928800D01*
X25087870Y29001210D01*
X26040590D01*
G01X26003240Y29356060D02*
X25984180Y29337000D01*
X24719240D01*
X24676580Y29379660D01*
Y29420100D01*
X24620430Y29476250D01*
G01X25082500Y29756100D02*
X25046910Y29720510D01*
X25042530D01*
X24930830Y29608810D01*
X24925630D01*
X24924630Y29607810D01*
X24822450D01*
X24821450Y29608810D01*
X24780250D01*
X24764910Y29624150D01*
X24706570D01*
X24620430Y29538010D01*
Y29476250D01*
G01X24621310Y29222250D02*
X24747420Y29096140D01*
X24963680D01*
X25039440Y29171900D01*
X26035000D01*
G01X26826570Y30412870D02*
X26760350D01*
X26708100Y30360620D01*
X25509220D01*
X25031700Y29883100D01*
X24984560D01*
X24935330Y29833870D01*
X24725330D01*
X24686340Y29872860D01*
Y29917030D01*
X24618650Y29984240D01*
G01X24523700Y30073600D02*
X24561340Y30111240D01*
X24651500D01*
X24714030Y30048710D01*
Y29934070D01*
X24786290Y29861810D01*
X24923740D01*
X24996310Y29934380D01*
X25028680D01*
X25107900Y30013600D01*
Y30060900D01*
X25387300Y30340300D01*
G01X26847800Y30289500D02*
X26797480D01*
X26785260Y30301720D01*
X25602720D01*
X25118060Y29817060D01*
X25067260D01*
X24987040Y29736840D01*
Y29704540D01*
X24919250Y29636750D01*
X24914050D01*
X24913050Y29635750D01*
X24834030D01*
X24833030Y29636750D01*
X24791830D01*
X24698340Y29730240D01*
X24619540D01*
G01X27089100Y30530800D02*
X27040840Y30579060D01*
X26718270D01*
X26629370Y30490160D01*
X25047520D01*
X24923490Y30366130D01*
X24742990D01*
X24616880Y30492240D01*
G01X27020680Y30443460D02*
X26971440Y30492700D01*
X26746200D01*
X26672060Y30418560D01*
X25148060D01*
X24993600Y30264100D01*
Y30185440D01*
X24932560Y30124400D01*
X24677860D01*
X24638000Y30164260D01*
Y30218010D01*
X24617770Y30238240D01*
G01X24985340Y24764710D02*
X25018710D01*
X25082500Y24828500D01*
Y25044400D01*
X25209500Y25171400D01*
X28130500D01*
X28956000Y25996900D01*
Y26131480D01*
X28960000Y26135480D01*
Y26185800D01*
G01X24866600Y25298400D02*
X25009270Y25441070D01*
Y26190370D01*
X25755600Y26936700D01*
G01X24885950Y26175150D02*
X25120600Y26411480D01*
Y26504900D01*
X25647650Y27031950D01*
G01X25059590Y26136830D02*
X25148260Y26225500D01*
X27038300D01*
X27089100Y26276300D01*
G01X25666700Y27228800D02*
X24885060Y26447160D01*
Y26429150D01*
G01X25528760Y27582620D02*
X24883290Y26937150D01*
G01X24884180Y26683150D02*
X24892450D01*
X25971500Y27762200D01*
X26591420D01*
X26605310Y27776090D01*
G01X25742900Y28270200D02*
X25717020Y28244320D01*
X25709360D01*
X25679880Y28214840D01*
Y27891820D01*
X25194660Y27406600D01*
X24920060D01*
X24881520Y27445140D01*
G01X26003870Y27940000D02*
X25807100D01*
X25058250Y27191150D01*
X24882400D01*
G01X25044400Y29476700D02*
X25104070Y29417030D01*
X26120070D01*
X26492200Y29044900D01*
Y28930600D01*
X26530300Y28892500D01*
Y28397200D01*
X26504900Y28371800D01*
X25976560D01*
X25890200Y28458160D01*
X25322680D01*
X25156640Y28292120D01*
Y28040960D01*
X25067260Y27951580D01*
Y27861260D01*
X24980900Y27774900D01*
Y27762200D01*
G01X25234900Y28105100D02*
Y27993060D01*
X25147560Y27905720D01*
G01X25984200Y28460700D02*
X25958800D01*
X25933400Y28486100D01*
X25311100D01*
X25128700Y28303700D01*
Y28052540D01*
X25039320Y27963160D01*
Y27896830D01*
X24880630Y27738140D01*
Y27699140D01*
G01X24879740Y27953140D02*
X24917830D01*
X25067260Y28102570D01*
Y28331160D01*
X25298400Y28562300D01*
X26136600D01*
X26225780Y28651480D01*
X26314120D01*
X26314400Y28651200D01*
G01X25120120Y27838400D02*
Y27850620D01*
X25095200Y27875540D01*
Y27940000D01*
X25184580Y28029380D01*
Y28125940D01*
X25222200Y28163560D01*
Y28192650D01*
X25224020Y28194470D01*
G01X24878860Y28207140D02*
Y28268340D01*
X25249020Y28638500D01*
X26009600D01*
X26022780Y28651680D01*
X26035600D01*
G01X24877970Y28461140D02*
X25182330Y28765500D01*
X25616380D01*
G01X26035000Y28917900D02*
X25079840D01*
X24877080Y28715140D01*
G01X26047700Y29083000D02*
X24990060D01*
X24876200Y28969140D01*
G01X26047700Y29260800D02*
X26009600Y29298900D01*
X24951080D01*
X24875310Y29223130D01*
G01X26085800Y29832300D02*
X25229860D01*
X25103340Y29705780D01*
X25101450D01*
X24874420Y29477130D01*
G01X24873540Y29731130D02*
X24986290Y29845000D01*
X25082500D01*
X25567170Y30329670D01*
X26722880D01*
X26753120Y30359910D01*
X26876370D01*
G01X26949400Y30429200D02*
X26899080D01*
X26863520Y30464760D01*
X26769050D01*
X26695390Y30391100D01*
X26684120D01*
X26683640Y30390620D01*
X25335030D01*
X24997230Y30052820D01*
X24939860D01*
X24872650Y29985130D01*
G01X25159330Y30314270D02*
X25123740Y30278680D01*
Y30278630D01*
X25021540Y30176430D01*
Y30173860D01*
X24928190Y30080510D01*
X24833140D01*
X24777270Y30024640D01*
Y29945620D01*
X24833140Y29889750D01*
X24912160D01*
X24968030Y29945620D01*
Y29973500D01*
X24979230Y29984700D01*
X24993600D01*
G01X25059150Y30556200D02*
X24995650Y30619700D01*
X24817840D01*
X24752300Y30554160D01*
Y30441900D01*
X24745340Y30434940D01*
G01X26301700Y30530800D02*
X26289000Y30518100D01*
X24990900D01*
X24966260Y30493460D01*
X24870880Y30493130D01*
G01X24871770Y30239130D02*
X25087240Y30454600D01*
X26657300D01*
X26746200Y30543500D01*
X27000200D01*
X27089100Y30454600D01*
X27101800D01*
G01X28778200Y25666700D02*
X28168600Y25057100D01*
X25463500D01*
X25387300Y24980900D01*
Y23825200D01*
X25793700Y23418800D01*
X26380220D01*
X26467270Y23505850D01*
X26467670Y23618420D01*
G01X27724100Y27305000D02*
X28219400Y26809700D01*
X28501240D01*
X29019500Y26291440D01*
Y25996900D01*
X28130500Y25107900D01*
X25438100D01*
X25349220Y25019020D01*
Y23618430D01*
G01X28752800Y25463500D02*
X28702480D01*
X28207180Y24968200D01*
X25527000D01*
X25476200Y24917400D01*
Y24296520D01*
X25947520Y23825200D01*
X26568400D01*
X26775180Y23618420D01*
X26797810D01*
G01X26770000Y27734480D02*
X26759620Y27724100D01*
X26746200D01*
X26719930Y27697830D01*
X26135730D01*
X25666700Y27228800D01*
G01Y27266900D02*
Y27228800D01*
G01X25647650Y27031950D02*
X26250900Y27635200D01*
X26873200D01*
X26910820Y27672820D01*
Y27775380D01*
X26805210Y27880990D01*
Y28024410D01*
G01X25623520Y27017980D02*
X25637490Y27031950D01*
X25647650D01*
G01X25689580Y27180520D02*
X25694620D01*
X26177240Y27663140D01*
X26786840D01*
X26860500Y27736800D01*
G01X25238120Y27698560D02*
X25209500D01*
X25235040Y27724100D01*
X25260300D01*
X25615900Y28079700D01*
Y28281480D01*
X25718440Y28384020D01*
X25881580D01*
X25949690Y28315910D01*
X26528050D01*
X26619200Y28407060D01*
Y28714700D01*
X26644600Y28740100D01*
G01X25183870Y27746960D02*
X25184100D01*
X25186640Y27749500D01*
X25209500D01*
X25587960Y28127960D01*
Y28293060D01*
X25706860Y28411960D01*
X25893160D01*
X25961270Y28343850D01*
X26516470D01*
X26581100Y28408480D01*
Y28892500D01*
X26543000Y28930600D01*
Y29222700D01*
X26568410Y29248110D01*
G01X25857200Y27813000D02*
X25759140D01*
X25528760Y27582620D01*
G01X25596340Y27579040D02*
Y27577540D01*
X25575870Y27557070D01*
X25554310D01*
X25528760Y27582620D01*
G01X25857200Y27740310D02*
X25848010D01*
X25628600Y27520900D01*
Y27508200D01*
G01X25281450Y28239040D02*
Y28223650D01*
X25285700Y28219400D01*
Y27927300D01*
X25190280Y27831880D01*
Y27819370D01*
G01X25616380Y28765500D02*
X26047700D01*
G01X27329010Y24434320D02*
X27292780D01*
X27086560Y24640540D01*
X25956260D01*
X25742900Y24853900D01*
Y24866600D01*
G01X27258030Y24396220D02*
X27241980D01*
X27025600Y24612600D01*
X25908000D01*
X25730200Y24790400D01*
G01X27470100Y26962100D02*
X27393900Y26885900D01*
X27190700D01*
X26957660Y27118940D01*
X26026740D01*
G01X26911300Y28067000D02*
Y27825700D01*
X26949400Y27787600D01*
Y27660600D01*
X26885900Y27597100D01*
X26294040D01*
X25730200Y27033260D01*
G01Y27038310D02*
Y27033260D01*
G01X26187400Y29857700D02*
Y29679900D01*
X26517600Y29349700D01*
G01X26670000Y26873200D02*
X26771600D01*
X26847800Y26949400D01*
G01X28651200Y28041600D02*
X28613100Y28079700D01*
X27783980D01*
X27769220Y28064940D01*
X27704380D01*
X27689620Y28079700D01*
X27379250D01*
X27191290Y28267660D01*
X26952070D01*
X26897210Y28212800D01*
X26790900D01*
X26714200Y28289500D01*
Y28342580D01*
X26749770Y28378150D01*
X26822400D01*
G01X26631900Y28829000D02*
X26670320Y28867420D01*
Y29806580D01*
X26466800Y30010100D01*
G01X26301700Y30530800D02*
X26606490D01*
X26682690Y30607000D01*
X27101800D01*
X27165300Y30543500D01*
G01X27038300Y28181300D02*
X27101800Y28117800D01*
Y27228800D01*
X27368500Y26962100D01*
G01X27203400Y26974800D02*
X26987500Y27190700D01*
Y28102080D01*
X26972260Y28117320D01*
X26898000D01*
X26897520Y28117800D01*
X26797000D01*
G01X26962190Y28206610D02*
X26962100Y28206520D01*
Y28186340D01*
X27025600Y28122840D01*
Y27223760D01*
X27253720Y26995640D01*
Y26987980D01*
X27279600Y26962100D01*
G01X27800300Y28206700D02*
X27787600Y28219400D01*
Y28333700D01*
X27597100Y28524200D01*
X27127200D01*
G01X28600400Y28155900D02*
X28552140Y28107640D01*
X27772400D01*
X27757640Y28092880D01*
X27715960D01*
X27701200Y28107640D01*
X27390830D01*
X27202870Y28295600D01*
X26784300D01*
G01X27228800Y29146500D02*
Y29070300D01*
X26974800Y28816300D01*
Y28486100D01*
G01X27301490Y29146500D02*
X27294840D01*
X27279120Y29130780D01*
Y29081100D01*
X27025600Y28827580D01*
Y28473400D01*
X27063700Y28435300D01*
G01X26758900Y28702000D02*
Y29210000D01*
G01X27368500Y30048200D02*
X27355800Y30060900D01*
X27012900D01*
X26962100Y30111700D01*
X26758900D01*
G01X27255300Y30529700D02*
X27551040Y30825440D01*
X29172190D01*
X29403350Y30594300D01*
X29944060D01*
X30018580Y30519780D01*
Y30486780D01*
G01X27952700Y27279600D02*
X27838400Y27393900D01*
X27609800D01*
X27294840Y27708860D01*
Y27773260D01*
X27305340Y27783760D01*
Y28028560D01*
G01X27355370Y27762630D02*
Y27742270D01*
X27652940Y27444700D01*
X27863800D01*
X28356560Y26951940D01*
G01X30034540Y25914800D02*
X29908420Y26040920D01*
X29727060D01*
X28704280Y27063700D01*
X28418980D01*
X28416920Y27065760D01*
X28395140D01*
X27889200Y27571700D01*
X27724100D01*
X27584400Y27711400D01*
X27547710D01*
X27529920Y27729190D01*
G01X28083530Y27296130D02*
X28067000Y27312660D01*
Y27317700D01*
X27876500Y27508200D01*
X27660600D01*
X27457400Y27711400D01*
Y27724100D01*
G01X30033650Y26168800D02*
X29907530Y26294920D01*
X29766420D01*
X28845240Y27216100D01*
X28422600D01*
X27940000Y27698700D01*
X27749500D01*
G01X29779650Y26167920D02*
Y26227360D01*
X28867110Y27139900D01*
X28397200D01*
X27901900Y27635200D01*
X27724100D01*
X27655350Y27703950D01*
Y27729350D01*
G01X27330400Y28244800D02*
X27622500D01*
X27673300Y28194000D01*
G01X29765470Y30231890D02*
X29758660Y30238700D01*
X29452720D01*
X29249520Y30441900D01*
X27659180D01*
X27492960Y30275680D01*
Y30274260D01*
X27382950Y30164250D01*
Y30062650D01*
X27368500Y30048200D01*
G01X27520900Y30187900D02*
Y30264100D01*
X27670760Y30413960D01*
X29212540D01*
X29489990Y30136510D01*
X29862620D01*
X30020350Y29978780D01*
G01X27317830Y30492620D02*
X27622710Y30797500D01*
X29160610D01*
X29276200Y30681920D01*
X29452460Y30505660D01*
X29744680D01*
X29764580Y30485890D01*
G01X30019470Y30232780D02*
X30020090Y30233400D01*
X30020100Y30254960D01*
X29916170Y30358890D01*
X29394610D01*
X29273500Y30480000D01*
X27559000D01*
X27557770Y30478770D01*
X27543790D01*
X27508200Y30443180D01*
G01X29781430Y25659920D02*
Y25713670D01*
X28571100Y26924000D01*
X28308300D01*
X27952700Y27279600D01*
G01D02*
Y27266900D01*
X27927300Y27241500D01*
G01X28083530Y27296130D02*
X28100060Y27279600D01*
X28141780D01*
X28383560Y27037820D01*
X28405340D01*
X28407400Y27035760D01*
X28679140D01*
X29780540Y25934360D01*
Y25913920D01*
G01X28206700Y28549600D02*
X28295600D01*
X28460700Y28384500D01*
X29135510D01*
X29774330Y27745680D01*
Y27691910D01*
G01X28270200Y28486100D02*
X28409900Y28346400D01*
X29121610D01*
X29678950Y27789060D01*
Y27611770D01*
X29744420Y27546300D01*
X29921710D01*
X30029220Y27438790D01*
G01X28155900Y28422600D02*
X28257500D01*
X28371800Y28308300D01*
X29095700D01*
X29651010Y27752990D01*
Y27575200D01*
X29775220Y27450990D01*
Y27437910D01*
G01X28295600Y29057600D02*
X28345920D01*
X28346570Y29058250D01*
X28383850D01*
X28422600Y29019500D01*
X29712300D01*
X29769900Y28961900D01*
G01X30026560Y28200790D02*
X29900450Y28326900D01*
X29585100D01*
X29362400Y28549600D01*
X28536900D01*
X28277100Y28809400D01*
X28147760D01*
X28140520Y28802160D01*
X28120680D01*
G01X29772560Y28199900D02*
X29650020D01*
X29335880Y28514040D01*
X28534360D01*
X28526740Y28521660D01*
X28525320D01*
X28287900Y28759080D01*
X28180260D01*
X28174740Y28753560D01*
G01X28143200Y29000930D02*
X28150630Y28993500D01*
X28174390D01*
X28200390Y29019500D01*
X28258920D01*
X28484980Y28793440D01*
X29504170D01*
X29552430Y28841700D01*
X29939800D01*
X29994000Y28787500D01*
Y28739570D01*
X30024780Y28708790D01*
G01X30027440Y27946790D02*
X29901330Y28072900D01*
X29737500D01*
X29324300Y28486100D01*
X28512920D01*
X28295780Y28703240D01*
X28119710D01*
X28117780Y28701310D01*
G01X28195770Y28859720D02*
X28213790Y28841700D01*
X28295600D01*
X28441650Y28695650D01*
X29559250D01*
X29771670Y28483230D01*
Y28453900D01*
G01X28212410Y28960360D02*
X28278540D01*
X28473400Y28765500D01*
X29573120D01*
X29630720Y28707900D01*
X29770790D01*
G01X30025670Y28454790D02*
X29899560Y28580900D01*
X29718200D01*
X29571700Y28727400D01*
X28460690D01*
X28287900Y28900190D01*
X28266340D01*
X28259970Y28893820D01*
G01X29773450Y27945910D02*
X29313750Y28448000D01*
X28511500D01*
X28307780Y28651720D01*
X28188960D01*
X28188900Y28651780D01*
X28172840D01*
G01X30028330Y27692790D02*
X29902210Y27818910D01*
X29740620D01*
X29139470Y28420060D01*
X28475940D01*
X28294840Y28601160D01*
X28189720D01*
X28189440Y28601440D01*
X28117090D01*
X28116320Y28600670D01*
G01X30023900Y28962790D02*
Y28998920D01*
X29965220Y29057600D01*
X28435300D01*
X28384330Y29108570D01*
X28228810D01*
X28228640Y29108400D01*
X28194000D01*
G01X28356560Y26951940D02*
X28582680D01*
X29747700Y25786920D01*
X29909310D01*
X30035420Y25660810D01*
G01X28603560Y27562160D02*
X28756740D01*
X29769990Y26548910D01*
X29906650D01*
X30032760Y26422800D01*
G01X29778770Y26421910D02*
X28730580Y27470100D01*
X28613100D01*
G01X28384500Y26987500D02*
Y26979880D01*
X28356560Y26951940D01*
G01X28575000Y28003020D02*
X28587220Y27990800D01*
X29062470D01*
X29773670Y27279600D01*
X29935300D01*
X30030100Y27184800D01*
G01X29776990Y26929910D02*
Y26970160D01*
X28946850Y27800300D01*
X28549600D01*
G01X28978880Y27581880D02*
X28912860Y27647900D01*
X28613100D01*
G01X30031880Y26676800D02*
X29937080Y26771600D01*
X29763000D01*
X29046960Y27487640D01*
Y27553320D01*
X28888680Y27711600D01*
X28638300D01*
X28625800Y27724100D01*
G01X29776110Y27183910D02*
Y27237640D01*
X29061050Y27952700D01*
X28536900D01*
X28498800Y27990800D01*
G01X28536900Y27901900D02*
X28898280D01*
X29743270Y27056910D01*
X29904880D01*
X30030990Y26930800D01*
G01X28664050Y29319120D02*
Y29235250D01*
X28727400Y29171900D01*
X29565160D01*
X29736160Y29342900D01*
X29902600D01*
X30023010Y29222490D01*
Y29216780D01*
G01X28805120Y29306010D02*
X28824930Y29286200D01*
X29424600D01*
X29735300Y29596900D01*
X29896000D01*
X30022120Y29470780D01*
G01X28590220Y29301420D02*
Y29234480D01*
X28690900Y29133800D01*
X29664660D01*
X29752580Y29221720D01*
X29763190D01*
X29769010Y29215900D01*
G01X28735040Y29334750D02*
Y29265850D01*
X28765490Y29235400D01*
X29514800D01*
X29749300Y29469900D01*
X29768130D01*
G01X28679050Y29449920D02*
X28679610D01*
X28680460Y29449070D01*
X28709270D01*
X28795940Y29362400D01*
X29210000D01*
X29571490Y29723890D01*
X29767240D01*
G01X28816300Y29514800D02*
X29044900D01*
X29514800Y29984700D01*
X29759540D01*
X29766350Y29977890D01*
G01X28740100Y29489400D02*
X28829000Y29400500D01*
X29057600D01*
X29476700Y29819600D01*
X29926420D01*
X30021240Y29724780D01*
G01X29777880Y26675910D02*
Y26717200D01*
X29019020Y27476060D01*
Y27541740D01*
X28978880Y27581880D01*
G01X28943300Y27533600D02*
Y27546300D01*
X28978880Y27581880D01*
G01X29779650Y26167920D02*
X29820030Y26161570D01*
G01X29629100Y28511500D02*
X29527500D01*
X29489400Y28549600D01*
G01X29764580Y30485890D02*
X29750540Y30474790D01*
G01X30021240Y29724780D02*
X30022800Y29723220D01*
G54D19*
X25240990Y23556140D03*
X25836990Y23558220D03*
X26333190Y23568840D03*
X26929190Y23570920D03*
G54D29*
G01X24514900Y24765300D02*
Y24917700D01*
G01Y24600200D02*
Y24765300D01*
G01X26466090Y23168380D02*
X26433710Y23168490D01*
X26314890Y23050500D01*
X25851810D01*
X25508910Y23393400D01*
X25095200D01*
X25006300Y23482300D01*
Y24358600D01*
X24904700Y24460200D01*
X24549100D01*
X24513170Y24496130D01*
Y24598470D01*
X24514900Y24600200D01*
G01X24633730Y25666270D02*
X24447500Y25480040D01*
Y25171400D01*
X24514900Y25104000D01*
Y24917700D01*
G01X25539700Y23139400D02*
X25378210D01*
X25349220Y23168390D01*
G01X25783480Y23810020D02*
Y23848120D01*
X25603200Y24028400D01*
G01X25857200Y30010100D02*
X25793700D01*
X25665370Y30138430D01*
Y30200600D01*
G01Y30250070D02*
Y30200600D01*
G01X26238200Y30099000D02*
X26225500Y30086300D01*
X25779670D01*
X25665370Y30200600D01*
G01X26847800Y23901400D02*
X25971500D01*
X25844500Y24028400D01*
G01X25793700Y25349200D02*
X26111200D01*
X26263600Y25501600D01*
G01X26529740Y26962100D02*
X26276300D01*
X26098500Y26784300D01*
G01D02*
X26022300Y26708100D01*
G01D02*
X25793700Y26479500D01*
Y26441400D01*
G01X26022300Y26708100D02*
X25946100D01*
X25895300Y26758900D01*
G01X27482800Y30530800D02*
X27330400Y30378400D01*
Y30353000D01*
X27279600Y30302200D01*
X27127200D01*
X27012900Y30187900D01*
X26822400D01*
X26797000Y30213300D01*
X26352500D01*
X26238200Y30099000D01*
G01D02*
Y29870400D01*
X26250900Y29857700D01*
G01X26796230Y23168380D02*
X26466090D01*
G01X28460700Y29159200D02*
X28451810Y29168090D01*
X28230620D01*
X28201410Y29197300D01*
X27940000D01*
X27635200Y28892500D01*
G01X28422600Y27419300D02*
Y27622500D01*
X28155900Y27889200D01*
G01X27927300Y29400500D02*
Y29997400D01*
X27978100Y30048200D01*
G01X28041600Y30314900D02*
X28748200D01*
X28786300Y30353000D01*
X28854400D01*
G01X29235400Y29997400D02*
X28771060D01*
G01X29436430Y30096830D02*
X29400500Y30060900D01*
G01X29514800Y23622000D02*
X29591000D01*
X29984700Y24015700D01*
M02*
