G04 ================== begin FILE IDENTIFICATION RECORD ==================*
G04 Layout Name:  D:/project/pcb/stm32_h750_v1/pcb2/AutoSave1.brd*
G04 Film Name:    Drill_Legend*
G04 File Format:  Gerber RS274X*
G04 File Origin:  Cadence Allegro 17.2-P019*
G04 Origin Date:  Thu Feb 11 11:46:33 2021*
G04 *
G04 Layer:  MANUFACTURING/NCLEGEND-1-4*
G04 Layer:  BOARD GEOMETRY/DIMENSION*
G04 Layer:  MANUFACTURING/NCDRILL_FIGURE*
G04 Layer:  MANUFACTURING/NCDRILL_LEGEND*
G04 *
G04 Offset:    (0.0000 0.0000)*
G04 Mirror:    No*
G04 Mode:      Positive*
G04 Rotation:  0*
G04 FullContactRelief:  No*
G04 UndefLineWidth:     0.1524*
G04 ================== end FILE IDENTIFICATION RECORD ====================*
%FSLAX55Y55*MOMM*%
%IR0*IPPOS*OFA0.00000B0.00000*MIA0B0*SFA1.00000B1.00000*%
%AMMACRO10*
1,1,.1524,.4496,0.0*
20,1,.1524,.4496,0.0,.2248,.389365,0.0*
1,1,.1524,.2248,.389365*
20,1,.1524,.2248,.389365,-.2248,.389365,0.0*
1,1,.1524,-.2248,.389365*
20,1,.1524,-.2248,.389365,-.4496,0.0,0.0*
1,1,.1524,-.4496,0.0*
20,1,.1524,-.4496,0.0,-.2248,-.389365,0.0*
1,1,.1524,-.2248,-.389365*
20,1,.1524,-.2248,-.389365,.2248,-.389365,0.0*
1,1,.1524,.2248,-.389365*
20,1,.1524,.2248,-.389365,.4496,0.0,0.0*
1,1,.1524,.4496,0.0*
%
%ADD10MACRO10*%
%AMMACRO11*
1,1,.1524,.15,0.0*
20,1,.1524,.15,0.0,-.15,0.0,0.0*
1,1,.1524,-.15,0.0*
1,1,.1524,0.0,.15*
20,1,.1524,0.0,.15,0.0,-.15,0.0*
1,1,.1524,0.0,-.15*
%
%ADD11MACRO11*%
%AMMACRO14*
1,1,.1524,.3505,.3505*
20,1,.1524,.3505,.3505,.3505,-.3505,0.0*
1,1,.1524,.3505,-.3505*
20,1,.1524,.3505,-.3505,-.3505,-.3505,0.0*
1,1,.1524,-.3505,-.3505*
20,1,.1524,-.3505,-.3505,-.3505,.3505,0.0*
1,1,.1524,-.3505,.3505*
20,1,.1524,-.3505,.3505,.3505,.3505,0.0*
1,1,.1524,.3505,.3505*
%
%ADD14MACRO14*%
%AMMACRO13*
1,1,.1524,-.2997,-.6008*
20,1,.1524,-.2997,-.6008,-.2997,.6008,0.0*
1,1,.1524,-.2997,.6008*
20,1,.1524,-.2997,.6008,-.295147,.652842,0.0*
1,1,.1524,-.295147,.652842*
20,1,.1524,-.295147,.652842,-.281626,.703303,0.0*
1,1,.1524,-.281626,.703303*
20,1,.1524,-.281626,.703303,-.259548,.75065,0.0*
1,1,.1524,-.259548,.75065*
20,1,.1524,-.259548,.75065,-.229584,.793443,0.0*
1,1,.1524,-.229584,.793443*
20,1,.1524,-.229584,.793443,-.192643,.830384,0.0*
1,1,.1524,-.192643,.830384*
20,1,.1524,-.192643,.830384,-.14985,.860348,0.0*
1,1,.1524,-.14985,.860348*
20,1,.1524,-.14985,.860348,-.102503,.882426,0.0*
1,1,.1524,-.102503,.882426*
20,1,.1524,-.102503,.882426,-.052042,.895947,0.0*
1,1,.1524,-.052042,.895947*
20,1,.1524,-.052042,.895947,0.0,.9005,0.0*
1,1,.1524,0.0,.9005*
20,1,.1524,0.0,.9005,.052042,.895947,0.0*
1,1,.1524,.052042,.895947*
20,1,.1524,.052042,.895947,.102503,.882426,0.0*
1,1,.1524,.102503,.882426*
20,1,.1524,.102503,.882426,.14985,.860348,0.0*
1,1,.1524,.14985,.860348*
20,1,.1524,.14985,.860348,.192643,.830384,0.0*
1,1,.1524,.192643,.830384*
20,1,.1524,.192643,.830384,.229584,.793443,0.0*
1,1,.1524,.229584,.793443*
20,1,.1524,.229584,.793443,.259548,.75065,0.0*
1,1,.1524,.259548,.75065*
20,1,.1524,.259548,.75065,.281626,.703303,0.0*
1,1,.1524,.281626,.703303*
20,1,.1524,.281626,.703303,.295147,.652842,0.0*
1,1,.1524,.295147,.652842*
20,1,.1524,.295147,.652842,.2997,.6008,0.0*
1,1,.1524,.2997,.6008*
20,1,.1524,.2997,.6008,.2997,-.6008,0.0*
1,1,.1524,.2997,-.6008*
20,1,.1524,.2997,-.6008,.295147,-.652842,0.0*
1,1,.1524,.295147,-.652842*
20,1,.1524,.295147,-.652842,.281626,-.703303,0.0*
1,1,.1524,.281626,-.703303*
20,1,.1524,.281626,-.703303,.259548,-.75065,0.0*
1,1,.1524,.259548,-.75065*
20,1,.1524,.259548,-.75065,.229584,-.793443,0.0*
1,1,.1524,.229584,-.793443*
20,1,.1524,.229584,-.793443,.192643,-.830384,0.0*
1,1,.1524,.192643,-.830384*
20,1,.1524,.192643,-.830384,.14985,-.860348,0.0*
1,1,.1524,.14985,-.860348*
20,1,.1524,.14985,-.860348,.102503,-.882426,0.0*
1,1,.1524,.102503,-.882426*
20,1,.1524,.102503,-.882426,.052042,-.895947,0.0*
1,1,.1524,.052042,-.895947*
20,1,.1524,.052042,-.895947,0.0,-.9005,0.0*
1,1,.1524,0.0,-.9005*
20,1,.1524,0.0,-.9005,-.052042,-.895947,0.0*
1,1,.1524,-.052042,-.895947*
20,1,.1524,-.052042,-.895947,-.102503,-.882426,0.0*
1,1,.1524,-.102503,-.882426*
20,1,.1524,-.102503,-.882426,-.14985,-.860348,0.0*
1,1,.1524,-.14985,-.860348*
20,1,.1524,-.14985,-.860348,-.192643,-.830384,0.0*
1,1,.1524,-.192643,-.830384*
20,1,.1524,-.192643,-.830384,-.229584,-.793443,0.0*
1,1,.1524,-.229584,-.793443*
20,1,.1524,-.229584,-.793443,-.259548,-.75065,0.0*
1,1,.1524,-.259548,-.75065*
20,1,.1524,-.259548,-.75065,-.281626,-.703303,0.0*
1,1,.1524,-.281626,-.703303*
20,1,.1524,-.281626,-.703303,-.295147,-.652842,0.0*
1,1,.1524,-.295147,-.652842*
20,1,.1524,-.295147,-.652842,-.2997,-.6008,0.0*
1,1,.1524,-.2997,-.6008*
1,1,.1524,-.1499,-.1498*
20,1,.1524,-.1499,-.1498,-.1898,-.1448,0.0*
1,1,.1524,-.1898,-.1448*
20,1,.1524,-.1898,-.1448,-.2248,-.1248,0.0*
1,1,.1524,-.2248,-.1248*
20,1,.1524,-.2248,-.1248,-.2547,-.0949,0.0*
1,1,.1524,-.2547,-.0949*
20,1,.1524,-.2547,-.0949,-.2747,-.0599,0.0*
1,1,.1524,-.2747,-.0599*
20,1,.1524,-.2747,-.0599,-.2847,-.0199,0.0*
1,1,.1524,-.2847,-.0199*
20,1,.1524,-.2847,-.0199,-.2847,.02,0.0*
1,1,.1524,-.2847,.02*
20,1,.1524,-.2847,.02,-.2747,.06,0.0*
1,1,.1524,-.2747,.06*
20,1,.1524,-.2747,.06,-.2547,.095,0.0*
1,1,.1524,-.2547,.095*
20,1,.1524,-.2547,.095,-.2248,.1249,0.0*
1,1,.1524,-.2248,.1249*
20,1,.1524,-.2248,.1249,-.1898,.1449,0.0*
1,1,.1524,-.1898,.1449*
20,1,.1524,-.1898,.1449,-.1499,.1499,0.0*
1,1,.1524,-.1499,.1499*
20,1,.1524,-.1499,.1499,-.1099,.1449,0.0*
1,1,.1524,-.1099,.1449*
20,1,.1524,-.1099,.1449,-.0749,.1249,0.0*
1,1,.1524,-.0749,.1249*
20,1,.1524,-.0749,.1249,-.045,.095,0.0*
1,1,.1524,-.045,.095*
20,1,.1524,-.045,.095,-.025,.06,0.0*
1,1,.1524,-.025,.06*
20,1,.1524,-.025,.06,-.015,.02,0.0*
1,1,.1524,-.015,.02*
20,1,.1524,-.015,.02,-.015,-.0199,0.0*
1,1,.1524,-.015,-.0199*
20,1,.1524,-.015,-.0199,-.025,-.0599,0.0*
1,1,.1524,-.025,-.0599*
20,1,.1524,-.025,-.0599,-.045,-.0949,0.0*
1,1,.1524,-.045,-.0949*
20,1,.1524,-.045,-.0949,-.0749,-.1248,0.0*
1,1,.1524,-.0749,-.1248*
20,1,.1524,-.0749,-.1248,-.1099,-.1448,0.0*
1,1,.1524,-.1099,-.1448*
20,1,.1524,-.1099,-.1448,-.1499,-.1498,0.0*
1,1,.1524,-.1499,-.1498*
1,1,.1524,.1899,.01*
20,1,.1524,.1899,.01,.2099,.025,0.0*
1,1,.1524,.2099,.025*
20,1,.1524,.2099,.025,.2249,.05,0.0*
1,1,.1524,.2249,.05*
20,1,.1524,.2249,.05,.2349,.085,0.0*
1,1,.1524,.2349,.085*
20,1,.1524,.2349,.085,.2249,.1149,0.0*
1,1,.1524,.2249,.1149*
20,1,.1524,.2249,.1149,.2049,.1349,0.0*
1,1,.1524,.2049,.1349*
20,1,.1524,.2049,.1349,.1699,.1499,0.0*
1,1,.1524,.1699,.1499*
20,1,.1524,.1699,.1499,.0351,.1499,0.0*
1,1,.1524,.0351,.1499*
20,1,.1524,.0351,.1499,.0351,-.1498,0.0*
1,1,.1524,.0351,-.1498*
20,1,.1524,.0351,-.1498,.1999,-.1498,0.0*
1,1,.1524,.1999,-.1498*
20,1,.1524,.1999,-.1498,.2349,-.1298,0.0*
1,1,.1524,.2349,-.1298*
20,1,.1524,.2349,-.1298,.2548,-.0999,0.0*
1,1,.1524,.2548,-.0999*
20,1,.1524,.2548,-.0999,.2648,-.0649,0.0*
1,1,.1524,.2648,-.0649*
20,1,.1524,.2648,-.0649,.2548,-.0299,0.0*
1,1,.1524,.2548,-.0299*
20,1,.1524,.2548,-.0299,.2249,0.0,0.0*
1,1,.1524,.2249,0.0*
20,1,.1524,.2249,0.0,.1899,.01,0.0*
1,1,.1524,.1899,.01*
20,1,.1524,.1899,.01,.0351,.01,0.0*
1,1,.1524,.0351,.01*
%
%ADD13MACRO13*%
%AMMACRO15*
1,1,.1524,.2483,-.59945*
20,1,.1524,.2483,-.59945,-.2483,-.59945,0.0*
1,1,.1524,-.2483,-.59945*
20,1,.1524,-.2483,-.59945,-.59945,-.2483,0.0*
1,1,.1524,-.59945,-.2483*
20,1,.1524,-.59945,-.2483,-.59945,.2483,0.0*
1,1,.1524,-.59945,.2483*
20,1,.1524,-.59945,.2483,-.2483,.59945,0.0*
1,1,.1524,-.2483,.59945*
20,1,.1524,-.2483,.59945,.2483,.59945,0.0*
1,1,.1524,.2483,.59945*
20,1,.1524,.2483,.59945,.59945,.2483,0.0*
1,1,.1524,.59945,.2483*
20,1,.1524,.59945,.2483,.59945,-.2483,0.0*
1,1,.1524,.59945,-.2483*
20,1,.1524,.59945,-.2483,.2483,-.59945,0.0*
1,1,.1524,.2483,-.59945*
%
%ADD15MACRO15*%
%AMMACRO12*
1,1,.1524,-.2997,-.2998*
20,1,.1524,-.2997,-.2998,-.2997,.2998,0.0*
1,1,.1524,-.2997,.2998*
20,1,.1524,-.2997,.2998,-.295147,.351842,0.0*
1,1,.1524,-.295147,.351842*
20,1,.1524,-.295147,.351842,-.281626,.402303,0.0*
1,1,.1524,-.281626,.402303*
20,1,.1524,-.281626,.402303,-.259548,.44965,0.0*
1,1,.1524,-.259548,.44965*
20,1,.1524,-.259548,.44965,-.229584,.492443,0.0*
1,1,.1524,-.229584,.492443*
20,1,.1524,-.229584,.492443,-.192643,.529384,0.0*
1,1,.1524,-.192643,.529384*
20,1,.1524,-.192643,.529384,-.14985,.559348,0.0*
1,1,.1524,-.14985,.559348*
20,1,.1524,-.14985,.559348,-.102503,.581426,0.0*
1,1,.1524,-.102503,.581426*
20,1,.1524,-.102503,.581426,-.052042,.594947,0.0*
1,1,.1524,-.052042,.594947*
20,1,.1524,-.052042,.594947,0.0,.5995,0.0*
1,1,.1524,0.0,.5995*
20,1,.1524,0.0,.5995,.052042,.594947,0.0*
1,1,.1524,.052042,.594947*
20,1,.1524,.052042,.594947,.102503,.581426,0.0*
1,1,.1524,.102503,.581426*
20,1,.1524,.102503,.581426,.14985,.559348,0.0*
1,1,.1524,.14985,.559348*
20,1,.1524,.14985,.559348,.192643,.529384,0.0*
1,1,.1524,.192643,.529384*
20,1,.1524,.192643,.529384,.229584,.492443,0.0*
1,1,.1524,.229584,.492443*
20,1,.1524,.229584,.492443,.259548,.44965,0.0*
1,1,.1524,.259548,.44965*
20,1,.1524,.259548,.44965,.281626,.402303,0.0*
1,1,.1524,.281626,.402303*
20,1,.1524,.281626,.402303,.295147,.351842,0.0*
1,1,.1524,.295147,.351842*
20,1,.1524,.295147,.351842,.2997,.2998,0.0*
1,1,.1524,.2997,.2998*
20,1,.1524,.2997,.2998,.2997,-.2998,0.0*
1,1,.1524,.2997,-.2998*
20,1,.1524,.2997,-.2998,.295147,-.351842,0.0*
1,1,.1524,.295147,-.351842*
20,1,.1524,.295147,-.351842,.281626,-.402303,0.0*
1,1,.1524,.281626,-.402303*
20,1,.1524,.281626,-.402303,.259548,-.44965,0.0*
1,1,.1524,.259548,-.44965*
20,1,.1524,.259548,-.44965,.229584,-.492443,0.0*
1,1,.1524,.229584,-.492443*
20,1,.1524,.229584,-.492443,.192643,-.529384,0.0*
1,1,.1524,.192643,-.529384*
20,1,.1524,.192643,-.529384,.14985,-.559348,0.0*
1,1,.1524,.14985,-.559348*
20,1,.1524,.14985,-.559348,.102503,-.581426,0.0*
1,1,.1524,.102503,-.581426*
20,1,.1524,.102503,-.581426,.052042,-.594947,0.0*
1,1,.1524,.052042,-.594947*
20,1,.1524,.052042,-.594947,0.0,-.5995,0.0*
1,1,.1524,0.0,-.5995*
20,1,.1524,0.0,-.5995,-.052042,-.594947,0.0*
1,1,.1524,-.052042,-.594947*
20,1,.1524,-.052042,-.594947,-.102503,-.581426,0.0*
1,1,.1524,-.102503,-.581426*
20,1,.1524,-.102503,-.581426,-.14985,-.559348,0.0*
1,1,.1524,-.14985,-.559348*
20,1,.1524,-.14985,-.559348,-.192643,-.529384,0.0*
1,1,.1524,-.192643,-.529384*
20,1,.1524,-.192643,-.529384,-.229584,-.492443,0.0*
1,1,.1524,-.229584,-.492443*
20,1,.1524,-.229584,-.492443,-.259548,-.44965,0.0*
1,1,.1524,-.259548,-.44965*
20,1,.1524,-.259548,-.44965,-.281626,-.402303,0.0*
1,1,.1524,-.281626,-.402303*
20,1,.1524,-.281626,-.402303,-.295147,-.351842,0.0*
1,1,.1524,-.295147,-.351842*
20,1,.1524,-.295147,-.351842,-.2997,-.2998,0.0*
1,1,.1524,-.2997,-.2998*
1,1,.1524,-.1499,-.1498*
20,1,.1524,-.1499,-.1498,-.1898,-.1448,0.0*
1,1,.1524,-.1898,-.1448*
20,1,.1524,-.1898,-.1448,-.2248,-.1248,0.0*
1,1,.1524,-.2248,-.1248*
20,1,.1524,-.2248,-.1248,-.2547,-.0949,0.0*
1,1,.1524,-.2547,-.0949*
20,1,.1524,-.2547,-.0949,-.2747,-.0599,0.0*
1,1,.1524,-.2747,-.0599*
20,1,.1524,-.2747,-.0599,-.2847,-.0199,0.0*
1,1,.1524,-.2847,-.0199*
20,1,.1524,-.2847,-.0199,-.2847,.02,0.0*
1,1,.1524,-.2847,.02*
20,1,.1524,-.2847,.02,-.2747,.06,0.0*
1,1,.1524,-.2747,.06*
20,1,.1524,-.2747,.06,-.2547,.095,0.0*
1,1,.1524,-.2547,.095*
20,1,.1524,-.2547,.095,-.2248,.1249,0.0*
1,1,.1524,-.2248,.1249*
20,1,.1524,-.2248,.1249,-.1898,.1449,0.0*
1,1,.1524,-.1898,.1449*
20,1,.1524,-.1898,.1449,-.1499,.1499,0.0*
1,1,.1524,-.1499,.1499*
20,1,.1524,-.1499,.1499,-.1099,.1449,0.0*
1,1,.1524,-.1099,.1449*
20,1,.1524,-.1099,.1449,-.0749,.1249,0.0*
1,1,.1524,-.0749,.1249*
20,1,.1524,-.0749,.1249,-.045,.095,0.0*
1,1,.1524,-.045,.095*
20,1,.1524,-.045,.095,-.025,.06,0.0*
1,1,.1524,-.025,.06*
20,1,.1524,-.025,.06,-.015,.02,0.0*
1,1,.1524,-.015,.02*
20,1,.1524,-.015,.02,-.015,-.0199,0.0*
1,1,.1524,-.015,-.0199*
20,1,.1524,-.015,-.0199,-.025,-.0599,0.0*
1,1,.1524,-.025,-.0599*
20,1,.1524,-.025,-.0599,-.045,-.0949,0.0*
1,1,.1524,-.045,-.0949*
20,1,.1524,-.045,-.0949,-.0749,-.1248,0.0*
1,1,.1524,-.0749,-.1248*
20,1,.1524,-.0749,-.1248,-.1099,-.1448,0.0*
1,1,.1524,-.1099,-.1448*
20,1,.1524,-.1099,-.1448,-.1499,-.1498,0.0*
1,1,.1524,-.1499,-.1498*
1,1,.1524,.0251,-.1498*
20,1,.1524,.0251,-.1498,.1499,.1499,0.0*
1,1,.1524,.1499,.1499*
20,1,.1524,.1499,.1499,.2748,-.1498,0.0*
1,1,.1524,.2748,-.1498*
1,1,.1524,.2299,-.0449*
20,1,.1524,.2299,-.0449,.07,-.0449,0.0*
1,1,.1524,.07,-.0449*
%
%ADD12MACRO12*%
%AMMACRO16*
1,1,.1524,0.0,.5004*
20,1,.1524,0.0,.5004,-.433359,.2502,0.0*
1,1,.1524,-.433359,.2502*
20,1,.1524,-.433359,.2502,-.433359,-.2502,0.0*
1,1,.1524,-.433359,-.2502*
20,1,.1524,-.433359,-.2502,0.0,-.5004,0.0*
1,1,.1524,0.0,-.5004*
20,1,.1524,0.0,-.5004,.433359,-.2502,0.0*
1,1,.1524,.433359,-.2502*
20,1,.1524,.433359,-.2502,.433359,.2502,0.0*
1,1,.1524,.433359,.2502*
20,1,.1524,.433359,.2502,0.0,.5004,0.0*
1,1,.1524,0.0,.5004*
%
%ADD16MACRO16*%
%LPD*%
G75*
G54D10*
X24612600Y25298400D03*
X24632840Y25920270D03*
X24633730Y25666270D03*
X24631070Y26428260D03*
X24631950Y26174270D03*
X24629290Y26936260D03*
X24630180Y26682260D03*
X24627520Y27444260D03*
X24628410Y27190260D03*
X24625750Y27952260D03*
X24626630Y27698260D03*
X24623970Y28460250D03*
X24624860Y28206250D03*
X24622200Y28968250D03*
X24623090Y28714250D03*
X24621310Y29222250D03*
X24620430Y29476250D03*
X24618650Y29984240D03*
X24619540Y29730240D03*
X24616880Y30492240D03*
X24617770Y30238240D03*
X24866600Y25298400D03*
X24886840Y25921150D03*
X24887720Y25667160D03*
X24885060Y26429150D03*
X24885950Y26175150D03*
X24883290Y26937150D03*
X24884180Y26683150D03*
X24881520Y27445140D03*
X24882400Y27191150D03*
X24879740Y27953140D03*
X24880630Y27699140D03*
X24877970Y28461140D03*
X24878860Y28207140D03*
X24876200Y28969140D03*
X24877080Y28715140D03*
X24874420Y29477130D03*
X24875310Y29223130D03*
X24872650Y29985130D03*
X24873540Y29731130D03*
X24870880Y30493130D03*
X24871770Y30239130D03*
X29780540Y25913920D03*
X29781430Y25659920D03*
X29778770Y26421910D03*
X29779650Y26167920D03*
X29776990Y26929910D03*
X29777880Y26675910D03*
X29775220Y27437910D03*
X29776110Y27183910D03*
X29773450Y27945910D03*
X29774330Y27691910D03*
X29771670Y28453900D03*
X29772560Y28199900D03*
X29769900Y28961900D03*
X29770790Y28707900D03*
X29769010Y29215900D03*
X29768130Y29469900D03*
X29766350Y29977890D03*
X29767240Y29723890D03*
X29764580Y30485890D03*
X29765470Y30231890D03*
X30034540Y25914800D03*
X30035420Y25660810D03*
X30032760Y26422800D03*
X30033650Y26168800D03*
X30030990Y26930800D03*
X30031880Y26676800D03*
X30029220Y27438790D03*
X30030100Y27184800D03*
X30027440Y27946790D03*
X30028330Y27692790D03*
X30025670Y28454790D03*
X30026560Y28200790D03*
X30023900Y28962790D03*
X30024780Y28708790D03*
X30022120Y29470780D03*
X30023010Y29216780D03*
X30020350Y29978780D03*
X30021240Y29724780D03*
X30018580Y30486780D03*
X30019470Y30232780D03*
G54D11*
X24523700Y30073600D03*
X25095200Y24612600D03*
X25059590Y26136830D03*
X24980900Y27762200D03*
X25147560Y27905720D03*
X25120120Y27838400D03*
X25044400Y29476700D03*
X24726900Y29400500D03*
X24765000Y29552900D03*
X24993600Y29984700D03*
X25082500Y29756100D03*
X24745340Y30434940D03*
X25159330Y30314270D03*
X25539700Y23139400D03*
X25603200Y24028400D03*
X25692100Y24714200D03*
X25273000Y25781000D03*
X25552400Y25527000D03*
X25400000Y26339800D03*
X25666700Y27266900D03*
X25623520Y27017980D03*
X25689580Y27180520D03*
X25238120Y27698560D03*
X25183870Y27746960D03*
X25214360Y27619700D03*
X25596340Y27579040D03*
X25628600Y27508200D03*
X25190280Y27819370D03*
X25234900Y28105100D03*
X25224020Y28194470D03*
X25281450Y28239040D03*
X25616380Y28765500D03*
X25628600Y29756100D03*
X25527000Y30060900D03*
X25323800Y29921200D03*
X25665370Y30250070D03*
X25387300Y30340300D03*
X25444450Y30664150D03*
X25209500Y30632400D03*
X25323800Y30657800D03*
X25384700Y30858380D03*
X25247600Y30899100D03*
X25488900D03*
X25539700Y30683200D03*
X25692100Y30886400D03*
X25590500Y30810200D03*
X25311100Y31534100D03*
X25407460Y31452660D03*
X25565100Y31356300D03*
X25616500Y31292800D03*
X25844500Y24028400D03*
X25783480Y23810020D03*
X25730200Y24511000D03*
X25966600Y24490500D03*
X25730200Y24790400D03*
X25793700Y25349200D03*
X25742900Y24866600D03*
X25730200Y26657300D03*
X25793700Y26441400D03*
X26098500Y26784300D03*
X25895300Y26758900D03*
X25755600Y26936700D03*
X26026740Y27118940D03*
X25730200Y27038310D03*
X26003870Y27940000D03*
X25908000Y27889200D03*
X25857200Y27813000D03*
Y27740310D03*
X25869900Y28181300D03*
X25730200Y28194000D03*
X25742900Y28270200D03*
X25984200Y28460700D03*
X25819100Y28333700D03*
X25984200Y28714700D03*
X26035600Y28651680D03*
X26047700Y28765500D03*
X26035000Y28841700D03*
X26040590Y29001210D03*
X26035000Y28917900D03*
X26136600Y28638500D03*
X26047700Y29083000D03*
X26003240Y29356060D03*
X26035000Y29171900D03*
X26047700Y29260800D03*
X25857200Y30010100D03*
X26073100Y29743400D03*
X26162000Y29895800D03*
X26085800Y29832300D03*
X25920700Y30251400D03*
X25742900D03*
X26193740Y30664140D03*
X25901820Y30906350D03*
X25819100Y30708600D03*
X26060400Y30861000D03*
X25999920Y30901330D03*
X26154220Y30859440D03*
X26225500Y30873700D03*
X25926290Y31138880D03*
X25958800Y31203900D03*
X25946100Y30759400D03*
X26263600Y25501600D03*
X26529740Y26962100D03*
X26670000Y26873200D03*
X26770000Y27734480D03*
X26690220Y27763840D03*
X26605310Y27776090D03*
X26250900Y28067000D03*
X26619200Y28092400D03*
X26644600Y28740100D03*
X26758900Y28702000D03*
X26250900Y28601160D03*
X26631900Y28829000D03*
X26619200Y28956000D03*
X26314400Y28651200D03*
X26606500Y29578300D03*
X26758900Y29210000D03*
X26568410Y29248110D03*
X26517600Y29349700D03*
X26364690Y29757060D03*
X26250900Y29857700D03*
X26581100Y30035500D03*
X26619200Y29705300D03*
X26466800Y30010100D03*
X26327100Y29946600D03*
X26707500Y30060300D03*
X26758900Y30111700D03*
X26301700Y30619700D03*
X26758900Y30937200D03*
X26289000Y30784920D03*
X26454100Y30886400D03*
X26408870Y31165820D03*
X26292990Y31153110D03*
X26352500Y31330900D03*
X26847800Y23901400D03*
X27258030Y24396220D03*
X27089100Y26276300D03*
X26847800Y26949400D03*
X27279600Y26962100D03*
X27203400Y26974800D03*
X26805210Y28024410D03*
X26860500Y27736800D03*
X27178000Y28067000D03*
X27127200Y28524200D03*
X27165300Y28397200D03*
X26797000Y28460700D03*
X26822400Y28378150D03*
X26784300Y28295600D03*
X27038300Y28181300D03*
X26911300Y28067000D03*
X26797000Y28117800D03*
X26974800Y28486100D03*
X26962190Y28206610D03*
X27063700Y28435300D03*
X26846050Y28778200D03*
X26848010Y28962940D03*
X26846050Y29035610D03*
X26936700Y28879800D03*
X27063700Y29552900D03*
X27228800Y29146500D03*
X27301490D03*
X26809660Y30048200D03*
X27114500Y29654500D03*
X26826570Y30412870D03*
X26876370Y30359910D03*
X27089100Y30530800D03*
X26949400Y30429200D03*
X27165300Y30543500D03*
X26847800Y30289500D03*
X27101800Y30454600D03*
X27020680Y30443460D03*
X27255300Y30529700D03*
X26835100Y31013400D03*
X27076400Y30822900D03*
X27101800Y31280100D03*
X27038300Y31216600D03*
X27329010Y24434320D03*
X27736800Y25781000D03*
X27622500Y26428700D03*
X27470100Y26962100D03*
X27368500D03*
X27724100Y27305000D03*
X27529920Y27729190D03*
X27355370Y27762630D03*
X27457400Y27724100D03*
X27749500Y27698700D03*
X27655350Y27729350D03*
X27736800Y28143200D03*
X27508200Y28168600D03*
X27330400Y28244800D03*
X27673300Y28194000D03*
X27305340Y28028560D03*
X27800300Y28206700D03*
X27686000Y28308300D03*
X27736800Y28549600D03*
X27635200Y28892500D03*
X27609800Y28778200D03*
X27800300Y29946600D03*
X27487400Y29820440D03*
X27724100Y29933900D03*
X27481050Y29892860D03*
X27499100Y29665450D03*
X27571690Y29654480D03*
X27508200Y30022800D03*
X27503200Y29738400D03*
X27368500Y30048200D03*
X27482800Y30530800D03*
X27520900Y30187900D03*
X27317830Y30492620D03*
X27508200Y30443180D03*
X27635200Y31165800D03*
X28067000Y25387300D03*
X27927300Y27241500D03*
X28083530Y27296130D03*
X28155900Y27889200D03*
X28206700Y28549600D03*
X28270200Y28486100D03*
X28155900Y28422600D03*
X28295600Y29057600D03*
X28120680Y28802160D03*
X28174740Y28753560D03*
X28143200Y29000930D03*
X28117780Y28701310D03*
X28195770Y28859720D03*
X28212410Y28960360D03*
X28259970Y28893820D03*
X28172840Y28651780D03*
X28116320Y28600670D03*
X27927300Y29400500D03*
X28194000Y29108400D03*
X27978100Y30048200D03*
X28041600Y30314900D03*
X28168600Y30746700D03*
X28028900Y30886400D03*
X28765500Y25577800D03*
X28778200Y25666700D03*
X28752800Y25463500D03*
X28892500Y26212800D03*
X28422600Y27419300D03*
X28613100Y27470100D03*
X28384500Y26987500D03*
X28575000Y28003020D03*
X28549600Y27800300D03*
X28603560Y27562160D03*
X28613100Y27647900D03*
X28625800Y27724100D03*
X28498800Y27990800D03*
X28536900Y27901900D03*
X28651200Y28041600D03*
X28600400Y28155900D03*
X28804160Y28955440D03*
X28550160D03*
X28460700Y29159200D03*
X28664050Y29319120D03*
X28805120Y29306010D03*
X28590220Y29301420D03*
X28735040Y29334750D03*
X28679050Y29449920D03*
X28816300Y29514800D03*
X28740100Y29489400D03*
X28486030Y30010100D03*
X28460700Y29832300D03*
X28663900Y30035500D03*
X28536900Y30530800D03*
X28854400Y30353000D03*
X29400500Y25069800D03*
X29108400Y25031700D03*
X28960000Y26185800D03*
X28943300Y27533600D03*
X29235400Y29997400D03*
X29400500Y30060900D03*
X29514800Y23622000D03*
X29476700Y23964900D03*
X29578300Y24650700D03*
X29489400Y28549600D03*
X29629100Y28511500D03*
X29895800Y30010100D03*
X29984700Y24015700D03*
X30124400Y24561800D03*
G54D12*
X25108250Y23190670D03*
X26200450Y23203370D03*
X25972250Y23193690D03*
X27064450Y23206390D03*
G54D13*
X25106790Y23608680D03*
X26198990Y23621380D03*
X25970790Y23611700D03*
X27062990Y23624400D03*
G54D14*
X25240990Y23556140D03*
X25836990Y23558220D03*
X26333190Y23568840D03*
X26929190Y23570920D03*
G54D15*
X27863800Y23266400D03*
Y23520400D03*
X28117800Y23266400D03*
X28371800D03*
X28117800Y23520400D03*
X28371800D03*
X28625800Y23266400D03*
X28879800D03*
Y23520400D03*
X28625800D03*
G54D16*
X28294960Y31201910D03*
X29094950Y31204700D03*
M02*
