G04 ================== begin FILE IDENTIFICATION RECORD ==================*
G04 Layout Name:  D:/project/pcb/stm32_h750_v1/pcb2/AutoSave1.brd*
G04 Film Name:    TOP*
G04 File Format:  Gerber RS274X*
G04 File Origin:  Cadence Allegro 17.2-P019*
G04 Origin Date:  Thu Feb 11 11:46:33 2021*
G04 *
G04 Layer:  ETCH/TOP*
G04 Layer:  PIN/TOP*
G04 Layer:  VIA CLASS/TOP*
G04 *
G04 Offset:    (0.0000 0.0000)*
G04 Mirror:    No*
G04 Mode:      Positive*
G04 Rotation:  0*
G04 FullContactRelief:  No*
G04 UndefLineWidth:     0.1524*
G04 ================== end FILE IDENTIFICATION RECORD ====================*
%FSLAX55Y55*MOMM*%
%IR0*IPPOS*OFA0.00000B0.00000*MIA0B0*SFA1.00000B1.00000*%
%AMMACRO21*
21,1,1.1989,1.3995,0.0,0.0,90.2*%
%ADD21MACRO21*%
%AMMACRO22*
21,1,1.5011,.3048,0.0,0.0,.2*%
%ADD22MACRO22*%
%ADD20C,.701*%
%AMMACRO41*
21,1,1.0999,.701,0.0,0.0,90.2*
1,1,.701,-.00192,.549947*
1,1,.701,.00192,-.549947*%
%ADD41MACRO41*%
%AMMACRO16*
21,1,.8001,.8001,0.0,0.0,.2*%
%ADD16MACRO16*%
%AMMACRO34*
21,1,.701,1.2497,0.0,0.0,.2*%
%ADD34MACRO34*%
%ADD23R,.8001X.8001*%
%ADD29R,.7493X1.5011*%
%ADD30R,.7493X1.5011*%
%AMMACRO27*
21,1,.701,1.2497,0.0,0.0,90.2*%
%ADD27MACRO27*%
%AMMACRO28*
21,1,.2997,1.3005,0.0,0.0,.2*%
%ADD28MACRO28*%
%AMMACRO24*
21,1,.4496,1.0008,0.0,0.0,90.2*%
%ADD24MACRO24*%
%AMMACRO19*
21,1,.2997,1.4503,0.0,0.0,.2*%
%ADD19MACRO19*%
%AMMACRO18*
21,1,.5994,1.4503,0.0,0.0,.2*%
%ADD18MACRO18*%
%ADD12C,.5999*%
%AMMACRO25*
21,1,.2997,1.2497,0.0,0.0,.2*%
%ADD25MACRO25*%
%ADD32O,1.7958X.2794*%
%ADD31O,.2794X1.7958*%
%AMMACRO17*
21,1,2.,2.4,0.0,0.0,.2*%
%ADD17MACRO17*%
%ADD11C,1.5011*%
%ADD40C,1.0008*%
%AMMACRO15*
21,1,1.0008,1.0972,0.0,0.0,.2*
1,1,1.0008,.001915,-.548597*
1,1,1.0008,-.001915,.548597*%
%ADD15MACRO15*%
%AMMACRO44*
21,1,2.159,1.651,0.0,0.0,90.2*
1,1,1.651,-.003768,1.079493*
1,1,1.651,.003768,-1.079493*%
%ADD44MACRO44*%
%ADD33R,1.3005X1.049*%
%AMMACRO13*
21,1,1.5011,1.5011,0.0,0.0,.2*%
%ADD13MACRO13*%
%AMMACRO45*
21,1,2.54,2.54,0.0,0.0,.2*%
%ADD45MACRO45*%
%AMMACRO42*
21,1,1.8009,1.3005,0.0,0.0,90.2*%
%ADD42MACRO42*%
%ADD10R,1.5011X1.5011*%
%AMMACRO14*
21,1,1.0008,.5969,0.0,0.0,.2*
1,1,1.0008,.001042,-.298448*
1,1,1.0008,-.001042,.298448*%
%ADD14MACRO14*%
%AMMACRO43*
21,1,1.0008,1.0998,0.0,0.0,.2*%
%ADD43MACRO43*%
%AMMACRO38*
21,1,2.4994,1.6002,0.0,0.0,90.2*%
%ADD38MACRO38*%
%ADD36C,1.6993*%
%AMMACRO39*
21,1,1.8999,1.6002,0.0,0.0,.2*%
%ADD39MACRO39*%
%AMMACRO26*
21,1,1.8009,2.1996,0.0,0.0,.2*%
%ADD26MACRO26*%
%ADD35R,1.6993X1.6993*%
%AMMACRO37*
21,1,1.8999,1.8009,0.0,0.0,.2*%
%ADD37MACRO37*%
%ADD46C,.2032*%
%ADD47C,.127*%
%ADD48C,.227*%
%ADD49C,.254*%
%ADD50C,.327*%
%ADD51C,.1524*%
%ADD52C,.508*%
%ADD53C,.527*%
%ADD54C,.635*%
%ADD55C,.762*%
%ADD56C,.627*%
%ADD57C,1.27*%
%ADD58C,2.2636*%
%ADD59C,1.9156*%
G75*
%LPD*%
G75*
G36*
G01X25371850Y24125190D02*
X25371570Y24205200D01*
G03X25360320Y24229930I-33039J-106D01*
G02X25360210Y24260390I13396J15279D01*
G03X25370210Y24276700I-21958J24684D01*
G01X25372200Y24284280D01*
X25929280D01*
X26151860Y24506860D01*
Y25214680D01*
G02X26186550Y25229050I20320J3D01*
G01X27186560Y24229040D01*
X29104260D01*
X29194740Y24138560D01*
Y24032540D01*
X29028060Y23865860D01*
X28062860D01*
X27837730Y23640730D01*
X27834950Y23640060D01*
G03X27811760Y23408850I28850J-119662D01*
G01X27817620Y23406120D01*
Y23389480D01*
X27778840D01*
G03X27740720Y23351360I-5J-38115D01*
G01Y23181440D01*
G03X27778840Y23143320I38115J-5D01*
G01X27948760D01*
G03X27986880Y23181440I5J38115D01*
G01Y23220220D01*
X28003520D01*
X28006250Y23214360D01*
G03X28226810Y23209230I111550J52039D01*
G02X28262790I17990J-9443D01*
G03X28480810I109010J57170D01*
G02X28516790I17990J-9443D01*
G03X28734810I109010J57170D01*
G02X28770790I17990J-9443D01*
G03X28981400Y23335890I109005J57177D01*
G01X29415760Y23770260D01*
Y23849400D01*
G02X29450450Y23863760I20319J-4D01*
G01X29506890Y23807320D01*
X29507020Y23769630D01*
G03X29540180Y23736710I33039J119D01*
G01X29640260Y23737060D01*
G03X29664960Y23748290I-118J33037D01*
G02X29695400Y23748390I15264J-13414D01*
G03X29714820Y23737750I24667J21979D01*
G01X29718070Y23737220D01*
X29853630Y23601660D01*
X30004200D01*
G02X30018570Y23566970I4J-20320D01*
G01X30010100Y23558500D01*
X29489400D01*
X29400500Y23469600D01*
Y22948900D01*
X25057100D01*
X24904700Y23101300D01*
Y23482300D01*
X24549100Y23837900D01*
X24422100D01*
X24384000Y23876000D01*
Y30632400D01*
X24358600Y30657800D01*
Y30683200D01*
X24371300Y30695900D01*
X24726900D01*
X25019000Y30988000D01*
Y31101910D01*
G02X25050590Y31118820I20321J0D01*
G03X25069020Y31113270I18329J27489D01*
G01X25269020Y31113970D01*
G03X25301950Y31147130I-110J33040D01*
G01X25301110Y31387120D01*
G03X25267960Y31420050I-33040J-110D01*
G01X25067960Y31419350D01*
G03X25050270Y31414140I118J-33039D01*
G02X25019000Y31431260I-10949J17119D01*
G01Y31623000D01*
X25010940Y31631060D01*
G02X25018130Y31648400I7188J7180D01*
G01X29400500D01*
X29629100Y31419800D01*
Y30975300D01*
X29616400Y30962600D01*
X29921200Y30657800D01*
X30238700D01*
Y24631250D01*
G02X30202040Y24619180I-20319J6D01*
G03X30027860Y24561800I-77639J-57380D01*
G01Y24443130D01*
G02X29990650Y24431840I-20319J4D01*
G03X29966090Y24458380I-96074J-64273D01*
G01Y24709420D01*
X30020380Y24709610D01*
G03X30053300Y24742770I-120J33040D01*
G01X30052420Y24996770D01*
G03X30019260Y25029690I-33040J-120D01*
G01X29989410Y25029590D01*
X29989360Y25039740D01*
G03X29900620Y25135500I-96538J-463D01*
G01X29896900Y25135810D01*
X29884170Y25148540D01*
X29884120Y25161140D01*
G03X29882780Y25170370I-33039J-84D01*
G01X29882360Y25171780D01*
Y25302750D01*
X29871470Y25313640D01*
X29871420Y25326240D01*
G03X29857910Y25352780I-33039J-110D01*
G01Y25372560D01*
X29732980Y25497490D01*
X29314820D01*
G03X29307490Y25504900I-26860J-19240D01*
G01Y25549180D01*
G03X29321280Y25576150I-19248J26852D01*
G01X29321000Y25656160D01*
G03X29287850Y25689080I-33037J-117D01*
G01X29207840Y25688800D01*
G03X29174920Y25655650I117J-33037D01*
G01X29175200Y25575640D01*
G03X29188710Y25549100I33039J110D01*
G01Y25504820D01*
G03X29174920Y25477850I19248J-26852D01*
G01X29175200Y25397840D01*
G03X29208350Y25364920I33037J117D01*
G01X29288360Y25365200D01*
G03X29314900Y25378710I-110J33039D01*
G01X29683780D01*
X29726510Y25335980D01*
X29725720Y25330890D01*
G03X29725340Y25325730I32659J-4999D01*
G01X29725620Y25245720D01*
G03X29740080Y25218510I33039J110D01*
G01Y25172300D01*
X29739600Y25170790D01*
G03X29738040Y25160630I31478J-10033D01*
G01X29738320Y25080620D01*
G03X29749650Y25055830I33037J115D01*
G02X29747370Y25023470I-13350J-15320D01*
G03X29732340Y24995650I18010J-27700D01*
G01X29732440Y24965190D01*
X29649490Y24964900D01*
X29596930Y24912340D01*
X26976690D01*
X25705860Y26183170D01*
G02X25720220Y26217860I14365J14371D01*
G01X26025850D01*
G02X26045060Y26190920I-2J-20320D01*
G03X26043250Y26180030I31230J-10786D01*
G01X26044020Y25960070D01*
G03X26077170Y25927150I33039J119D01*
G01X26257260Y25927780D01*
G03X26290190Y25960930I-109J33039D01*
G01X26289420Y26180890D01*
G03X26287750Y26191160I-33042J-102D01*
G02X26307040Y26217860I19290J6382D01*
G01X26848740D01*
X26932560Y26134040D01*
X27194840D01*
X27370420Y26309620D01*
Y26541620D01*
X27395080Y26541710D01*
G03X27405070Y26543290I-106J33040D01*
G03X27415090Y26541770I9907J31521D01*
G01X27445060Y26541880D01*
G03X27455070Y26543470I-117J33039D01*
G03X27465110Y26541940I9938J31510D01*
G01X27495080Y26542050D01*
G03X27505100Y26543640I-107J33040D01*
G03X27515120Y26542120I9907J31521D01*
G01X27545090Y26542230D01*
G03X27555080Y26543810I-106J33040D01*
G03X27565100Y26542290I9907J31521D01*
G01X27595070Y26542400D01*
G03X27605080Y26543990I-117J33039D01*
G03X27615090Y26542470I9907J31521D01*
G01X27645060Y26542580D01*
G03X27655060Y26544170I-127J33038D01*
G03X27665100Y26542640I9938J31510D01*
G01X27695070Y26542750D01*
G03X27705080Y26544340I-117J33039D01*
G03X27715090Y26542820I9907J31521D01*
G01X27745060Y26542930D01*
G03X27755060Y26544520I-127J33038D01*
G03X27765100Y26542990I9938J31510D01*
G01X27795070Y26543100D01*
G03X27805080Y26544690I-117J33039D01*
G03X27815090Y26543170I9907J31521D01*
G01X27845060Y26543280D01*
G03X27855060Y26544870I-127J33038D01*
G03X27865100Y26543340I9938J31510D01*
G01X27895070Y26543450D01*
G03X27905100Y26545040I-97J33041D01*
G03X27915120Y26543520I9907J31521D01*
G01X27945090Y26543630D01*
G03X27955080Y26545210I-106J33040D01*
G03X27965100Y26543690I9907J31521D01*
G01X27995070Y26543800D01*
G03X28005080Y26545390I-117J33039D01*
G03X28015120Y26543860I9938J31510D01*
G01X28045090Y26543970D01*
G03X28055100Y26545560I-117J33039D01*
G03X28065100Y26544040I9906J31519D01*
G01X28095070Y26544150D01*
G03X28105080Y26545740I-117J33039D01*
G03X28115120Y26544210I9938J31510D01*
G01X28145090Y26544320D01*
G03X28155100Y26545910I-117J33039D01*
G03X28165100Y26544390I9906J31519D01*
G01X28195070Y26544500D01*
G03X28205080Y26546090I-117J33039D01*
G03X28215120Y26544560I9938J31510D01*
G01X28245090Y26544670D01*
G03X28255100Y26546260I-117J33039D01*
G03X28265100Y26544740I9906J31519D01*
G01X28295070Y26544850D01*
G03X28305080Y26546440I-117J33039D01*
G03X28315120Y26544910I9938J31510D01*
G01X28345090Y26545020D01*
G03X28378010Y26578170I-119J33039D01*
G01X28377560Y26708220D01*
G03X28344400Y26741150I-33042J-112D01*
G01X28314430Y26741040D01*
G03X28304420Y26739450I117J-33039D01*
G03X28294380Y26740980I-9938J-31510D01*
G01X28264410Y26740870D01*
G03X28254400Y26739280I117J-33039D01*
G03X28244400Y26740800I-9906J-31519D01*
G01X28214430Y26740690D01*
G03X28204420Y26739100I117J-33039D01*
G03X28194380Y26740630I-9938J-31510D01*
G01X28164410Y26740520D01*
G03X28154400Y26738930I117J-33039D01*
G03X28144400Y26740450I-9906J-31519D01*
G01X28114430Y26740340D01*
G03X28104420Y26738750I117J-33039D01*
G03X28094380Y26740280I-9938J-31510D01*
G01X28064410Y26740170D01*
G03X28054400Y26738580I117J-33039D01*
G03X28044400Y26740100I-9906J-31519D01*
G01X28014430Y26739990D01*
G03X28004420Y26738400I117J-33039D01*
G03X27994380Y26739930I-9938J-31510D01*
G01X27964410Y26739820D01*
G03X27954420Y26738240I106J-33040D01*
G03X27944400Y26739760I-9907J-31521D01*
G01X27914430Y26739650D01*
G03X27904400Y26738060I97J-33041D01*
G03X27894380Y26739580I-9907J-31521D01*
G01X27864410Y26739470D01*
G03X27854410Y26737880I127J-33038D01*
G03X27844370Y26739410I-9938J-31510D01*
G01X27814400Y26739300D01*
G03X27804390Y26737710I117J-33039D01*
G03X27794380Y26739230I-9907J-31521D01*
G01X27764410Y26739120D01*
G03X27754410Y26737530I127J-33038D01*
G03X27744370Y26739060I-9938J-31510D01*
G01X27714400Y26738950D01*
G03X27704390Y26737360I117J-33039D01*
G03X27694380Y26738880I-9907J-31521D01*
G01X27664410Y26738770D01*
G03X27654410Y26737180I127J-33038D01*
G03X27644370Y26738710I-9938J-31510D01*
G01X27614400Y26738600D01*
G03X27604390Y26737010I117J-33039D01*
G03X27594380Y26738530I-9907J-31521D01*
G01X27564410Y26738420D01*
G03X27554420Y26736840I106J-33040D01*
G03X27544400Y26738360I-9907J-31521D01*
G01X27514430Y26738250D01*
G03X27504410Y26736660I107J-33040D01*
G03X27494390Y26738180I-9907J-31521D01*
G01X27464420Y26738070D01*
G03X27454410Y26736480I117J-33039D01*
G03X27444370Y26738010I-9938J-31510D01*
G01X27414400Y26737900D01*
G03X27404410Y26736320I106J-33040D01*
G03X27394390Y26737840I-9907J-31521D01*
G01X27364420Y26737730D01*
G03X27354410Y26736140I117J-33039D01*
G03X27344400Y26737660I-9907J-31521D01*
G01X27314430Y26737550D01*
G03X27304430Y26735960I127J-33038D01*
G03X27294390Y26737490I-9938J-31510D01*
G01X27264420Y26737380D01*
G03X27254390Y26735790I97J-33041D01*
G03X27244370Y26737310I-9907J-31521D01*
G01X27220410Y26737220D01*
Y26756510D01*
X27363050Y26899150D01*
X27367370Y26899070D01*
G03X27412250Y26916710I1133J63031D01*
G02X27426350I7050J-7313D01*
G03X27532180Y26951150I43748J45389D01*
G01X27533660Y26959540D01*
X28328000D01*
G03X28447540Y26987480I56500J27960D01*
G01Y26997640D01*
X28858540D01*
X29639150Y27778250D01*
X29658300D01*
G02X29675960Y27747880I-1J-20320D01*
G03X29863340Y27761810I98369J-55972D01*
G01X29861170Y27764580D01*
Y27778250D01*
X29885370D01*
X29924750Y27738870D01*
X29922430Y27732740D01*
G03X29988380Y27798690I105900J-39950D01*
G01X29982250Y27796370D01*
X29919050Y27859570D01*
X29889480D01*
G02X29871820Y27889940I1J20320D01*
G03X29862470Y28015810I-98370J55975D01*
G01X29860300Y28018570D01*
Y28032240D01*
X29884490D01*
X29923860Y27992870D01*
X29921540Y27986740D01*
G03X29987490Y28052690I105900J-39950D01*
G01X29981360Y28050370D01*
X29918170Y28113560D01*
X29888590D01*
G02X29870930Y28143930I1J20320D01*
G03X29702630Y28288890I-98372J55968D01*
G02X29669760Y28304870I-12550J15981D01*
G01Y28348230D01*
G02X29702500Y28364320I20321J6D01*
G03X29706400Y28546360I69172J89580D01*
G02X29678690Y28550420I-11720J16601D01*
G03X29617590Y28573480I-49591J-38920D01*
G02X29593560Y28593460I-3710J19978D01*
G01Y29085420D01*
G02X29628250Y29099790I20320J3D01*
G01X29687750Y29040290D01*
X29681980Y29033180D01*
G03X29858910Y29031800I87914J-71280D01*
G01X29856740Y29034570D01*
Y29048240D01*
X29880950D01*
X29920320Y29008870D01*
X29918000Y29002740D01*
G03X29983950Y29068690I105900J-39950D01*
G01X29977820Y29066370D01*
X29914630Y29129560D01*
X29885040D01*
G02X29867380Y29159930I1J20320D01*
G03X29710040Y29312500I-98372J55967D01*
G02X29679130Y29329850I-10589J17344D01*
G01Y29355420D01*
G02X29709900Y29372850I20320J3D01*
G03Y29566950I58230J97050D01*
G02X29679130Y29584380I-10450J17427D01*
G01Y29608880D01*
G02X29709770Y29626390I20321J5D01*
G03Y29821390I57470J97500D01*
G02X29679130Y29838900I-10319J17505D01*
G01Y29862360D01*
G02X29709630Y29879950I20320J4D01*
G03Y30075830I56720J97940D01*
G02X29679130Y30093420I-10180J17586D01*
G01Y30115860D01*
G02X29709500Y30133520I20320J-1D01*
G03X29688150Y30314540I55971J98370D01*
G02X29674020Y30314780I-6941J7420D01*
G01X29277640Y30711160D01*
X28250560D01*
G02X28230580Y30735190I-2J20320D01*
G03X28197050Y30802950I-61979J11506D01*
G01X28195600Y30803690D01*
X28098660Y30900630D01*
X28097980Y30903380D01*
G03X28028900Y30957540I-69080J-16975D01*
G01X27759320D01*
G03X27699350Y30924670I0J-71141D01*
G03X27688210Y30926560I-11015J-31148D01*
G01X27608200Y30926280D01*
G03X27575280Y30893130I117J-33037D01*
G01X27575380Y30862730D01*
X27533080Y30820130D01*
X27463130D01*
X27461860Y30828820D01*
G03X27429060Y30857080I-32692J-4780D01*
G01X27358960Y30856830D01*
X27358670D01*
X27354390Y30856780D01*
X27344180Y30866990D01*
X27362100Y30884910D01*
Y30931570D01*
X27363200Y30933740D01*
G03X27366770Y30948790I-29471J14939D01*
G01X27366330Y31073760D01*
G03X27333180Y31106690I-33040J-110D01*
G01X27263080Y31106440D01*
G03X27230150Y31073290I110J-33040D01*
G01X27230590Y30948320D01*
G03X27233820Y30934190I33038J118D01*
G01X27236910Y30927700D01*
X27184930Y30875720D01*
X27180660Y30875760D01*
G03X27180210I-225J-33036D01*
G01X27111230Y30875520D01*
X27108800Y30876980D01*
G03X27044720Y30877400I-32396J-54080D01*
G02X27014190Y30894970I-10210J17569D01*
G01Y31133330D01*
G02X27035430Y31153630I20321J0D01*
G03X27087690Y31255770I2868J62972D01*
G01Y31381430D01*
X27149100Y31443260D01*
X27192300Y31443420D01*
G03X27213790Y31451450I-101J33040D01*
G01X27216630Y31453910D01*
X27230550Y31453960D01*
X27230590Y31443620D01*
G03X27263740Y31410690I33040J110D01*
G01X27333840Y31410940D01*
G03X27366770Y31444090I-110J33040D01*
G01X27366330Y31569060D01*
G03X27333180Y31601990I-33040J-110D01*
G01X27263080Y31601740D01*
G03X27237010Y31588860I107J-33040D01*
G02X27209860Y31584200I-16102J12393D01*
G03X27191790Y31589500I-17948J-27738D01*
G01X27111780Y31589220D01*
G03X27078860Y31556070I117J-33037D01*
G01X27079010Y31512870D01*
X27026760Y31460260D01*
X27014190Y31465440D01*
Y31472060D01*
X26900060Y31586190D01*
X25396380D01*
X25319020Y31508830D01*
Y31416020D01*
X25360610Y31374430D01*
Y31187580D01*
X25419670Y31128520D01*
Y31110710D01*
X25394060Y31110620D01*
G03X25383930Y31108990I120J-33038D01*
G03X25373810Y31110550I-10033J-31479D01*
G01X25343840Y31110440D01*
G03X25310920Y31077290I118J-33038D01*
G01X25311350Y30952320D01*
G03X25314870Y30937610I33039J130D01*
G01X25318160Y30931050D01*
X25266540Y30879440D01*
Y30845340D01*
X25259820Y30842920D01*
G03X25237970Y30811720I11187J-31086D01*
G01X25238250Y30731710D01*
G03X25261400Y30700300I33038J114D01*
G02X25267440Y30686050I-3040J-9693D01*
G03X25266370Y30683800I56386J-28194D01*
G02X25250510Y30680280I-9252J4196D01*
G03X25212140Y30569420I-41010J-47876D01*
G01X25216590Y30569600D01*
X25286880Y30499320D01*
X25164780Y30377220D01*
X25160460Y30377300D01*
G03X25222360Y30315400I-1130J-63030D01*
G01X25222280Y30319720D01*
X25365970Y30463410D01*
X25488920D01*
G03X25495580Y30455940I27706J17998D01*
G02X25495680Y30424700I-12946J-15662D01*
G03X25489430Y30417730I21226J-25320D01*
G01X25419930D01*
X25418750Y30416550D01*
X25406050D01*
X25392750Y30403250D01*
X25388430Y30403330D01*
G03X25449170Y30328200I-1129J-63031D01*
G01X25450770Y30336410D01*
X25489360D01*
G03X25496020Y30328940I27706J17998D01*
G02X25496120Y30297700I-12946J-15662D01*
G03X25484300Y30272260I21221J-25326D01*
G01X25484380Y30249640D01*
X25379660Y30144920D01*
Y30114170D01*
G03X25366960Y30073600I58450J-40570D01*
G01Y28037530D01*
X25481260Y27923230D01*
Y27680160D01*
X25455860Y27654760D01*
Y27653440D01*
X25444400Y27641980D01*
Y26842490D01*
X25737050Y26549850D01*
G03X25771900Y26530710I50305J50298D01*
G01X25774790Y26530070D01*
X25871090Y26433760D01*
X26346270D01*
G03X26377900Y26421060I31630J33038D01*
G01X26574850D01*
X26587550Y26408360D01*
X26595380D01*
X26598030Y26406480D01*
G03X26605070Y26402190I33853J47632D01*
G01X26610560Y26399350D01*
Y26383000D01*
X25736060D01*
X25412920Y26706140D01*
Y27908380D01*
X25284280Y28037020D01*
G02X25283110Y28064480I14369J14367D01*
G03X25279560Y28149590I-48210J40618D01*
G02X25278050Y28161990I7200J7169D01*
G03X25284310Y28176070I-54040J32458D01*
G03X25268410Y28300720I-2857J62975D01*
G01X25263020Y28299580D01*
X25212060Y28350540D01*
Y29196990D01*
X25030080Y29378970D01*
G02X25044440Y29413660I14367J14370D01*
G03X25055770Y29538710I-33J63041D01*
G01X25047440Y29540230D01*
Y29674050D01*
G02X25071350Y29694050I20318J2D01*
G03X25081370Y29819130I11143J62049D01*
G01X25077050Y29819050D01*
X25034260Y29861840D01*
Y29936530D01*
G03X24969860Y30043100I-40664J48170D01*
G03X24832700Y30091030I-97211J-57968D01*
G01X24826570Y30088710D01*
X24786000Y30129280D01*
Y30151840D01*
X24799640D01*
X24802390Y30149710D01*
G03X24816280Y30337770I69381J89419D01*
G02X24786000Y30355480I-9959J17713D01*
G01Y30386770D01*
G03X24795130Y30396280I-40659J48172D01*
G02X24808740Y30398540I8027J-6232D01*
G03X24758530Y30506840I62137J94597D01*
G02X24748020Y30497920I-10085J1231D01*
G03X24740880Y30497820I-2689J-62981D01*
G01X24740540Y30497800D01*
X24730040Y30497760D01*
X24729790Y30567690D01*
G03X24691540Y30605680I-38120J-130D01*
G01X24541430Y30605150D01*
G03X24503440Y30566900I130J-38120D01*
G01X24503970Y30416790D01*
G03X24542220Y30378800I38120J130D01*
G01X24692330Y30379330D01*
G03X24694030Y30379370I-46J38120D01*
G02X24704680Y30369220I491J-10147D01*
G01Y30353950D01*
G02X24674220Y30336330I-20322J-8D01*
G03X24528480Y30168690I-56449J-98096D01*
G02X24515200Y30136060I-16025J-12495D01*
G03X24482610Y30025790I8500J-62463D01*
G01Y29927890D01*
X24483040Y29927460D01*
Y27857880D01*
X24547430Y27793480D01*
G02X24547360Y27779050I-7183J-7180D01*
G03X24739700Y27693230I79270J-80787D01*
G01X24739870Y27697180D01*
X24749850Y27707150D01*
X24767840Y27689160D01*
X24768250Y27685670D01*
G03X24946240Y27606920I112376J13471D01*
G02X24978340Y27590360I11780J-16558D01*
G01Y27554550D01*
G02X24946380Y27537890I-20320J-4D01*
G03Y27352390I-64860J-92750D01*
G02X24978340Y27335730I11640J-16656D01*
G01Y27301170D01*
G02X24946510Y27284420I-20320J-4D01*
G03Y27097880I-64110J-93270D01*
G02X24978340Y27081130I11510J-16746D01*
G01Y27047770D01*
G02X24946650Y27030940I-20318J7D01*
G03Y26843360I-63360J-93790D01*
G02X24978340Y26826530I11372J-16837D01*
G01Y26794370D01*
G02X24946780Y26777440I-20320J-1D01*
G03X24795170Y26613250I-62595J-94293D01*
G01X24797340Y26610480D01*
Y26596810D01*
X24773130D01*
X24733760Y26636180D01*
X24736080Y26642310D01*
G03X24670130Y26576360I-105900J39950D01*
G01X24676260Y26578680D01*
X24739450Y26515490D01*
X24769030D01*
G02X24786690Y26485120I-1J-20320D01*
G03X24925380Y26323400I98371J-55967D01*
G02X24952940Y26304410I7239J-18988D01*
G01Y26300230D01*
G02X24925520Y26281190I-20319J-2D01*
G03X24973990Y26104020I-39568J-106040D01*
G02X25006810Y26102360I15806J-12768D01*
G03X25104140Y26092230I52780J34471D01*
G02X25132870Y26092220I14360J-14374D01*
G01X25452570Y25772530D01*
G02X25438200Y25737840I-14367J-14370D01*
G01X25255120D01*
X25229260Y25763700D01*
X24946790D01*
G03X24786850Y25615830I-59069J-96542D01*
G01X24770610Y25604030D01*
X24741970Y25632680D01*
X24743400Y25638290D01*
G03X24649450Y25554190I-109666J27984D01*
G01X24654460Y25554890D01*
X24708610Y25500750D01*
G02X24694240Y25466060I-14370J-14369D01*
G01X24659260D01*
X24604770Y25411580D01*
X24537540D01*
G03X24499420Y25373460I5J-38125D01*
G01Y25223340D01*
G03X24537540Y25185220I38125J5D01*
G01X24687660D01*
G03X24725780Y25223340I-5J38125D01*
G01Y25373460D01*
G03X24725760Y25374340I-38115J-426D01*
G01Y25384740D01*
X24750570D01*
G02X24768230Y25354370I-1J-20320D01*
G03X24964970I98370J-55970D01*
G02X24982630Y25384740I17661J10050D01*
G01X25112020D01*
X25132020Y25364740D01*
Y25309200D01*
G03X25165060Y25276160I33035J-5D01*
G01X25405060D01*
G03X25432480Y25290760I6J33037D01*
G01X25769990D01*
X25771710Y25290120D01*
G03X25853640Y25329690I21987J59080D01*
G02X25887330Y25337760I19320J-6295D01*
G01X25956240Y25268860D01*
Y25021000D01*
G02X25921550Y25006630I-20321J0D01*
G01X25812370Y25115820D01*
X25744180D01*
X25741650Y25122270D01*
G03X25710770Y25143260I-30763J-12048D01*
G01X25630760Y25142980D01*
G03X25597840Y25109830I117J-33037D01*
G01X25598120Y25029820D01*
G03X25631270Y24996900I33037J117D01*
G01X25711280Y24997180D01*
G03X25741840Y25017950I-115J33037D01*
G01X25744400Y25024340D01*
X25774470D01*
X25815610Y24983210D01*
G02X25801310Y24948520I-14368J-14369D01*
G01X25798200Y24948510D01*
G03X25769890Y24932310I116J-33040D01*
G02X25758610Y24927650I-8742J5179D01*
G03X25687410Y24836690I-15708J-61050D01*
G03X25669590Y24773080I42792J-46289D01*
G03X25637050Y24683480I22509J-58883D01*
G02X25619310Y24653260I-17744J-9901D01*
G01X25511380D01*
G02X25491430Y24677480I-6J20321D01*
G03X25492050Y24683930I-32419J6371D01*
G01X25491940Y24714410D01*
G03X25490440Y24724140I-33040J-113D01*
G03X25491880Y24733910I-31602J9649D01*
G01X25491770Y24764390D01*
G03X25478260Y24790930I-33041J-111D01*
G02X25478200Y24807280I6001J8197D01*
G03X25484360Y24813240I-19700J26524D01*
G01X25505740D01*
X25542260Y24849760D01*
Y24946940D01*
X25476710Y25012490D01*
X25259790D01*
X24774850Y24527550D01*
Y24398770D01*
X24767200Y24396820D01*
G03X24742330Y24364690I8168J-32013D01*
G01X24742610Y24284680D01*
G03X24753860Y24259950I33039J106D01*
G02X24753970Y24229490I-13396J-15279D01*
G03X24742890Y24204690I21957J-24685D01*
G01X24743170Y24124680D01*
G03X24776320Y24091760I33037J117D01*
G01X24831560Y24091950D01*
X25151670Y23771840D01*
X25230200D01*
X25230670Y23636680D01*
X25222780Y23634850D01*
G03X25220310Y23634240I18133J-78729D01*
G02X25194790Y23653810I-5200J19644D01*
G01X25194760Y23663850D01*
G03X25018440Y23663230I-88160J-310D01*
G01X25018820Y23553510D01*
G03X25172760Y23495130I88159J313D01*
G02X25187120Y23495930I7579J-6768D01*
G03X25271450Y23481310I53871J60209D01*
G01X25277700Y23483860D01*
X25363090Y23398460D01*
X25645650D01*
X25749720Y23502530D01*
G02X25778740Y23502240I14368J-14368D01*
G03X25891270Y23498380I58251J55980D01*
G02X25905630Y23497670I6825J-7526D01*
G03X26059140Y23557150I65351J59171D01*
G01X26058760Y23666870D01*
G03X25882440Y23666250I-88160J-310D01*
G01X25882470Y23656220D01*
G02X25857100Y23636470I-20317J-71D01*
G03X25854630Y23637060I-20003J-78276D01*
G01X25846710Y23638830D01*
X25846240Y23775260D01*
G03X25843030Y23789340I-33040J-127D01*
G03X25845080Y23823410I-59551J20680D01*
G02X25864940Y23848040I19858J4310D01*
G01X26515040D01*
Y23818030D01*
X26489320Y23817940D01*
G03X26482290Y23817160I107J-33039D01*
G03X26470280Y23819380I-11907J-30821D01*
G01X26440310Y23819270D01*
G03X26427790Y23816760I112J-33038D01*
G03X26415260Y23819180I-12413J-30621D01*
G01X26355320Y23818970D01*
G03X26322400Y23785810I119J-33039D01*
G01X26322870Y23649380D01*
X26314980Y23647550D01*
G03X26312510Y23646940I18133J-78729D01*
G02X26286990Y23666510I-5200J19644D01*
G01X26286960Y23676550D01*
G03X26110640Y23675930I-88160J-310D01*
G01X26111020Y23566210D01*
G03X26264960Y23507830I88159J313D01*
G02X26279320Y23508630I7579J-6768D01*
G03X26388760Y23510190I53873J60209D01*
G02X26417100Y23509810I13975J-14748D01*
G01X26528450Y23398460D01*
X26783110D01*
X26868140Y23483490D01*
Y23495540D01*
G02X26883980Y23503960I10159J-1D01*
G03X26983470Y23511080I45208J66959D01*
G02X26997830Y23510370I6825J-7526D01*
G03X27151340Y23569850I65351J59171D01*
G01X27150960Y23679570D01*
G03X26974640Y23678950I-88160J-310D01*
G01X26974670Y23668920D01*
G02X26949300Y23649170I-20317J-71D01*
G03X26946830Y23649760I-20003J-78276D01*
G01X26938910Y23651530D01*
X26938440Y23787960D01*
G03X26935140Y23802250I-33043J-105D01*
G01X26934120Y23804340D01*
Y23897730D01*
X26905890Y23925960D01*
X26905130Y23927620D01*
G03X26817240Y23846260I-57329J-26222D01*
G01Y23820590D01*
X26790330Y23820490D01*
G03X26780300Y23818900I97J-33040D01*
G03X26770280Y23820420I-9907J-31522D01*
G01X26746340Y23820330D01*
Y23907960D01*
X26686840Y23967460D01*
X25917290D01*
G02X25899550Y23997680I4J20319D01*
G03X25905330Y24044930I-55051J30713D01*
G01X25904980Y24046230D01*
X25904940Y24057720D01*
X25915390Y24057760D01*
G03X25948310Y24090910I-119J33039D01*
G01X25947900Y24210800D01*
G03X25914740Y24243730I-33042J-112D01*
G01X25774790Y24243240D01*
G03X25741870Y24210090I119J-33039D01*
G01X25742280Y24090200D01*
G03X25766940Y24058350I33042J112D01*
G02X25781940Y24036190I-5162J-19651D01*
G03X25789450Y23997680I62559J-7787D01*
G02X25771710Y23967460I-17744J-9901D01*
G01X25675990D01*
G02X25658250Y23997680I4J20319D01*
G03X25662280Y24050390I-55050J30718D01*
G01X25661640Y24052110D01*
Y24137200D01*
X25656080Y24142760D01*
X25655800Y24223500D01*
G03X25622640Y24256430I-33042J-112D01*
G01X25482690Y24255940D01*
G03X25449770Y24222790I119J-33039D01*
G01X25450180Y24102900D01*
G03X25483340Y24069970I33042J112D01*
G01X25544760Y24070190D01*
Y24052110D01*
X25544120Y24050390D01*
G03X25548150Y23997680I59080J-21992D01*
G02X25530410Y23967460I-17744J-9901D01*
G01X25378730D01*
X25339330Y24006860D01*
Y24091110D01*
X25346980Y24093060D01*
G03X25371850Y24125190I-8168J32013D01*
G37*
G36*
G01X24930870Y27800560D02*
G03X24803690Y27782140I-50235J-101420D01*
G01X24796510Y27775490D01*
X24703010Y27868990D01*
X24709520Y27876160D01*
G03X24590930Y28059950I-83774J76100D01*
G02X24564360Y28079290I-6250J19335D01*
G01Y28093650D01*
G02X24578670Y28102930I10162J4D01*
G03X24711480Y28133410I46190J103322D01*
G02X24741400Y28134700I15552J-13081D01*
G01X24807230Y28068870D01*
G02X24806080Y28039070I-14369J-14368D01*
G03X24962570Y28030270I73660J-85930D01*
G02X24977440Y28064440I14868J13851D01*
G01X25014870D01*
X25101650Y27977660D01*
G02X25101970Y27949260I-14373J-14364D01*
G03X25091650Y27934850I45584J-43547D01*
G01X25088800Y27929380D01*
X25065180D01*
X25006280Y27870480D01*
Y27845410D01*
G02X24984730Y27825120I-20321J-6D01*
G03X24930870Y27800560I-3837J-62923D01*
G37*
G36*
G01X24711200Y28293090D02*
X24697530D01*
X24694760Y28295260D01*
G03X24590800Y28314180I-69901J-89011D01*
G02X24564360Y28333560I-6119J19378D01*
G01Y28347260D01*
G02X24578590Y28356560I10158J-6D01*
G03X24663920Y28354350I45379J103688D01*
G01X24670050Y28356670D01*
X24711200Y28315520D01*
Y28293090D01*
G37*
G36*
G01X24679190Y28559050D02*
G03X24590660Y28568420I-55218J-98799D01*
G02X24564360Y28587840I-5981J19419D01*
G01Y28611040D01*
X24576600D01*
X24578520Y28610210D01*
G03X24679050Y28615870I44567J104039D01*
G02X24709420Y28598210I10051J-17659D01*
G01Y28576780D01*
G02X24679190Y28559050I-20318J7D01*
G37*
G36*
G01X24673670Y29366720D02*
G03X24746330Y29340530I53226J33781D01*
G01X24752250Y29342450D01*
X24793430Y29301270D01*
G03X24975770Y29171010I81876J-78140D01*
G02X25008180Y29176020I18039J-9358D01*
G01X25067240Y29116960D01*
Y28303120D01*
G02X25032550Y28288750I-20320J-3D01*
G01X24965260Y28356040D01*
X25014010Y28404790D01*
Y28635710D01*
X24980660Y28669060D01*
X24982980Y28675190D01*
G03X24794130Y28792140I-105896J39952D01*
G02X24764870Y28791590I-14895J13822D01*
G01X24699570Y28856890D01*
G02X24699970Y28886020I14366J14370D01*
G03X24590390Y29076870I-77768J82232D01*
G02X24564360Y29096370I-5711J19500D01*
G01Y29118290D01*
X24576520D01*
X24578370Y29117530D01*
G03X24590260Y29331090I42938J104720D01*
G02X24564360Y29350630I-5581J19537D01*
G01Y29371930D01*
X24576480D01*
X24578300Y29371200D01*
G03X24661410Y29370750I42125J105050D01*
G02X24673670Y29366720I3680J-9469D01*
G37*
G36*
G01X24761600Y29898790D02*
X24722230Y29938160D01*
X24724550Y29944290D01*
G03X24584000Y30091990I-105897J39952D01*
G03X24571740Y30114410I-60291J-18407D01*
G02X24582640Y30130650I7743J6581D01*
G03X24674220Y30140150I35122J107590D01*
G02X24704680Y30122530I10138J-17612D01*
G01Y30095600D01*
X24769070Y30031210D01*
X24766750Y30025080D01*
G03X24783640Y29915230I105898J-39941D01*
G01X24785810Y29912460D01*
Y29898790D01*
X24761600D01*
G37*
G36*
G01X24750230Y29714070D02*
X24732780Y29731520D01*
X24732600Y29735450D01*
G03X24589990Y29839490I-113059J-5212D01*
G02X24564360Y29859110I-5309J19615D01*
G01Y29879220D01*
X24576400D01*
X24578150Y29878550D01*
G03X24658600Y29878340I40501J105688D01*
G01X24664730Y29880660D01*
X24727920Y29817470D01*
X24757510D01*
G02X24775170Y29787100I-1J-20320D01*
G03X24760390Y29728660I98371J-55968D01*
G01X24760480Y29724320D01*
X24750230Y29714070D01*
G37*
G36*
G01X25198220Y23853160D02*
X25185350D01*
X24963950Y24074560D01*
G02X24971100Y24091900I7186J7181D01*
G01X24983960Y24091950D01*
X25205400Y23870500D01*
G02X25198220Y23853160I-7183J-7182D01*
G37*
G36*
G01X25034180Y24384940D02*
G03X25016150Y24397040I-26403J-19859D01*
G01X25008570Y24399030D01*
Y24582770D01*
X25247420Y24821620D01*
G02X25279530Y24817160I14369J-14367D01*
G03X25283390Y24811660I28833J16131D01*
G02X25283480Y24785180I-15372J-13292D01*
G03X25275580Y24763630I25140J-21439D01*
G01X25275690Y24733150D01*
G03X25277190Y24723420I33040J113D01*
G03X25275750Y24713650I31602J-9649D01*
G01X25275860Y24683170D01*
G03X25279560Y24668090I33040J113D01*
G01X25280700Y24665890D01*
Y24653260D01*
X25268860D01*
X25092350Y24476750D01*
Y24398770D01*
X25084700Y24396820D01*
G03X25066590Y24384830I8170J-32013D01*
G02X25034180Y24384940I-16163J12317D01*
G37*
G36*
G01X24877880Y24389270D02*
G03X24863750Y24397040I-22503J-24189D01*
G01X24856170Y24399030D01*
Y24493870D01*
X24892560Y24530260D01*
G02X24927250Y24515890I14370J-14367D01*
G01Y24398770D01*
X24919600Y24396820D01*
G03X24905450Y24389170I8166J-32015D01*
G02X24877880Y24389270I-13731J14980D01*
G37*
G36*
G01X24923160Y28611560D02*
X24932690Y28602030D01*
Y28590130D01*
G02X24907130Y28570500I-20319J2D01*
G03X24821240Y28559080I-29164J-109360D01*
G02X24790740Y28576660I-10182J17583D01*
G01Y28599110D01*
G02X24821110Y28616770I20320J-1D01*
G03X24917030Y28609240I55978J98369D01*
G01X24923160Y28611560D01*
G37*
G36*
G01X25380200Y23546650D02*
Y23594770D01*
X25391230D01*
X25392100Y23594620D01*
G03X25397850Y23594130I5670J32550D01*
G01X25427820Y23594240D01*
G03X25440560Y23596840I-107J33039D01*
G03X25448840Y23595810I8186J32011D01*
G01X25473640Y23595900D01*
Y23544200D01*
X25485150Y23532680D01*
G02X25477970Y23515340I-7183J-7182D01*
G01X25411510D01*
X25380200Y23546650D01*
G37*
G36*
G01X25199280Y24384940D02*
G03X25181250Y24397040I-26403J-19859D01*
G01X25173670Y24399030D01*
Y24443070D01*
X25302540Y24571940D01*
X25448550D01*
X25449000Y24442900D01*
G03X25482160Y24409970I33042J112D01*
G01X25539920Y24410170D01*
X25549800Y24400290D01*
G02X25535440Y24365600I-14364J-14371D01*
G01X25371940D01*
X25369990Y24373250D01*
G03X25337860Y24398120I-32013J-8168D01*
G01X25257850Y24397840D01*
G03X25231690Y24384830I115J-33037D01*
G02X25199280Y24384940I-16163J12317D01*
G37*
G36*
G01X25432480Y25407640D02*
G03X25424520Y25415910I-27422J-18428D01*
G01X25420340Y25418950D01*
Y25462310D01*
X25372570Y25510070D01*
G02X25386940Y25544760I14370J14369D01*
G01X25398110D01*
X25484140Y25458740D01*
G03X25648940Y25527080I68262J68264D01*
G02X25683630Y25541470I20320J23D01*
G01X25782260Y25442830D01*
G02X25774190Y25409140I-14365J-14370D01*
G03X25771710Y25408280I19409J-59976D01*
G01X25769990Y25407640D01*
X25432480D01*
G37*
G36*
G01X25307430Y26367220D02*
G02X25273580Y26358620I-19483J5767D01*
G01X25229840Y26402360D01*
Y26606600D01*
G02X25264530Y26620970I20320J3D01*
G01X25414470Y26471030D01*
G02X25400080Y26436340I-14367J-14370D01*
G03X25307430Y26367220I-84J-96542D01*
G37*
G36*
G01X25698410Y26963230D02*
G03X25818470Y26941260I57185J-26530D01*
G02X25838670Y26963050I20266J1470D01*
G01X25934310Y26963390D01*
G03X25941560Y26964220I-110J33039D01*
G02X25966400Y26944410I4520J-19811D01*
G01Y26725990D01*
X25928210Y26687800D01*
X25800310D01*
X25586680Y26901430D01*
Y26936270D01*
G02X25611030Y26956190I20320J4D01*
G03X25677370Y26985210I12488J61790D01*
G02X25692180Y26988030I8680J-5285D01*
G03X25692220Y26987990I44170J44130D01*
G02X25698410Y26963230I-12242J-16214D01*
G37*
G36*
G01X25586680Y27325080D02*
Y27427690D01*
G02X25612260Y27447310I20318J-5D01*
G03X25630510Y27445190I16322J60892D01*
G02X25651440Y27424880I610J-20311D01*
G01Y27328470D01*
X25644810Y27326020D01*
G03X25621550Y27310900I21887J-59121D01*
G02X25586680Y27325080I-14552J14181D01*
G37*
G36*
G01X25621370Y27098650D02*
G02X25586680Y27113020I-14370J14367D01*
G01Y27208720D01*
G02X25621550Y27222900I20318J-1D01*
G03X25635150Y27212320I45146J44002D01*
G03X25644700Y27136250I54430J-31801D01*
G01X25651790Y27129070D01*
X25621370Y27098650D01*
G37*
G36*
G01X25615050Y29584150D02*
G02X25580360Y29598520I-14370J14367D01*
G01Y29927730D01*
X25601640Y29927810D01*
X25642150Y29968330D01*
G02X25676840Y29953960I14369J-14369D01*
G01Y29645940D01*
X25615050Y29584150D01*
G37*
G36*
G01X25509240Y30031630D02*
Y30073600D01*
G03X25505250Y30097080I-71138J-10D01*
G01X25503150Y30103110D01*
X25591670Y30191630D01*
X25641660D01*
X25643380Y30190990D01*
G03X25663360Y30187060I21997J59078D01*
G02X25677080Y30152380I-647J-20310D01*
G01X25556530Y30031830D01*
X25509240Y30031630D01*
G37*
G36*
G01X25728380Y30252080D02*
G03X25665880Y30313110I-63009J-2009D01*
G02X25647420Y30341550I165J20318D01*
G03X25650180Y30354880I-30280J13220D01*
G01X25650020Y30399840D01*
G03X25638020Y30425200I-33039J-115D01*
G02X25637920Y30456440I12946J15662D01*
G03X25638150Y30456630I-20929J25569D01*
G02X25665650Y30455610I13196J-15452D01*
G01X25779710Y30342520D01*
Y30255020D01*
X25763060Y30238360D01*
G02X25728380Y30252080I-14370J14367D01*
G37*
G36*
G01X25384330Y30732220D02*
X25384050Y30812230D01*
G03X25375140Y30834690I-33038J-109D01*
G02X25375600Y30862950I14831J13892D01*
G01X25380700Y30868040D01*
X25411900D01*
X25423820Y30879960D01*
X25432130Y30871660D01*
X25432850Y30870240D01*
G03X25502960Y30837650I56046J28862D01*
G02X25527730Y30815980I4533J-19810D01*
G03X25537830Y30775560I62772J-5787D01*
G02X25525440Y30744610I-16981J-11157D01*
G03X25489440Y30721250I14266J-61405D01*
G02X25476220Y30718600I-8104J6128D01*
G03X25397700Y30706440I-31769J-54450D01*
G02X25381020Y30717690I-7539J6813D01*
G03X25384330Y30732220I-29727J14414D01*
G37*
G36*
G01X25607400Y31431800D02*
X25632220Y31456610D01*
X25763850D01*
G02X25778220Y31421920I1J-20321D01*
G01X25719690Y31363400D01*
Y31294370D01*
G02X25685000Y31280000I-20321J-1D01*
G01X25679300Y31285710D01*
X25679480Y31290160D01*
G03X25628120Y31354760I-62983J2642D01*
G03X25607960Y31402530I-63021J1543D01*
G02X25607400Y31431800I13812J14905D01*
G37*
G36*
G01X25980650Y24725880D02*
G03X25982090Y24735630I-31600J9648D01*
G01X25982020Y24756110D01*
X25997750Y24771850D01*
G02X26032440Y24757480I14370J-14367D01*
G01Y24680240D01*
X26005460Y24653260D01*
X26001230D01*
G02X25981430Y24678130I4J20320D01*
G03X25982270Y24685640I-32201J7404D01*
G01X25982160Y24716120D01*
G03X25980650Y24725880I-33039J-115D01*
G37*
G36*
G01X26354190Y26958710D02*
G03X26343110Y26933910I21957J-24685D01*
G01X26343390Y26853900D01*
G03X26376540Y26820980I33037J117D01*
G01X26424620Y26821140D01*
X26434020Y26811740D01*
Y26734480D01*
X26414410Y26734410D01*
G03X26381490Y26701260I119J-33039D01*
G01X26381940Y26571210D01*
Y26571100D01*
G02X26361620Y26550640I-20318J-141D01*
G01X25919510D01*
X25903430Y26566710D01*
G02X25917800Y26601400I14370J14369D01*
G01X25963990D01*
X26052800Y26690210D01*
Y26868810D01*
X26184580Y26869270D01*
G03X26217510Y26902420I-110J33040D01*
G01X26217280Y26967870D01*
X26257830Y27008420D01*
X26342570D01*
X26345100Y27001970D01*
G03X26354080Y26989170I30770J12037D01*
G02X26354190Y26958710I-13396J-15279D01*
G37*
G36*
G01X25931290Y27252530D02*
G03X25906490Y27263610I-24685J-21957D01*
G01X25847060Y27263410D01*
Y27667110D01*
G02X25857220Y27677270I10160J0D01*
G03X25915110Y27715400I-20J63040D01*
G01X25917750Y27721540D01*
X26077240D01*
X26215360Y27859660D01*
Y28110670D01*
X26311420D01*
G02X26325790Y28075980I2J-20321D01*
G01X26258500Y28008690D01*
Y27856290D01*
X26004500Y27602290D01*
Y27306370D01*
X26012240Y27298620D01*
G02X25997950Y27263930I-14367J-14370D01*
G01X25986480Y27263890D01*
G03X25961750Y27252640I106J-33039D01*
G02X25931290Y27252530I-15279J13396D01*
G37*
G36*
G01X26488910Y27014410D02*
X26488630Y27094420D01*
G03X26455480Y27127340I-33037J-117D01*
G01X26375470Y27127060D01*
G03X26344910Y27106290I115J-33037D01*
G01X26342350Y27099900D01*
X26219930D01*
X26125280Y27005240D01*
X26112120Y27005200D01*
G02X26097680Y27039880I-70J20317D01*
G01X26176730Y27118940D01*
Y27256320D01*
X26090900Y27342150D01*
Y27476560D01*
X26176600D01*
G03X26204760Y27492300I12J33039D01*
G01X26207730Y27497140D01*
X26223580D01*
Y27471240D01*
G03X26256620Y27438200I33040J0D01*
G01X26331540D01*
G03X26364580Y27471240I0J33040D01*
G01Y27616980D01*
X26381520Y27633910D01*
X26516310D01*
Y27588400D01*
X26543620Y27561100D01*
Y27471240D01*
G03X26576660Y27438200I33040J0D01*
G01X26651580D01*
G03X26684620Y27471240I0J33040D01*
G01Y27503860D01*
X26704180D01*
G03X26731600Y27489260I27414J18437D01*
G01X26811600D01*
G03X26844640Y27522300I5J33035D01*
G01Y27608510D01*
X26902220D01*
X27044750Y27751040D01*
Y27794690D01*
X27046100Y27797040D01*
G03X27046400Y27797560I-40567J23750D01*
G02X27064140I8870J-4952D01*
G03X27106500Y27773500I41038J22931D01*
G01X27110870Y27773620D01*
X27215310Y27669180D01*
Y27499620D01*
X27204220Y27488530D01*
X27074620D01*
G03X27041580Y27455490I0J-33040D01*
G01Y27442690D01*
X26998020D01*
X26996230Y27450610D01*
G03X26964000Y27476340I-32221J-7309D01*
G01X26884000D01*
G03X26850960Y27443300I-5J-33035D01*
G01Y27363300D01*
G03X26884000Y27330260I33035J-5D01*
G01X26964000D01*
G03X26996230Y27355990I9J33039D01*
G01X26998020Y27363910D01*
X27041580D01*
Y27350590D01*
G03X27074620Y27317550I33040J0D01*
G01X27204660D01*
G03X27237700Y27350590I0J33040D01*
G01Y27410600D01*
X27294090Y27466980D01*
Y27492300D01*
G02X27304360Y27502460I10159J1D01*
G03X27304740I190J33040D01*
G01X27434780D01*
G03X27452460Y27507580I13J33041D01*
G02X27466290Y27504720I5436J-8584D01*
G03X27493600Y27490280I27305J18597D01*
G01X27573600D01*
G03X27606640Y27523320I5J33035D01*
G01Y27596590D01*
X27637260D01*
X27646600Y27587240D01*
Y27531700D01*
G03X27655410Y27509240I33041J3D01*
G02X27655460Y27481670I-14906J-13812D01*
G03X27646740Y27459300I24317J-22364D01*
G01Y27379300D01*
G03X27659580Y27353150I33037J-6D01*
G02X27665910Y27329250I-12425J-16079D01*
G03X27777080Y27339160I58188J-24251D01*
G02X27779540Y27352810I8538J5508D01*
G03X27792820Y27379300I-19759J26479D01*
G01Y27459300D01*
G03X27790650Y27471090I-33038J14D01*
G02X27809640Y27498660I18985J7248D01*
G01X27919660D01*
G03X27952700Y27531700I0J33040D01*
G01Y27567760D01*
G02X27978560Y27587310I20318J2D01*
G01X27982230Y27586270D01*
X28127140Y27441360D01*
X28556990D01*
G03X28574110Y27420570I56100J28753D01*
G02X28575910Y27390230I-12568J-15969D01*
G01X28505940Y27320260D01*
X28142090D01*
X28139230Y27325660D01*
G03X28020670Y27300930I-55700J-29526D01*
G02X28000410Y27282160I-20260J1549D01*
G01X27975470D01*
G03X27864270Y27240370I-48171J-40662D01*
G01X27864350Y27236050D01*
X27846960Y27218660D01*
X27084960D01*
X26873570Y27007270D01*
X26867620Y27009240D01*
G03X26799590Y26908780I-19820J-59842D01*
G02X26798420Y26881320I-15539J-13093D01*
G01X26739100Y26822000D01*
Y26749870D01*
G02X26709540Y26731770I-20321J-1D01*
G03X26694400Y26735390I-15037J-29420D01*
G01X26664430Y26735280D01*
G03X26654420Y26733690I117J-33039D01*
G03X26644380Y26735220I-9938J-31510D01*
G01X26620420Y26735130D01*
Y26766120D01*
X26664550Y26810250D01*
X26668870Y26810170D01*
G03X26606970Y26872070I1130J63030D01*
G01X26607050Y26867750D01*
X26560190Y26820890D01*
G02X26525500Y26835260I-14370J14367D01*
G01Y26849640D01*
X26489360Y26885770D01*
X26489190Y26934420D01*
G03X26477940Y26959150I-33039J-106D01*
G02X26477830Y26989610I13396J15279D01*
G03X26488910Y27014410I-21957J24685D01*
G37*
G36*
G01X26223580Y27602060D02*
X26207730D01*
X26204760Y27606900D01*
G03X26176600Y27622640I-28148J-17299D01*
G01X26171570D01*
G02X26164380Y27639990I-6J10162D01*
G01X26344900Y27820510D01*
Y27972910D01*
X26376230Y28004240D01*
X26526190D01*
G03X26551480Y28011620I0J47022D01*
G01X26553980Y28013220D01*
X26567110D01*
Y27999690D01*
X26565540Y27997200D01*
G03X26558300Y27972130I39771J-25066D01*
G01Y27818090D01*
G03X26551340Y27743510I47010J-42002D01*
G02X26533950Y27712690I-17396J-10501D01*
G01X26348880D01*
X26290590Y27654400D01*
X26256620D01*
G03X26223580Y27621360I0J-33040D01*
G01Y27602060D01*
G37*
G36*
G01X25867270Y28374360D02*
G03X25798330Y28393220I-48173J-40660D01*
G01X25792310Y28391120D01*
X25780610Y28402810D01*
X25796260Y28418460D01*
Y29370960D01*
X26052800Y29627500D01*
Y29749910D01*
G02X26076210Y29769990I20318J-2D01*
G03X26091110Y29769480I9591J62309D01*
G01X26097030Y29769980D01*
X26099250Y29766720D01*
X26301580D01*
X26301650Y29756630D01*
G03X26321490Y29711150I63039J432D01*
G01Y29560920D01*
X26398110Y29484300D01*
X26558300D01*
Y29430530D01*
G02X26533010Y29410830I-20319J1D01*
G03X26459140Y29326110I-15410J-61128D01*
G02X26446870Y29299270I-18842J-7611D01*
G03X26445610Y29298820I13043J-38509D01*
G01X26443870Y29298160D01*
X26374550D01*
G03X26327720Y29255240I0J-47008D01*
G02X26307480Y29236690I-20243J1770D01*
G01X26241820D01*
X26062090Y29416420D01*
X26034360D01*
X26033240Y29416670D01*
G03X26018340Y29417260I-9031J-39641D01*
G03X25975710Y29299350I-15092J-61205D01*
G02X25986550Y29276130I-8870J-18281D01*
G03X25997550Y29222610I61149J-15322D01*
G03Y29121190I37450J-50710D01*
G03X25996480Y29046250I50151J-38194D01*
G03X25990670Y28962720I44111J-45035D01*
G03X25984780Y28879800I44331J-44818D01*
G03X25992210Y28795410I50221J-38100D01*
G03X25985860Y28777720I55493J-29905D01*
G03X25972570Y28652740I-1668J-63019D01*
G03X26016020Y28591760I63030J-1059D01*
G02X26024070Y28558080I-6316J-19312D01*
G01X25989650Y28523650D01*
X25985330Y28523730D01*
G03X25940640Y28415130I-1130J-63030D01*
G02X25940970Y28386070I-14038J-14691D01*
G01X25929260Y28374360D01*
X25867270D01*
G37*
G36*
G01X25818920Y28038180D02*
X25752390Y28104710D01*
G02X25757840Y28137340I14365J14371D01*
G03X25775570Y28150230I-27641J56658D01*
G01X25778570Y28153340D01*
X25785140D01*
X25823240Y28191440D01*
X25918140D01*
Y28160240D01*
G03X25902900Y28132400I17802J-27837D01*
G01Y28094010D01*
X25836260Y28027370D01*
G02X25818920Y28034550I-7182J7183D01*
G01Y28038180D01*
G37*
G36*
G01X25979700Y30099410D02*
X25978730Y30098800D01*
G03X25971630Y30093130I21664J-34408D01*
G01X25931830Y30053330D01*
G02X25902770Y30053660I-14369J14368D01*
G03X25900760Y30055670I-45570J-43560D01*
G02X25900430Y30084730I14038J14691D01*
G01X25960920Y30145220D01*
G02X25995610Y30130850I14370J-14367D01*
G01Y30115320D01*
X25979700Y30099410D01*
G37*
G36*
G01X25758160Y29674720D02*
Y29835640D01*
X25825580Y29835880D01*
G03X25830950Y29836330I-65J33039D01*
G02X25854640Y29816300I3371J-20037D01*
G01Y29722140D01*
X25792850Y29660350D01*
G02X25758160Y29674720I-14370J14367D01*
G37*
G36*
G01X26000300Y30698490D02*
X26080130Y30698760D01*
Y30633160D01*
X26122610Y30590680D01*
Y30502850D01*
X26122360Y30501730D01*
G03X26121340Y30492700I39638J-9050D01*
G01Y30473020D01*
G02X26086650Y30458650I-20321J-1D01*
G01X25985490Y30559820D01*
Y30698720D01*
X25996180D01*
X25996720Y30698670D01*
G03X26000300Y30698490I3447J32858D01*
G37*
G36*
G01X26565050Y31384260D02*
X26565860Y31151540D01*
G03X26599010Y31118610I33040J110D01*
G01X26720150Y31119030D01*
G02X26734590Y31084350I69J-20318D01*
G01X26709510Y31059270D01*
Y30976370D01*
G03X26808290I49390J-39170D01*
G01Y31018350D01*
X26811820Y31021880D01*
G02X26846510Y31007520I14371J-14365D01*
G01Y30693350D01*
X26846260Y30692230D01*
G03X26857150Y30654450I39642J-9033D01*
G01X26906720Y30604880D01*
G02X26892350Y30570190I-14367J-14370D01*
G01X26762520D01*
X26724420Y30608290D01*
X26445010D01*
X26404590Y30648710D01*
Y30698840D01*
X26469010Y30699070D01*
G03X26501930Y30732220I-117J33037D01*
G01X26501730Y30789580D01*
X26549150Y30837340D01*
Y30934220D01*
X26551140Y30936920D01*
G03X26557610Y30956670I-26568J19638D01*
G01X26557180Y31081640D01*
G03X26524020Y31114570I-33042J-112D01*
G01X26494050Y31114460D01*
G03X26484030Y31112870I107J-33039D01*
G03X26474010Y31114390I-9907J-31522D01*
G01X26459190Y31114330D01*
X26459140Y31127650D01*
X26460920Y31130260D01*
G03X26360140Y31205810I-52050J35560D01*
G02X26331890Y31202710I-15710J12892D01*
G03X26235290Y31127730I-38896J-49606D01*
G02X26225550Y31113490I-9301J-4089D01*
G03X26224030Y31113520I-1412J-33012D01*
G01X26194060Y31113410D01*
G03X26184050Y31111820I117J-33038D01*
G03X26174010Y31113350I-9939J-31511D01*
G01X26144040Y31113240D01*
G03X26134030Y31111650I117J-33038D01*
G03X26124030Y31113170I-9906J-31520D01*
G01X26094060Y31113060D01*
G03X26067330Y31099280I115J-33039D01*
G02X26050860Y31099220I-8257J5921D01*
G03X26050520Y31099680I-26739J-19408D01*
G01X26048480Y31102380D01*
X26048430Y31115160D01*
X26048340Y31115260D01*
Y31170070D01*
X26021600Y31196810D01*
X26021780Y31201260D01*
G03X26004590Y31247230I-62983J2647D01*
G02X26019350Y31281510I14764J13961D01*
G01X26313330D01*
G03X26410530Y31355520I39167J49393D01*
G02X26429170Y31383780I18707J7938D01*
G01X26565050Y31384260D01*
G37*
G36*
G01X26676570Y26416420D02*
G03X26689530Y26444380I-44666J37687D01*
G01X26690070Y26447580D01*
X26725500Y26483010D01*
Y26522750D01*
G02X26753120Y26541710I20319J-1D01*
G03X26765120Y26539500I11882J30832D01*
G01X26795090Y26539610D01*
G03X26805100Y26541200I-117J33039D01*
G03X26815100Y26539680I9906J31519D01*
G01X26845070Y26539790D01*
G03X26855080Y26541380I-117J33039D01*
G03X26865120Y26539850I9938J31510D01*
G01X26895090Y26539960D01*
G03X26905100Y26541550I-117J33039D01*
G03X26915100Y26540030I9906J31519D01*
G01X26939100Y26540120D01*
Y26453040D01*
X26869060Y26383000D01*
X26692100D01*
G02X26676570Y26416420I3J20320D01*
G37*
G36*
G01X26680370Y28011930D02*
G03X26666370Y28017830I-25017J-39801D01*
G01X26658590Y28019710D01*
Y28043180D01*
G03X26597620Y28151630I-39390J49219D01*
G02X26571210Y28164870I-6952J19093D01*
G03X26566070Y28176220I-45016J-13547D01*
G03X26573200Y28200470I-39877J24898D01*
G01X26573330Y28210490D01*
X26756340D01*
Y28165970D01*
G03X26752300Y28073350I40661J-48172D01*
G02X26753440Y28060380I-7201J-7168D01*
G03X26742170Y28024420I51770J-35971D01*
G01Y28017790D01*
X26736130Y28015110D01*
G03X26730280Y28012010I19032J-42985D01*
G03X26680370Y28011930I-24891J-39880D01*
G37*
G36*
G01X26572970Y28505710D02*
G03X26565990Y28526100I-46780J-4624D01*
G03Y28576140I-39800J25020D01*
G03X26570120Y28584430I-39807J25005D01*
G01X26570900Y28586460D01*
X26579620Y28595180D01*
X26652720Y28522080D01*
G02X26638350Y28487390I-14367J-14370D01*
G01X26593190D01*
G02X26572970Y28505710I2J20320D01*
G37*
G36*
G01X26573050Y28354970D02*
G03X26565990Y28376240I-46859J-3747D01*
G03X26573140Y28398950I-39803J25012D01*
G01X26573620Y28408610D01*
X26638350D01*
G02X26652720Y28373920I3J-20320D01*
G01X26615060Y28336260D01*
X26593310D01*
G02X26573050Y28354970I-4J20320D01*
G37*
G36*
G01X26712240Y28577560D02*
X26645940Y28643860D01*
G02X26656480Y28678190I14364J14373D01*
G03X26674040Y28684360I-11888J61908D01*
G02X26701900Y28675070I9487J-17970D01*
G03X26815400Y28674040I56999J26930D01*
G01X26919860D01*
X26981650Y28612250D01*
G02X26967280Y28577560I-14367J-14370D01*
G01X26712240D01*
G37*
G36*
G01X26650310Y29532090D02*
X26626410Y29555990D01*
G03X26605800Y29567480I-30542J-30554D01*
G01X26602990Y29568150D01*
X26600430Y29570700D01*
X26536970D01*
G02X26517060Y29595120I-7J20321D01*
G03X26517740Y29601800I-32357J6668D01*
G01Y29613840D01*
X26615060D01*
X26667650Y29561250D01*
Y29539270D01*
G02X26650310Y29532090I-10158J5D01*
G37*
G36*
G01X26471540Y29886650D02*
X26433950Y29924240D01*
X26410430D01*
G02X26390120Y29945060I4J20320D01*
G03X26390080Y29949240I-63020J1487D01*
G01X26389900Y29953690D01*
X26397750Y29961550D01*
G02X26425450Y29962520I14370J-14370D01*
G03X26507460Y30058270I41350J47580D01*
G01Y30217440D01*
X26445370Y30279530D01*
X26444740Y30282460D01*
G03X26433480Y30300980I-32299J-6955D01*
G02X26433380Y30332220I12946J15662D01*
G03X26445200Y30357660I-21221J25326D01*
G01X26445040Y30402620D01*
G03X26433040Y30427980I-33039J-115D01*
G02X26432930Y30459220I12941J15666D01*
G03X26444750Y30484660I-21221J25326D01*
G01X26444590Y30529510D01*
X26537510D01*
X26537680Y30481300D01*
G03X26549680Y30455940I33039J115D01*
G02X26549780Y30424700I-12946J-15662D01*
G03X26537960Y30399260I21221J-25326D01*
G01X26538120Y30354300D01*
G03X26550120Y30328940I33039J115D01*
G02X26550220Y30297700I-12946J-15662D01*
G03X26538400Y30272260I21221J-25326D01*
G01X26538560Y30227300D01*
G03X26571710Y30194380I33038J118D01*
G01X26668110Y30194710D01*
Y30109520D01*
G03X26709510Y29997290I39389J-49221D01*
G02X26729590Y29971030I651J-20310D01*
G03X26728140Y29961230I31587J-9681D01*
G01X26728290Y29917180D01*
X26697760Y29886650D01*
X26471540D01*
G37*
G36*
G01X26515430Y29695160D02*
X26512420Y29699790D01*
G03X26484700Y29714840I-27712J-17988D01*
G01X26445120D01*
G02X26425520Y29740500I6J20320D01*
G03X26427730Y29756630I-60830J16551D01*
G01X26427800Y29766720D01*
X26551080D01*
X26587950Y29729850D01*
G02X26573580Y29695160I-14367J-14370D01*
G01X26515430D01*
G37*
G36*
G01X26788880Y29848390D02*
X26819970Y29848500D01*
Y29687290D01*
G02X26785280Y29672920I-20320J-3D01*
G01X26697720Y29760480D01*
G02X26712090Y29795170I14367J14370D01*
G01X26735660D01*
X26788880Y29848390D01*
G37*
G36*
G01X30080940Y23814430D02*
X30080980Y23802150D01*
X30065960Y23787130D01*
Y23778470D01*
X30031430Y23743940D01*
X29912570D01*
X29853080Y23803430D01*
X29852810Y23880810D01*
G03X29819650Y23913730I-33039J-119D01*
G01X29719570Y23913380D01*
G03X29694870Y23902150I118J-33037D01*
G02X29664430Y23902050I-15264J13414D01*
G03X29639640Y23913110I-24668J-21978D01*
G01X29602440Y23912980D01*
X29547890Y23967540D01*
X29547560Y23971210D01*
G03X29445100Y24028640I-70861J-6308D01*
G02X29415760Y24046840I-9021J18206D01*
G01Y24248440D01*
X29201440Y24462760D01*
X27385270D01*
G03X27270590Y24458000I-56258J-28441D01*
G03X27216050Y24443250I-12557J-61778D01*
G02X27188160Y24444050I-13521J15165D01*
G01X26947630Y24684570D01*
G02X26962000Y24719260I14367J14370D01*
G01X29676910D01*
X29715850Y24758200D01*
G02X29733190Y24751050I7181J-7186D01*
G01X29733220Y24741650D01*
G03X29766380Y24708730I33040J120D01*
G01X29823810Y24708930D01*
Y24458970D01*
G03X29778980Y24367170I70761J-91402D01*
G01X29779740Y24151270D01*
G03X30010920Y24152070I115590J400D01*
G01X30010620Y24237740D01*
G02X30027960Y24244960I10158J35D01*
G01X30033430Y24239490D01*
X30033740Y24152150D01*
G03X30070280Y24068210I115590J394D01*
G01Y23978500D01*
X30069800Y23976990D01*
G03X30068240Y23966830I31478J-10033D01*
G01X30068520Y23886820D01*
G03X30082980Y23859610I33039J110D01*
G01Y23826100D01*
X30082500Y23824590D01*
G03X30080940Y23814430I31478J-10033D01*
G37*
G36*
G01X27165110Y26540900D02*
X27189070Y26540990D01*
Y26395670D01*
X27123210Y26329810D01*
X27116700Y26332980D01*
G03X27027010Y26265380I-27601J-56678D01*
G01X27027170Y26264510D01*
Y26253460D01*
X27004340D01*
X26949190Y26308610D01*
X26965120Y26324540D01*
X26978940D01*
X27070400Y26416000D01*
Y26540570D01*
X27095090Y26540660D01*
G03X27105070Y26542240I-116J33039D01*
G03X27115090Y26540720I9907J31521D01*
G01X27145060Y26540830D01*
G03X27155090Y26542420I-97J33041D01*
G03X27165110Y26540900I9907J31521D01*
G37*
G36*
G01X27230280Y28011930D02*
G03X27180240I-25020J-39800D01*
G03X27155170Y28019140I-25018J-39800D01*
G02X27145000Y28029300I-10J10160D01*
G01Y28079230D01*
X27227700D01*
G02X27246630Y28051510I4J-20321D01*
G03X27243260Y28017570I58708J-22967D01*
G03X27230280Y28011930I12031J-45444D01*
G37*
G36*
G01X27121530Y28165630D02*
G02X27101240Y28184820I-1J20320D01*
G03X27078960Y28229470I-62940J-3523D01*
G01Y28278760D01*
X27139530Y28339330D01*
X27145480Y28337360D01*
G03X27228280Y28399840I19818J59841D01*
G01X27228100Y28404290D01*
X27239390Y28415580D01*
Y28537090D01*
X26975360Y28801110D01*
G02X26976800Y28831160I14368J14371D01*
G03X26932670Y28942710I-40101J48640D01*
G02X26911050Y28962980I-1300J20278D01*
G03X26898520Y29000660I-63040J-40D01*
G03X26905680Y29015160I-52479J34932D01*
G02X26939270Y29022930I19220J-6597D01*
G01X27289740Y28672460D01*
Y28292970D01*
G03X27285750Y28200290I40659J-48176D01*
G02X27271360Y28165630I-14391J-14342D01*
G01X27121530D01*
G37*
G36*
G01X27028350Y28013140D02*
G03X26980340Y28011930I-22987J-41009D01*
G03X26969360Y28016990I-25001J-39809D01*
G02X26963920Y28032280I3041J9695D01*
G03X26974040Y28060880I-52623J34711D01*
G02X26994270Y28079230I20225J-1970D01*
G01X27058600D01*
Y28030860D01*
G02X27028350Y28013140I-20318J5D01*
G37*
G36*
G01X26878050Y28407770D02*
G03X26853590Y28432930I-55644J-29626D01*
G03X26858980Y28472210I-56590J27775D01*
G02X26878960Y28496240I19978J3710D01*
G01X26911760D01*
Y28486080D01*
G03X26931030Y28440730I63041J18D01*
G01X26934140Y28437730D01*
Y28426740D01*
X26910350Y28402950D01*
G02X26878050Y28407770I-14365J14371D01*
G37*
G36*
G01X26852180Y28151530D02*
X26844750Y28158960D01*
X26844520Y28159220D01*
G03X26837660Y28165970I-47514J-41427D01*
G01Y28215260D01*
X26917280Y28294870D01*
G02X26934620Y28287690I7182J-7183D01*
G01Y28263300D01*
G03X26901650Y28189040I27571J-56690D01*
G02X26882130Y28163060I-19516J-5660D01*
G01X26863720D01*
X26852180Y28151530D01*
G37*
G36*
G01X27351570Y28725630D02*
X26906300Y29170900D01*
X26840120D01*
G02X26820320Y29195800I-3J20320D01*
G03X26799560Y29258170I-61420J14196D01*
G01Y29273280D01*
G02X26808920Y29283410I10161J1D01*
G03X26830230Y29290470I-3701J46863D01*
G03X26880270I25020J39800D01*
G03X26930300I25015J39801D01*
G03X26980340I25020J39800D01*
G03X27030260Y29290390I25024J39799D01*
G03X27080160Y29290470I24886J39881D01*
G03X27130200I25020J39800D01*
G03X27164020Y29284090I25020J39800D01*
G02X27188140Y29264130I3801J-19961D01*
G01Y29194670D01*
G03X27265140Y29094990I40661J-48171D01*
G03X27346000Y29191140I36353J51504D01*
G01Y29273110D01*
G02X27356020Y29283260I10158J-7D01*
G03X27380260Y29290390I-658J47007D01*
G03X27430180Y29290470I24896J39879D01*
G03X27480220I25020J39800D01*
G03X27530250I25015J39801D01*
G03X27580290I25020J39800D01*
G03X27630330I25020J39800D01*
G03X27680240Y29290390I25019J39800D01*
G03X27730150Y29290470I24891J39880D01*
G03X27744430Y29284500I25026J39797D01*
G02X27754160Y29250350I-4639J-19783D01*
G01X27744400Y29240590D01*
Y29062790D01*
X27637240Y28955640D01*
X27633220Y28955510D01*
G03X27613210Y28951580I1984J-63009D01*
G01X27611490Y28950940D01*
X27534790D01*
X27386260Y28802410D01*
Y28740000D01*
G02X27351570Y28725630I-20320J-3D01*
G37*
G36*
G01X27244860Y30711160D02*
X27228830Y30727190D01*
G03X27224510Y30730940I-28747J-28753D01*
G01X27223940Y30731370D01*
X27216250Y30739060D01*
X27315880Y30838690D01*
X27326090Y30828470D01*
X27326030Y30824190D01*
G03Y30823680I33042J-255D01*
G01X27326430Y30711160D01*
X27244860D01*
G37*
G36*
G01X28039390Y27683630D02*
X27948770Y27709330D01*
X27850670Y27807430D01*
X27851550Y27812600D01*
G03X27852220Y27820490I-46338J7908D01*
G01Y27972130D01*
G03X27780190Y28011930I-47011J0D01*
G03X27759920Y28018900I-25019J-39800D01*
G01X27750790Y28019830D01*
Y28058090D01*
X27865700D01*
X27867460Y28057410D01*
G03X27884330Y28054280I16867J43881D01*
G01X28035970D01*
G03X28059000Y28060310I-4J47009D01*
G01X28065720Y28064080D01*
X28522560Y27607240D01*
X28523960D01*
G02X28543370Y27580880I6J-20322D01*
G03X28540700Y27566890I60187J-18736D01*
G01X28540370Y27562590D01*
X28525940Y27550620D01*
X28172400D01*
X28039390Y27683630D01*
G37*
G36*
G01X27735220Y28347690D02*
G03X27673530Y28370090I-49215J-39392D01*
G02X27649190Y28390010I-4019J19920D01*
G01Y28728980D01*
G03X27663210Y28811680I-39391J49216D01*
G02X27669400Y28839550I17217J10799D01*
G03X27698210Y28890520I-34197J52957D01*
G01X27698340Y28894540D01*
X27804330Y29000540D01*
G02X27838510Y28990710I14372J-14367D01*
G03X27844530Y28976190I45824J10491D01*
G03Y28926160I39801J-25015D01*
G03Y28876120I39800J-25020D01*
G03X27844450Y28826200I39799J-25024D01*
G03X27844530Y28776300I39881J-24886D01*
G03Y28726260I39800J-25020D01*
G03Y28676220I39800J-25020D01*
G03Y28626180I39800J-25020D01*
G03X27837670Y28606850I39805J-25009D01*
G02X27817500Y28588990I-20172J2461D01*
G01X27786020D01*
G03Y28510210I-49220J-39390D01*
G01X27837150D01*
X27837330Y28500230D01*
G03X27844450Y28476200I47001J857D01*
G03X27844530Y28426280I39879J-24896D01*
G03Y28376240I39800J-25020D01*
G03X27837640Y28356670I39801J-25011D01*
G01X27836590Y28347690D01*
X27735220D01*
G37*
G36*
G01X27375050Y28200290D02*
G03X27371060Y28292970I-44649J44504D01*
G01Y28580440D01*
G02X27405750Y28594810I20321J0D01*
G01X27494200Y28506350D01*
Y28237250D01*
X27483640Y28226690D01*
X27481980Y28225930D01*
G03X27445460Y28174790I26217J-57332D01*
G01X27444560Y28165630D01*
X27389440D01*
G02X27375050Y28200290I1J20318D01*
G37*
G36*
G01X27474460Y28015010D02*
G03X27430180Y28011930I-19264J-42881D01*
G03X27380260Y28012010I-25024J-39799D01*
G03X27367410Y28017570I-24885J-39883D01*
G03X27364050Y28051510I-62072J10991D01*
G02X27382980Y28079230I18926J7399D01*
G01X27472980D01*
X27503100Y28049110D01*
Y28033550D01*
G02X27474460Y28015010I-20321J0D01*
G37*
G36*
G01X27535720Y28630120D02*
X27503140Y28662710D01*
Y28753990D01*
X27516100Y28766960D01*
G02X27549810Y28758830I14370J-14369D01*
G03X27570410Y28728980I59991J19368D01*
G01Y28644490D01*
G02X27535720Y28630120I-20321J0D01*
G37*
G36*
G01X28426120Y30255790D02*
G03X28310350Y30206950I-47681J-48607D01*
G01X28310400Y30191340D01*
X28268620Y30191190D01*
Y29999530D01*
X28260670Y29997750D01*
G03X28234830Y29965390I7198J-32244D01*
G01X28235110Y29885380D01*
G03X28235220Y29882710I33039J24D01*
G01X28235260Y29882280D01*
Y29871690D01*
X27863300D01*
G02X27847940Y29905320I-4J20321D01*
G03X27797660Y30009580I-47643J41278D01*
G01X27793210Y30009400D01*
X27699990Y30102620D01*
Y30204220D01*
X27542830Y30361370D01*
G02X27545260Y30392180I14369J14368D01*
G03X27570880Y30449880I-37062J50994D01*
G02X27591090Y30472360I20206J2159D01*
G01X28335790D01*
X28336620Y30472220D01*
G03X28346400Y30471410I9775J58580D01*
G01X28417330D01*
X28583140Y30305600D01*
G02X28575590Y30272090I-14367J-14369D01*
G03X28550400Y30256210I22838J-64146D01*
G02X28536110Y30256160I-7170J7199D01*
G03X28440400Y30255840I-47693J-48596D01*
G02X28426120Y30255790I-7165J7204D01*
G37*
G36*
G01X27500180Y30103660D02*
Y30104470D01*
G02X27520590Y30124860I20318J72D01*
G03X27562180Y30140260I304J63038D01*
G02X27595810Y30124900I13309J-15356D01*
G01Y30006480D01*
X27661300Y29940990D01*
X27661120Y29936540D01*
G03X27669600Y29902220I62982J-2646D01*
G02X27652030Y29871690I-17569J-10210D01*
G01X27627300D01*
X27547590Y29951400D01*
Y29973580D01*
G03X27509470Y30085830I-39388J49221D01*
G02X27499670Y30097760I202J10156D01*
G03X27500180Y30103660I-32531J5784D01*
G37*
G36*
G01X27688720Y30780480D02*
G03X27713440Y30791730I-115J33037D01*
G01X27716470Y30795170D01*
X27750860Y30795290D01*
X27770830Y30815260D01*
X28016050D01*
X28085460Y30745850D01*
G02X28071090Y30711160I-14366J-14370D01*
G01X27638400D01*
G02X27623980Y30745800I-3J20320D01*
G01X27658310Y30780370D01*
X27688720Y30780480D01*
G37*
G36*
G01X27972810Y23577570D02*
G03X27949690Y23608570I-109006J-57176D01*
G02X27949500Y23637500I14176J14559D01*
G01X28096540Y23784540D01*
X28110280D01*
G02X28124650Y23749850I3J-20320D01*
G01X28077140Y23702340D01*
Y23636780D01*
X28070850Y23634190D01*
G03X28008790Y23577570I46953J-113786D01*
G02X27972810I-17990J9443D01*
G37*
G36*
G01X27986880Y23312580D02*
Y23351360D01*
G03X27948760Y23389480I-38115J5D01*
G01X27909980D01*
Y23406120D01*
X27915840Y23408850D01*
G03X27972810Y23463230I-52039J111550D01*
G02X28008790I17990J-9443D01*
G03X28060630Y23411390I109010J57170D01*
G02Y23375410I-9443J-17990D01*
G03X28006250Y23318440I57170J-109009D01*
G01X28003520Y23312580D01*
X27986880D01*
G37*
G36*
G01X28226810Y23323570D02*
G03X28208120Y23350020I-108996J-57190D01*
G01X28288180Y23430080D01*
G03X28314630Y23411390I83640J90306D01*
G02Y23375410I-9443J-17990D01*
G03X28262790Y23323570I57170J-109010D01*
G02X28226810I-17990J9443D01*
G37*
G36*
G01X28158460Y23636780D02*
Y23668660D01*
X28223540Y23733740D01*
X28300780D01*
G02X28315150Y23699050I3J-20320D01*
G01X28228430Y23612330D01*
G02X28200420Y23611640I-14367J14370D01*
G03X28164750Y23634190I-82637J-91229D01*
G01X28158460Y23636780D01*
G37*
G36*
G01X28585910Y28664190D02*
X28584130Y28661590D01*
G03X28578330Y28642780I27238J-18698D01*
G01X28578760Y28517810D01*
G03X28584450Y28499390I33041J118D01*
G01X28586200Y28496810D01*
Y28249520D01*
X28559740Y28223060D01*
Y28204070D01*
G03X28592340Y28093380I40663J-48170D01*
G02X28599390Y28077510I-1299J-10078D01*
G03X28592150Y28063680I51801J-35928D01*
G03X28573870Y28066050I-17158J-60659D01*
G01X28569550Y28065970D01*
X28540560Y28094960D01*
X28401330D01*
X28304650Y28191640D01*
G02X28318950Y28226320I14373J14362D01*
G01X28432810Y28226720D01*
G03X28465730Y28259880I-119J33039D01*
G01X28465170Y28419900D01*
G03X28432020Y28452820I-33038J-118D01*
G01X28352570Y28452540D01*
G02X28332440Y28476090I-67J20321D01*
G03X28269740Y28549140I-62241J10011D01*
G03X28239590Y28603380I-63039J459D01*
G02X28231340Y28628290I10604J17333D01*
G03X28218960Y28694760I-58500J23492D01*
G02X28219220Y28708890I7428J6931D01*
G03X28229730Y28784380I-44481J44669D01*
G02X28234860Y28810260I17725J9935D01*
G03X28252030Y28831280I-39093J49456D01*
G03X28275220Y28954990I7952J62538D01*
G03X28274570Y28970860I-62810J5376D01*
G02X28294850Y28994560I20034J3383D01*
G03X28277820Y29118080I746J63037D01*
G02X28253050Y29130460I-5735J19495D01*
G03X28238880Y29152670I-59056J-22052D01*
G01X28231790Y29159860D01*
X28246990Y29175060D01*
X28306900D01*
G03X28339940Y29208100I5J33035D01*
G01Y29288100D01*
G03X28339550Y29293200I-33038J38D01*
G02X28359630Y29316660I20075J3140D01*
G01X28512440D01*
X28529590Y29299510D01*
X28456600Y29226530D01*
X28445380D01*
X28436140Y29217290D01*
X28434480Y29216530D01*
G03X28497170Y29107780I26222J-57328D01*
G01X28499810Y29109650D01*
X28505020D01*
X28570250Y29174880D01*
X28611120D01*
G02X28625490Y29140190I3J-20320D01*
G01X28585490Y29100190D01*
Y28811660D01*
X28585910Y28811240D01*
Y28664190D01*
G37*
G36*
G01X28075450Y29225620D02*
G03X28035970Y29298160I-39480J25526D01*
G01X27884330D01*
G03X27867460Y29295030I-3J-47011D01*
G01X27865700Y29294350D01*
X27846090D01*
Y29306930D01*
X27847180Y29309090D01*
G03X27852220Y29330270I-41983J21180D01*
G01Y29461440D01*
X27910460D01*
X28055240Y29316660D01*
X28174170D01*
G02X28194250Y29293200I5J-20320D01*
G03X28193860Y29288100I32648J-5062D01*
G01Y29244110D01*
X28144020Y29194270D01*
X28092510D01*
G02X28075450Y29225620I2J20318D01*
G37*
G36*
G01X28480810Y23577570D02*
G03X28410170Y23637360I-109011J-57168D01*
G02X28402130Y23671030I6333J19307D01*
G01X28426740Y23695640D01*
X28757980D01*
G02X28772350Y23660950I3J-20320D01*
G01X28716060Y23604660D01*
X28708890Y23611220D01*
G03X28516790Y23577570I-83089J-90818D01*
G02X28480810I-17990J9443D01*
G37*
G36*
G01Y23323570D02*
G03X28428970Y23375410I-109010J-57170D01*
G02Y23411390I9443J17990D01*
G03X28480810Y23463230I-57170J109010D01*
G02X28516790I17990J-9443D01*
G03X28568630Y23411390I109010J57170D01*
G02Y23375410I-9443J-17990D01*
G03X28516790Y23323570I57170J-109010D01*
G02X28480810I-17990J9443D01*
G37*
G36*
G01X28734810D02*
G03X28722000Y23343190I-109005J-57178D01*
G01X28803010Y23424200D01*
G03X28822630Y23411390I76798J96195D01*
G02Y23375410I-9443J-17990D01*
G03X28770790Y23323570I57170J-109010D01*
G02X28734810I-17990J9443D01*
G37*
G36*
G01X28565610Y27225410D02*
X28853240Y27513040D01*
G02X28886060Y27507190I14371J-14367D01*
G03X28938470Y27470750I57238J26413D01*
G02X28951280Y27436120I-1561J-20262D01*
G01X28705880Y27190720D01*
X28579980D01*
G02X28565610Y27225410I-3J20320D01*
G37*
G36*
G01X28699220Y28082440D02*
X28718880Y28102090D01*
G02X28736220Y28094910I7182J-7183D01*
G01Y27550540D01*
X28692970Y27507290D01*
G02X28662630Y27509090I-14371J14368D01*
G03X28657580Y27514780I-49588J-38925D01*
G02X28656250Y27527550I7165J7200D01*
G03X28654020Y27599950I-52690J34611D01*
G03X28668590Y27677810I-40921J47951D01*
G03X28631000Y27786930I-42790J46294D01*
G02X28612430Y27805500I1676J20246D01*
G03X28588840Y27849640I-62827J-5203D01*
G02X28587080Y27863740I6325J7949D01*
G03X28596230Y27923210I-50180J38159D01*
G02X28605520Y27947860I19123J6869D01*
G03X28634050Y27980940I-30517J55162D01*
G03X28699220Y28082440I17148J60661D01*
G37*
G36*
G01X29130780Y28763850D02*
X29130500Y28843860D01*
G03X29116990Y28870400I-33039J-110D01*
G01Y28889280D01*
G03X29124400Y28896610I-19240J26860D01*
G01X29412400D01*
X29439450Y28923660D01*
G02X29474140Y28909290I14370J-14366D01*
G01Y28642160D01*
X29448740Y28616760D01*
Y28597770D01*
G03X29491310Y28486590I40663J-48170D01*
G02X29512240Y28466280I610J-20311D01*
G01Y28198130D01*
X29411100Y28096990D01*
X28981300Y28094960D01*
X28868940D01*
X28867520Y28497790D01*
X28869250Y28500370D01*
G03X28874810Y28518840I-27481J18344D01*
G01X28874380Y28643810D01*
G03X28841220Y28676740I-33042J-112D01*
G01X28811250Y28676630D01*
G03X28801240Y28675040I117J-33038D01*
G03X28791240Y28676560I-9906J-31520D01*
G01X28767230Y28676470D01*
Y28845270D01*
X28766810Y28845690D01*
Y29022540D01*
X28775290Y29022590D01*
X28795040Y29042340D01*
X28970950D01*
G02X28988660Y29012060I-3J-20321D01*
G03X28984420Y28995750I28797J-16192D01*
G01X28984700Y28915740D01*
G03X28998210Y28889200I33039J110D01*
G01Y28870320D01*
G03X28984420Y28843350I19248J-26852D01*
G01X28984700Y28763340D01*
G03X29017850Y28730420I33037J117D01*
G01X29097860Y28730700D01*
G03X29130780Y28763850I-117J33037D01*
G37*
G36*
G01X28826020Y29365830D02*
Y29372430D01*
X28783510Y29414940D01*
G02X28783790Y29443960I14366J14373D01*
G03X28793570Y29456000I-43670J45465D01*
G03X28841780Y29572460I22725J58801D01*
G02X28835620Y29605420I8209J18590D01*
G01X28868390Y29638180D01*
Y29655220D01*
X28905630Y29692460D01*
X28983830Y29692740D01*
G03X29011040Y29707200I-110J33039D01*
G01X29028590D01*
G03X29037530Y29698170I27512J18298D01*
G01Y29516060D01*
X29004350Y29515940D01*
G03X28971430Y29482790I117J-33037D01*
G01X28971460Y29473210D01*
X28849270Y29351010D01*
G03X28831870Y29363090I-44140J-45007D01*
G01X28826020Y29365830D01*
G37*
G36*
G01X28970350Y30209250D02*
X28970400Y30193640D01*
X28945130Y30193550D01*
Y30042750D01*
X28901050Y29998660D01*
X28897770Y29998150D01*
G03X28887670Y29994840I5105J-32642D01*
G02X28858000Y30012880I-9349J18042D01*
G01Y30043050D01*
G03X28886890Y30098960I-39199J55674D01*
G01X28886510Y30208950D01*
G03X28787860Y30269560I-68090J-237D01*
G01X28785710Y30268480D01*
X28773140D01*
Y30280900D01*
X28581830Y30472210D01*
G02X28581780Y30486530I7182J7185D01*
G03X28599820Y30526940I-44881J44268D01*
G02X28620100Y30546010I20282J-1250D01*
G01X29200790D01*
X29474140Y30272660D01*
Y29470710D01*
G02X29439450Y29456340I-20320J-4D01*
G01X29409470Y29486320D01*
X29408820Y29489190D01*
G03X29376480Y29514940I-32224J-7288D01*
G01X29296470Y29514660D01*
G03X29269260Y29500200I110J-33039D01*
G01X29252910D01*
X29249860Y29503970D01*
G03X29224060Y29516220I-25679J-20789D01*
G01X29154410Y29515980D01*
Y29698260D01*
G03X29163440Y29707200I-18298J27512D01*
G01X29192950D01*
X29293840Y29808090D01*
Y29973690D01*
X29294480Y29975410D01*
G03X29290360Y30028280I-59080J21992D01*
G02X29293970Y30041960I8855J4979D01*
G03X29326890Y30100500I-35169J58304D01*
G01X29326510Y30210490D01*
G03X29210400Y30258530I-68090J-235D01*
G02X29196120Y30258480I-7165J7200D01*
G03X29100410Y30258130I-47678J-48614D01*
G02X29086130Y30258080I-7165J7204D01*
G03X28970350Y30209250I-47691J-48597D01*
G37*
G36*
G01X28703710Y29986620D02*
G03X28720150Y30007050I-39818J48871D01*
G01X28720890Y30008500D01*
X28766490Y30054100D01*
X28773650Y30047760D01*
G03X28779220Y30043320I45169J50951D01*
G01Y29910640D01*
G02X28744530Y29896270I-20321J-1D01*
G01X28711240Y29929560D01*
X28711110Y29965900D01*
G03X28703710Y29986620I-33036J-117D01*
G37*
G36*
G01X29002890Y23521300D02*
G03X28974640Y23598870I-123089J-898D01*
G02X28990290Y23632140I15655J12952D01*
G01X29112540D01*
X29317100Y23836690D01*
G02X29334440Y23829510I7182J-7183D01*
G01Y23803940D01*
X29037570Y23507080D01*
G02X29002890Y23521300I-14364J14368D01*
G37*
G36*
G01X28981500Y28013640D02*
X29394840Y28015590D01*
G02X29409300Y27980910I91J-20317D01*
G01X29011380Y27582980D01*
G02X28983920Y27581810I-14367J14369D01*
G03X28912580Y27588650I-40620J-48209D01*
G02X28882360Y27606390I-9901J17744D01*
G01Y28013640D01*
X28981500D01*
G37*
G36*
G01X29124320Y29015390D02*
G03X29115690Y29023710I-26868J-19233D01*
G01X29111130Y29026720D01*
Y29042340D01*
X29290340D01*
X29331820Y29083820D01*
G02X29366510Y29069450I14370J-14367D01*
G01Y29018700D01*
X29363200Y29015390D01*
X29124320D01*
G37*
G36*
G01X29132050Y29123660D02*
G02X29117680Y29158350I-3J20320D01*
G01X29169270Y29209940D01*
X29225130Y29210140D01*
G03X29246910Y29218430I-108J33039D01*
G02X29274480Y29217840I13466J-15216D01*
G03X29279110Y29214120I22925J23792D01*
G01X29283640Y29211100D01*
Y29150640D01*
X29256660Y29123660D01*
X29132050D01*
G37*
%LPC*%
G75*
G36*
G01X29651670Y30410440D02*
X29651140Y30560550D01*
G02X29689130Y30598800I38120J130D01*
G01X29839240Y30599330D01*
G02X29877490Y30561340I130J-38120D01*
G01X29878020Y30411230D01*
G02X29840030Y30372980I-38120J-130D01*
G01X29689920Y30372450D01*
G02X29651670Y30410440I-130J38120D01*
G37*
G36*
G01X28424010Y25968380D02*
X28423240Y26188340D01*
G02X28456170Y26221490I33039J111D01*
G01X28636260Y26222120D01*
G02X28669410Y26189200I111J-33039D01*
G01X28670180Y25969240D01*
G02X28637250Y25936090I-33039J-111D01*
G01X28457160Y25935460D01*
G02X28424010Y25968380I-111J33039D01*
G37*
G36*
G01X28157790Y25483840D02*
X28513390Y25128240D01*
X29108400D01*
G02Y24935160I0J-96540D01*
G01X28433410D01*
X28077810Y25290760D01*
X28067000D01*
G02Y25483840I0J96540D01*
G01X28157790D01*
G37*
G36*
G01X27152710Y23176850D02*
G02X26976390Y23176240I-88160J-305D01*
G01X26976190Y23235930D01*
G02X27152510Y23236540I88160J305D01*
G01X27152710Y23176850D01*
G37*
G36*
G01X26060510Y23164150D02*
G02X25884190Y23163540I-88160J-305D01*
G01X25883990Y23223230D01*
G02X26060310Y23223840I88160J305D01*
G01X26060510Y23164150D01*
G37*
G36*
G01X26288710Y23173830D02*
G02X26112390Y23173220I-88160J-305D01*
G01X26112190Y23232910D01*
G02X26288510Y23233520I88160J305D01*
G01X26288710Y23173830D01*
G37*
G36*
G01X25196510Y23161130D02*
G02X25020190Y23160520I-88160J-305D01*
G01X25019990Y23220210D01*
G02X25196310Y23220820I88160J305D01*
G01X25196510Y23161130D01*
G37*
G36*
G01X27379440Y31352200D02*
X27431700Y31404830D01*
X27544120D01*
X27546060Y31406770D01*
X27580450Y31406890D01*
X27583480Y31410330D01*
G02X27608200Y31421580I24835J-21787D01*
G01X27688210Y31421860D01*
G02X27721360Y31388940I113J-33037D01*
G01X27721640Y31308930D01*
G02X27707130Y31281460I-33038J-116D01*
G01X27707140Y31280540D01*
G02X27708000Y31270450I-58532J-10070D01*
G01Y31223670D01*
X27694590Y31210260D01*
Y31187000D01*
X27695100Y31185460D01*
G02X27575300I-59900J-19660D01*
G01X27575810Y31187000D01*
Y31259460D01*
X27586210Y31269860D01*
G03X27585980Y31284450I-7185J7184D01*
G02X27582750Y31287950I22602J24099D01*
G01X27480360D01*
X27462380Y31269850D01*
X27462650Y31194480D01*
G02X27429720Y31161330I-33040J-110D01*
G01X27359620Y31161080D01*
G02X27326470Y31194010I-110J33040D01*
G01X27326030Y31318980D01*
G02X27358960Y31352130I33040J110D01*
G01X27379440Y31352200D01*
G37*
G36*
G01X28815780Y25466140D02*
G02X28755440Y25526480I-62980J-2640D01*
G01X28759890Y25526300D01*
X28878510Y25644920D01*
Y25757770D01*
X29010070Y25890270D01*
X29009870Y25947620D01*
G02X29023050Y25974140I33037J116D01*
G03X29023160Y26006550I-12207J16247D01*
G02X29018350Y26011030I20002J26297D01*
G03X28988710Y26012000I-15274J-13398D01*
G01X28817590Y25840880D01*
Y25715920D01*
G02X28738810I-39390J-49220D01*
G01Y25873520D01*
X28955520Y26090230D01*
G03X28945750Y26124390I-14366J14368D01*
G02X28907120Y26151480I14251J61409D01*
G02X28890520Y26275810I-14620J61321D01*
G01X28894540Y26275940D01*
X29458440Y26839830D01*
Y27182220D01*
X29670560Y27394350D01*
X29668440Y27400380D01*
G02X29864230Y27368010I106776J37531D01*
G01X29862060Y27365240D01*
Y27351570D01*
X29884500D01*
X29925640Y27392710D01*
X29923320Y27398840D01*
G02X29989270Y27332890I105900J39950D01*
G01X29983140Y27335210D01*
X29918180Y27270250D01*
X29892140D01*
G03X29874480Y27239880I1J-20320D01*
G02X29672110Y27139260I-98368J-55976D01*
G03X29639070Y27145610I-18671J-8018D01*
G01X29572780Y27079320D01*
Y26757920D01*
G02X29553770Y26723500I-40666J0D01*
G01X29552800Y26722890D01*
X29257730Y26427820D01*
X29257120Y26426850D01*
G02X29251450Y26419750I-34408J21664D01*
G01X29022950Y26191250D01*
X29023030Y26186930D01*
G02X29021270Y26170950I-63032J-1145D01*
G03X29041730Y26145850I19746J-4793D01*
G02X29042790Y26145870I1153J-33017D01*
G01X29122800Y26146150D01*
G02X29147600Y26135070I115J-33037D01*
G03X29178060Y26135180I15181J13506D01*
G02X29202790Y26146430I24836J-21789D01*
G01X29282800Y26146710D01*
G02X29314890Y26122000I118J-33039D01*
G01X29316870Y26114400D01*
X29650340D01*
G03X29670030Y26139770I7J20321D01*
G02X29738110Y26273200I109622J28151D01*
G01Y26316290D01*
G02X29844090Y26329480I40665J105621D01*
G03X29841450Y26298520I11725J-16592D01*
G01X29909530Y26230430D01*
G03X29940600Y26233230I14366J14371D01*
G02X29941220Y26103490I93051J-64427D01*
G03X29910250Y26106130I-16597J-11726D01*
G01X29842170Y26038050D01*
G03X29844970Y26006970I14365J-14372D01*
G02X29668900Y25895290I-64433J-93050D01*
G03X29634490Y25906310I-20041J-3347D01*
G01X29595950Y25867770D01*
X29317140D01*
X29315150Y25860190D01*
G02X29283310Y25835530I-31957J8376D01*
G01X29203300Y25835250D01*
G02X29178500Y25846330I-115J33037D01*
G03X29148040Y25846220I-15181J-13506D01*
G02X29123310Y25834970I-24836J21789D01*
G01X29065970Y25834760D01*
X28957290Y25725310D01*
Y25612280D01*
X28815600Y25470590D01*
X28815780Y25466140D01*
G37*
G36*
G01X28939670Y28261520D02*
X28939110Y28421540D01*
G02X28972030Y28454700I33039J121D01*
G01X29162020Y28455360D01*
G02X29195170Y28422440I112J-33038D01*
G01X29195730Y28262420D01*
G02X29162810Y28229260I-33039J-121D01*
G01X28972820Y28228600D01*
G02X28939670Y28261520I-112J33038D01*
G37*
G54D58*
X24632840Y25920270D03*
X24631070Y26428260D03*
X24631950Y26174270D03*
X24629290Y26936260D03*
X24627520Y27444260D03*
X24628410Y27190260D03*
X24886840Y25921150D03*
X30034540Y25914800D03*
X29781430Y25659920D03*
X30035420Y25660810D03*
X30032760Y26422800D03*
X29776990Y26929910D03*
X30030990Y26930800D03*
X29777880Y26675910D03*
X30031880Y26676800D03*
X30030100Y27184800D03*
X30026560Y28200790D03*
X29770790Y28707900D03*
X30024780Y28708790D03*
X30025670Y28454790D03*
X30023010Y29216780D03*
X30022120Y29470780D03*
X30021240Y29724780D03*
X30019470Y30232780D03*
X30020350Y29978780D03*
X30018580Y30486780D03*
X24876200Y28969140D03*
G54D59*
X28294960Y31201910D03*
X29094950Y31204700D03*
%LPD*%
G75*
G36*
G01X29316880Y25949090D02*
X29314930Y25956740D01*
G03X29302940Y25974850I-32013J-8170D01*
G02X29303050Y26007260I12317J16163D01*
G03X29315200Y26025450I-19851J26412D01*
G01X29317160Y26033080D01*
X29597200D01*
G02X29611570Y25998390I3J-20320D01*
G01X29562270Y25949090D01*
X29316880D01*
G37*
G54D10*
X24612600Y25298400D03*
G54D11*
X24632840Y25920270D03*
X24633730Y25666270D03*
X24631070Y26428260D03*
X24631950Y26174270D03*
X24629290Y26936260D03*
X24630180Y26682260D03*
X24627520Y27444260D03*
X24628410Y27190260D03*
X24625750Y27952260D03*
X24626630Y27698260D03*
X24623970Y28460250D03*
X24624860Y28206250D03*
X24622200Y28968250D03*
X24623090Y28714250D03*
X24621310Y29222250D03*
X24620430Y29476250D03*
X24618650Y29984240D03*
X24619540Y29730240D03*
X24617770Y30238240D03*
X24866600Y25298400D03*
X24886840Y25921150D03*
X24887720Y25667160D03*
X24885060Y26429150D03*
X24885950Y26175150D03*
X24883290Y26937150D03*
X24884180Y26683150D03*
X24881520Y27445140D03*
X24882400Y27191150D03*
X24879740Y27953140D03*
X24880630Y27699140D03*
X24877970Y28461140D03*
X24878860Y28207140D03*
X24876200Y28969140D03*
X24877080Y28715140D03*
X24874420Y29477130D03*
X24875310Y29223130D03*
X24872650Y29985130D03*
X24873540Y29731130D03*
X24870880Y30493130D03*
X24871770Y30239130D03*
X29780540Y25913920D03*
X29781430Y25659920D03*
X29778770Y26421910D03*
X29779650Y26167920D03*
X29776990Y26929910D03*
X29777880Y26675910D03*
X29775220Y27437910D03*
X29776110Y27183910D03*
X29773450Y27945910D03*
X29774330Y27691910D03*
X29771670Y28453900D03*
X29772560Y28199900D03*
X29769900Y28961900D03*
X29770790Y28707900D03*
X29769010Y29215900D03*
X29768130Y29469900D03*
X29766350Y29977890D03*
X29767240Y29723890D03*
X29765470Y30231890D03*
X30034540Y25914800D03*
X30035420Y25660810D03*
X30032760Y26422800D03*
X30033650Y26168800D03*
X30030990Y26930800D03*
X30031880Y26676800D03*
X30029220Y27438790D03*
X30030100Y27184800D03*
X30027440Y27946790D03*
X30028330Y27692790D03*
X30025670Y28454790D03*
X30026560Y28200790D03*
X30023900Y28962790D03*
X30024780Y28708790D03*
X30022120Y29470780D03*
X30023010Y29216780D03*
X30020350Y29978780D03*
X30021240Y29724780D03*
X30018580Y30486780D03*
X30019470Y30232780D03*
G54D20*
X25240990Y23556140D03*
X25836990Y23558220D03*
X26333190Y23568840D03*
X26929190Y23570920D03*
G54D12*
X24523700Y30073600D03*
X25095200Y24612600D03*
X25059590Y26136830D03*
X24980900Y27762200D03*
X25147560Y27905720D03*
X25120120Y27838400D03*
X25044400Y29476700D03*
X24726900Y29400500D03*
X24765000Y29552900D03*
X24993600Y29984700D03*
X25082500Y29756100D03*
X24745340Y30434940D03*
X25159330Y30314270D03*
X25539700Y23139400D03*
X25603200Y24028400D03*
X25692100Y24714200D03*
X25273000Y25781000D03*
X25552400Y25527000D03*
X25400000Y26339800D03*
X25666700Y27266900D03*
X25623520Y27017980D03*
X25689580Y27180520D03*
X25238120Y27698560D03*
X25183870Y27746960D03*
X25214360Y27619700D03*
X25596340Y27579040D03*
X25628600Y27508200D03*
X25190280Y27819370D03*
X25234900Y28105100D03*
X25224020Y28194470D03*
X25281450Y28239040D03*
X25616380Y28765500D03*
X25628600Y29756100D03*
X25527000Y30060900D03*
X25323800Y29921200D03*
X25665370Y30250070D03*
X25387300Y30340300D03*
X25444450Y30664150D03*
X25209500Y30632400D03*
X25323800Y30657800D03*
X25384700Y30858380D03*
X25247600Y30899100D03*
X25488900D03*
X25539700Y30683200D03*
X25692100Y30886400D03*
X25590500Y30810200D03*
X25311100Y31534100D03*
X25407460Y31452660D03*
X25565100Y31356300D03*
X25616500Y31292800D03*
X25844500Y24028400D03*
X25783480Y23810020D03*
X25730200Y24511000D03*
X25966600Y24490500D03*
X25730200Y24790400D03*
X25793700Y25349200D03*
X25742900Y24866600D03*
X25730200Y26657300D03*
X25793700Y26441400D03*
X26098500Y26784300D03*
X25895300Y26758900D03*
X25755600Y26936700D03*
X26026740Y27118940D03*
X25730200Y27038310D03*
X26003870Y27940000D03*
X25908000Y27889200D03*
X25857200Y27813000D03*
Y27740310D03*
X25869900Y28181300D03*
X25730200Y28194000D03*
X25742900Y28270200D03*
X25984200Y28460700D03*
X25819100Y28333700D03*
X25984200Y28714700D03*
X26035600Y28651680D03*
X26047700Y28765500D03*
X26035000Y28841700D03*
X26040590Y29001210D03*
X26035000Y28917900D03*
X26136600Y28638500D03*
X26047700Y29083000D03*
X26003240Y29356060D03*
X26035000Y29171900D03*
X26047700Y29260800D03*
X25857200Y30010100D03*
X26073100Y29743400D03*
X26162000Y29895800D03*
X26085800Y29832300D03*
X25920700Y30251400D03*
X25742900D03*
X26193740Y30664140D03*
X25901820Y30906350D03*
X25819100Y30708600D03*
X26060400Y30861000D03*
X25999920Y30901330D03*
X26154220Y30859440D03*
X26225500Y30873700D03*
X25926290Y31138880D03*
X25958800Y31203900D03*
X25946100Y30759400D03*
X26263600Y25501600D03*
X26529740Y26962100D03*
X26670000Y26873200D03*
X26770000Y27734480D03*
X26690220Y27763840D03*
X26605310Y27776090D03*
X26250900Y28067000D03*
X26619200Y28092400D03*
X26644600Y28740100D03*
X26758900Y28702000D03*
X26250900Y28601160D03*
X26631900Y28829000D03*
X26619200Y28956000D03*
X26314400Y28651200D03*
X26606500Y29578300D03*
X26758900Y29210000D03*
X26568410Y29248110D03*
X26517600Y29349700D03*
X26364690Y29757060D03*
X26250900Y29857700D03*
X26581100Y30035500D03*
X26619200Y29705300D03*
X26466800Y30010100D03*
X26327100Y29946600D03*
X26707500Y30060300D03*
X26758900Y30111700D03*
X26301700Y30619700D03*
X26758900Y30937200D03*
X26289000Y30784920D03*
X26454100Y30886400D03*
X26408870Y31165820D03*
X26292990Y31153110D03*
X26352500Y31330900D03*
X26847800Y23901400D03*
X27258030Y24396220D03*
X27089100Y26276300D03*
X26847800Y26949400D03*
X27279600Y26962100D03*
X27203400Y26974800D03*
X26805210Y28024410D03*
X26860500Y27736800D03*
X27178000Y28067000D03*
X27127200Y28524200D03*
X27165300Y28397200D03*
X26797000Y28460700D03*
X26822400Y28378150D03*
X26784300Y28295600D03*
X27038300Y28181300D03*
X26911300Y28067000D03*
X26797000Y28117800D03*
X26974800Y28486100D03*
X26962190Y28206610D03*
X27063700Y28435300D03*
X26846050Y28778200D03*
X26848010Y28962940D03*
X26846050Y29035610D03*
X26936700Y28879800D03*
X27063700Y29552900D03*
X27228800Y29146500D03*
X27301490D03*
X26809660Y30048200D03*
X27114500Y29654500D03*
X26826570Y30412870D03*
X26876370Y30359910D03*
X27089100Y30530800D03*
X26949400Y30429200D03*
X27165300Y30543500D03*
X26847800Y30289500D03*
X27101800Y30454600D03*
X27020680Y30443460D03*
X27255300Y30529700D03*
X26835100Y31013400D03*
X27076400Y30822900D03*
X27101800Y31280100D03*
X27038300Y31216600D03*
X27329010Y24434320D03*
X27736800Y25781000D03*
X27622500Y26428700D03*
X27470100Y26962100D03*
X27368500D03*
X27724100Y27305000D03*
X27529920Y27729190D03*
X27355370Y27762630D03*
X27457400Y27724100D03*
X27749500Y27698700D03*
X27655350Y27729350D03*
X27736800Y28143200D03*
X27508200Y28168600D03*
X27330400Y28244800D03*
X27673300Y28194000D03*
X27305340Y28028560D03*
X27800300Y28206700D03*
X27686000Y28308300D03*
X27736800Y28549600D03*
X27635200Y28892500D03*
X27609800Y28778200D03*
X27800300Y29946600D03*
X27487400Y29820440D03*
X27724100Y29933900D03*
X27481050Y29892860D03*
X27499100Y29665450D03*
X27571690Y29654480D03*
X27508200Y30022800D03*
X27503200Y29738400D03*
X27368500Y30048200D03*
X27482800Y30530800D03*
X27520900Y30187900D03*
X27317830Y30492620D03*
X27508200Y30443180D03*
X27635200Y31165800D03*
X28067000Y25387300D03*
X27927300Y27241500D03*
X28083530Y27296130D03*
X28155900Y27889200D03*
X28206700Y28549600D03*
X28270200Y28486100D03*
X28155900Y28422600D03*
X28295600Y29057600D03*
X28120680Y28802160D03*
X28174740Y28753560D03*
X28143200Y29000930D03*
X28117780Y28701310D03*
X28195770Y28859720D03*
X28212410Y28960360D03*
X28259970Y28893820D03*
X28172840Y28651780D03*
X28116320Y28600670D03*
X27927300Y29400500D03*
X28194000Y29108400D03*
X27978100Y30048200D03*
X28041600Y30314900D03*
X28168600Y30746700D03*
X28028900Y30886400D03*
X28765500Y25577800D03*
X28778200Y25666700D03*
X28752800Y25463500D03*
X28892500Y26212800D03*
X28422600Y27419300D03*
X28613100Y27470100D03*
X28384500Y26987500D03*
X28575000Y28003020D03*
X28549600Y27800300D03*
X28603560Y27562160D03*
X28613100Y27647900D03*
X28625800Y27724100D03*
X28498800Y27990800D03*
X28536900Y27901900D03*
X28651200Y28041600D03*
X28600400Y28155900D03*
X28804160Y28955440D03*
X28550160D03*
X28460700Y29159200D03*
X28664050Y29319120D03*
X28805120Y29306010D03*
X28590220Y29301420D03*
X28735040Y29334750D03*
X28679050Y29449920D03*
X28816300Y29514800D03*
X28740100Y29489400D03*
X28486030Y30010100D03*
X28460700Y29832300D03*
X28663900Y30035500D03*
X28536900Y30530800D03*
X28854400Y30353000D03*
X29400500Y25069800D03*
X29108400Y25031700D03*
X28960000Y26185800D03*
X28943300Y27533600D03*
X29235400Y29997400D03*
X29400500Y30060900D03*
X29514800Y23622000D03*
X29476700Y23964900D03*
X29578300Y24650700D03*
X29489400Y28549600D03*
X29629100Y28511500D03*
X29895800Y30010100D03*
X29984700Y24015700D03*
X30124400Y24561800D03*
G54D30*
X26294080Y27546300D03*
G54D21*
X25552990Y24163200D03*
X25551810Y24503200D03*
X25845090Y24150500D03*
X25843910Y24490500D03*
G54D13*
X24616880Y30492240D03*
X29764580Y30485890D03*
G54D40*
X28294960Y31201910D03*
X29094950Y31204700D03*
G54D31*
X26605310Y27896310D03*
X26655350D03*
X26705390D03*
X26755170D03*
Y29406090D03*
X26705390D03*
X26655350D03*
X26605310D03*
X27055150Y27896310D03*
X27105180D03*
X27155220D03*
X27205260D03*
X27255300D03*
X26805210D03*
X26855250D03*
X26905290D03*
X26955320D03*
X27005360D03*
X27255300Y29406090D03*
X27205260D03*
X27155220D03*
X27105180D03*
X27055150D03*
X27005360D03*
X26955320D03*
X26905290D03*
X26855250D03*
X26805210D03*
X27305340Y27896310D03*
X27355370D03*
X27405160D03*
X27455200D03*
X27505230D03*
X27555270D03*
X27605310D03*
X27655350D03*
X27705130D03*
X27755170D03*
X27805210D03*
Y29406090D03*
X27755170D03*
X27705130D03*
X27655350D03*
X27605310D03*
X27555270D03*
X27505230D03*
X27455200D03*
X27405160D03*
X27355370D03*
X27305340D03*
G54D22*
X25383900Y24698790D03*
X25383730Y24748770D03*
X25383550Y24798780D03*
X25383380Y24848770D03*
X25383200Y24898780D03*
X25873770Y24800500D03*
X25873940Y24750490D03*
X25874120Y24700500D03*
X25873590Y24850490D03*
X25873420Y24900490D03*
G54D50*
G01X25567910Y30123070D02*
Y30101810D01*
X25527000Y30060900D01*
G01X25323800Y29921200D02*
X25298400Y29895800D01*
G01X25724420Y30230770D02*
X25742900Y30249250D01*
G01X25471150Y30772530D02*
X25384700Y30858380D01*
G01X25509380Y31015500D02*
X25509060Y31107050D01*
X25508920Y31107190D01*
Y31145790D01*
X25435400Y31219310D01*
Y31423770D01*
X25407460Y31451710D01*
Y31452660D01*
G01X25742900Y30249250D02*
Y30251400D01*
G01X26059360Y31017420D02*
X26059040Y31108970D01*
G01D02*
Y31211700D01*
X26114740Y31267400D01*
X26441410D01*
X26552930Y31155880D01*
X26553020Y31130390D01*
X26606500Y31076910D01*
Y30859590D01*
X26588510Y30841600D01*
X26588750Y30772530D01*
G01X26352500Y31330900D02*
X25891740D01*
X25859040Y31298200D01*
Y31108270D01*
X25859360Y31016720D01*
G01X26758900Y30937200D02*
Y31038810D01*
X26844930Y31124840D01*
Y31397260D01*
X26807450Y31434500D01*
X26398640Y31433060D01*
X25908560D01*
X25809380Y31333880D01*
Y31016550D01*
G01X26835100Y31013400D02*
Y30920360D01*
X26688150Y30772870D01*
X26657920D01*
X26657820Y30772770D01*
X26588750Y30772530D01*
G01X27076400Y30822900D02*
X27120140D01*
X27140460Y30802580D01*
G01X27038300Y31216600D02*
Y31401790D01*
X27152040Y31516320D01*
G54D14*
X25108250Y23190670D03*
X26200450Y23203370D03*
X25972250Y23193690D03*
X27064450Y23206390D03*
G54D32*
X26450370Y28051250D03*
Y28501090D03*
Y28451300D03*
Y28401260D03*
Y28351230D03*
Y28301190D03*
Y28251150D03*
Y28201110D03*
Y28151330D03*
Y28101290D03*
Y29051250D03*
Y29001210D03*
Y28951170D03*
Y28901140D03*
Y28851100D03*
Y28801310D03*
Y28751280D03*
Y28701240D03*
Y28651200D03*
Y28601160D03*
Y28551120D03*
Y29251150D03*
Y29201110D03*
Y29151070D03*
Y29101290D03*
X27960150Y28051250D03*
Y28101290D03*
Y28151330D03*
Y28201110D03*
Y28251150D03*
Y28301190D03*
Y28351230D03*
Y28401260D03*
Y28451300D03*
Y28501090D03*
Y28551120D03*
Y28601160D03*
Y28651200D03*
Y28701240D03*
Y28751280D03*
Y28801310D03*
Y28851100D03*
Y28901140D03*
Y28951170D03*
Y29001210D03*
Y29051250D03*
Y29101290D03*
Y29151070D03*
Y29201110D03*
Y29251150D03*
G54D23*
X25205060Y25349200D03*
X25365060D03*
X26136600Y27389580D03*
Y27549600D03*
X25975950Y28092400D03*
X25815950D03*
X26771600Y27402280D03*
Y27562300D03*
X26284680Y29641800D03*
X26444700D03*
X26924000Y27403300D03*
Y27563320D03*
X27533600Y27403300D03*
X27719780Y27419300D03*
X27533600Y27563320D03*
X27719650Y27571700D03*
X27879800Y27419300D03*
X27879650Y27571700D03*
X28266900Y29248100D03*
X28426920D03*
G54D41*
X28378630Y30152190D03*
X28488610Y30152570D03*
X28598620Y30152950D03*
X28708630Y30153340D03*
X28818610Y30153720D03*
X28928620Y30154110D03*
X29038630Y30154490D03*
X29148630Y30154870D03*
X29258610Y30155260D03*
G54D51*
G01X25205060Y25349200D02*
X25128860Y25425400D01*
X24676100D01*
X24612600Y25361900D01*
Y25298400D01*
G01X25059590Y26136830D02*
X24993600Y26202820D01*
Y26500200D01*
X24937650Y26556150D01*
X24756290D01*
X24630180Y26682260D01*
G01X24523700Y30073600D02*
X24523270Y30073170D01*
Y29944730D01*
X24523700Y29944300D01*
Y27874720D01*
X24573160Y27825260D01*
X24689240D01*
X24815360Y27699140D01*
X24880630D01*
G01X27329760Y26639540D02*
Y26326460D01*
X27178000Y26174700D01*
X26949400D01*
X26865580Y26258520D01*
X25684480D01*
X25288440Y26654560D01*
Y27848370D01*
X25031710Y28105100D01*
X24828500D01*
X24751860Y28181740D01*
Y28332360D01*
X24623970Y28460250D01*
G01X24622200Y28968250D02*
Y28876760D01*
X24750080Y28748880D01*
Y28437520D01*
X24821840Y28365760D01*
X24858520D01*
X25344320Y27879960D01*
Y26677720D01*
X25707640Y26314400D01*
X26897480D01*
X26948280Y26365200D01*
X26962100D01*
X27029740Y26432840D01*
Y26638490D01*
G01X25044400Y29476700D02*
X25031700D01*
X25006780Y29501620D01*
Y29768320D01*
X24916970Y29858130D01*
X24744760D01*
X24618650Y29984240D01*
G01X25224020Y28194470D02*
X25222200D01*
X25209970Y28206700D01*
X25196800D01*
X25135840Y28267660D01*
Y29145380D01*
X24917120Y29364100D01*
X24852200D01*
X24715810Y29500490D01*
Y29515760D01*
X24714200Y29517370D01*
Y29692600D01*
X24676560Y29730240D01*
X24619540D01*
G01X25478740Y23812500D02*
X25168510D01*
X24816070Y24164940D01*
G01X25133570D02*
X25133300Y24164670D01*
Y24104600D01*
X25349200Y23888700D01*
X26568400D01*
G01X24968470Y24164940D02*
X25282810Y23850600D01*
X25590500D01*
X25613480Y23827620D01*
Y23701940D01*
G01X25120120Y27838400D02*
X25077420Y27795700D01*
Y26306780D01*
X26073100Y25311100D01*
Y24663400D01*
X26022300Y24612600D01*
X25285700D01*
X25133010Y24459910D01*
Y24324940D01*
G01X25383380Y24848770D02*
X25388510Y24853900D01*
X25488900D01*
X25501600Y24866600D01*
Y24930100D01*
X25459870Y24971830D01*
X25276630D01*
X24815510Y24510710D01*
Y24324940D01*
G01X25383200Y24898780D02*
X25377280Y24904700D01*
X25273000D01*
X24967910Y24599610D01*
Y24324940D01*
G01X28117800Y23520400D02*
Y23685500D01*
X28206700Y23774400D01*
X29057600D01*
X29270960Y23987760D01*
Y24183340D01*
X29146500Y24307800D01*
X27216100D01*
X25161240Y26362660D01*
Y27637740D01*
X25218980Y27695480D01*
X25235040D01*
X25238120Y27698560D01*
G01X24980900Y27762200D02*
X25019000Y27724100D01*
Y26514320D01*
X25021540Y26511780D01*
Y26261060D01*
X25996900Y25285700D01*
Y24905370D01*
X25957020Y24865220D01*
X25888070Y24864970D01*
X25873590Y24850490D01*
G01X25873770Y24800500D02*
X25968900D01*
X26035000Y24866600D01*
Y25287120D01*
X25049480Y26272640D01*
Y26523360D01*
X25046940Y26525900D01*
Y27853640D01*
X25082020Y27888720D01*
X25119640D01*
X25132820Y27901900D01*
X25143740D01*
X25147560Y27905720D01*
G01X25183870Y27746960D02*
X25133300Y27696390D01*
Y26339800D01*
X27203400Y24269700D01*
X29121100D01*
X29235400Y24155400D01*
Y24015700D01*
X29044900Y23825200D01*
X28079700D01*
X27863800Y23609300D01*
Y23520400D01*
G01X25190280Y27819370D02*
X25172250D01*
X25105360Y27752480D01*
Y26318360D01*
X26111200Y25312520D01*
Y24523700D01*
X25912440Y24324940D01*
X25298110D01*
G01X25234900Y28105100D02*
X25107900Y28232100D01*
Y29133800D01*
X24905540Y29336160D01*
X24816040D01*
X24751700Y29400500D01*
X24726900D01*
G01X27279750Y26639370D02*
Y26352650D01*
X27139900Y26212800D01*
X26987500D01*
X26913840Y26286460D01*
X25696060D01*
X25316380Y26666140D01*
Y27859950D01*
X25043280Y28133050D01*
X25041850D01*
X24980900Y28194000D01*
X24892000D01*
X24878860Y28207140D01*
G01X24877080Y28715140D02*
X24973350Y28618870D01*
Y28421630D01*
X24917480Y28365760D01*
Y28346320D01*
X25372260Y27891540D01*
Y26689300D01*
X25719220Y26342340D01*
X26885900D01*
X26979760Y26436200D01*
Y26638320D01*
G01X24874420Y29477130D02*
X25171400Y29180150D01*
Y28333700D01*
X25266060Y28239040D01*
X25281450D01*
G01X24745340Y30434940D02*
Y30112440D01*
X24872650Y29985130D01*
G01X25082500Y29756100D02*
X24993600Y29845000D01*
Y29984700D01*
G01X25159330Y30314270D02*
X25349130Y30504070D01*
X25566580D01*
G01X25463460Y23701420D02*
X25463500Y23701460D01*
Y23797260D01*
X25478740Y23812500D01*
G01D02*
X25552400D01*
X25563460Y23801440D01*
Y23701770D01*
G01X25513480Y23701590D02*
X25514300Y23700770D01*
Y23561040D01*
X25529540Y23545800D01*
X25577800D01*
X25613480Y23581480D01*
Y23701940D01*
G01X25298670Y24164940D02*
Y23990020D01*
X25361890Y23926800D01*
X26670000D01*
X26705680Y23891120D01*
Y23714640D01*
G01X25214360Y27619700D02*
X25189180Y27594520D01*
Y26385520D01*
X27228800Y24345900D01*
X29159200D01*
X29298900Y24206200D01*
Y23952200D01*
X29083000Y23736300D01*
X28409900D01*
X28244800Y23571200D01*
Y23444200D01*
X28117800Y23317200D01*
Y23266400D01*
G01X25970080Y30211880D02*
X25717500Y29959300D01*
Y29629100D01*
X25567640Y29479240D01*
Y29479230D01*
X25565100Y29476690D01*
Y28115940D01*
X25692100Y27988940D01*
Y27279600D01*
X25679400D01*
X25666700Y27266900D01*
G01X25623520Y27017980D02*
Y27043300D01*
X25750520Y27170300D01*
Y27192960D01*
X25750320Y27249640D01*
Y28009760D01*
X25623520Y28136560D01*
Y28382260D01*
X25696420Y28455160D01*
Y29418940D01*
X25951180Y29673700D01*
Y29936140D01*
X26085800Y30070760D01*
G01X26053620Y30078100D02*
X25923240Y29947720D01*
Y29685280D01*
X25668480Y29430520D01*
Y29427680D01*
X25666700Y29425900D01*
Y28464960D01*
X25595580Y28393840D01*
Y28124980D01*
X25722380Y27998180D01*
Y27213320D01*
X25689580Y27180520D01*
G01X25539700Y29954220D02*
Y29490820D01*
X25537160Y29488280D01*
Y28104360D01*
X25654000Y27987520D01*
Y27533600D01*
X25628600Y27508200D01*
G01X26162000Y30492700D02*
Y30060900D01*
X26012140Y29911040D01*
Y29644340D01*
X25755600Y29387800D01*
Y28435300D01*
X25679400Y28359100D01*
Y28196540D01*
X25694640Y28181300D01*
X25717500D01*
X25730200Y28194000D01*
G01X26126440Y30363160D02*
Y30071880D01*
X25984200Y29929640D01*
Y29667200D01*
X25724360Y29407360D01*
Y28443580D01*
X25651460Y28370680D01*
Y28148140D01*
X25778260Y28021340D01*
Y27249690D01*
X25778460Y27193010D01*
Y27112220D01*
X25742900Y27076400D01*
Y27051010D01*
X25730200Y27038310D01*
G01X26000380Y30064380D02*
X25895300Y29959300D01*
Y29705300D01*
X25628600Y29438600D01*
Y28777720D01*
X25616380Y28765500D01*
G01X25567020Y30377070D02*
X25436770D01*
X25435590Y30375890D01*
X25422890D01*
X25387300Y30340300D01*
G01X26924000Y30689500D02*
X26965860Y30647640D01*
X27171840D01*
X27204860Y30614620D01*
X29229200D01*
X29552900Y30290920D01*
Y28181290D01*
X29428020Y28056410D01*
X28981400Y28054300D01*
X28841700D01*
G01X26949400Y30703620D02*
X26977440Y30675580D01*
X27183420D01*
X27216440Y30642560D01*
X29249220D01*
X29591000Y30300780D01*
Y29194540D01*
X29769900Y29015640D01*
Y28961900D01*
G01X30023900Y28962790D02*
X29897790Y29088900D01*
X29736160D01*
X29638470Y29186590D01*
Y30292830D01*
X29260800Y30670500D01*
X27228020D01*
X27200080Y30698440D01*
G01X25730200Y24790400D02*
X25863670D01*
X25873770Y24800500D01*
G01X25742900Y24866600D02*
X25744890Y24864630D01*
X25859450D01*
X25873590Y24850490D01*
G01X25755600Y26936700D02*
Y26974800D01*
X25781000Y27000200D01*
Y27066900D01*
X25806400Y27092300D01*
Y27193060D01*
X25806240Y27238650D01*
X25806400Y27238820D01*
Y27940000D01*
X25958800Y28092400D01*
X25975950D01*
G01X26026740Y27190990D02*
Y27118940D01*
G01X26003870Y27940000D02*
X26060400Y27996530D01*
Y28244800D01*
X26116790Y28301190D01*
X26450370D01*
G01X25908000Y27889200D02*
X26047700D01*
X26098500Y27940000D01*
Y28219400D01*
X26130250Y28251150D01*
X26450370D01*
G01X25857200Y27813000D02*
X26035000D01*
X26136600Y27914600D01*
Y28181300D01*
X26156410Y28201110D01*
X26450370D01*
G01X25857200Y27740310D02*
Y27749500D01*
X25869900Y27762200D01*
X26060400D01*
X26174700Y27876500D01*
Y28130500D01*
X26195530Y28151330D01*
X26450370D01*
G01Y28401260D02*
X26102560D01*
X25933400Y28232100D01*
X25806400D01*
X25768300Y28194000D01*
X25730200D01*
G01X26450370Y28451300D02*
X26103220D01*
X25957680Y28305760D01*
X25956260D01*
X25920700Y28270200D01*
X25742900D01*
G01X26450370Y28551120D02*
X26298180D01*
X26297900Y28550840D01*
X26074340D01*
X25984200Y28460700D01*
G01X26450370Y28501090D02*
X26113490D01*
X25946100Y28333700D01*
X25819100D01*
G01X25975950Y28092400D02*
Y28152730D01*
X25958800Y28169880D01*
Y28194000D01*
X26116030Y28351230D01*
X26450370D01*
G01X25984200Y28714700D02*
X25996900Y28702000D01*
X26073100D01*
X26172410Y28801310D01*
X26450370D01*
G01X26035600Y28651680D02*
X26047820Y28663900D01*
X26085800D01*
X26173180Y28751280D01*
X26450370D01*
G01X26047700Y28765500D02*
X26133300Y28851100D01*
X26450370D01*
G01X26035000Y28841700D02*
X26094440Y28901140D01*
X26450370D01*
G01Y29001210D02*
X26040590D01*
G01X26450370Y28951170D02*
X26068270D01*
X26035000Y28917900D01*
G01X26450370Y28701240D02*
X26335520D01*
X26335240Y28701520D01*
X26293560D01*
X26293280Y28701240D01*
X26246130D01*
X26245500Y28701870D01*
X26203820D01*
X26203190Y28701240D01*
X26199340D01*
X26136600Y28638500D01*
G01X26450370Y29051250D02*
X26079450D01*
X26047700Y29083000D01*
G01X26003240Y29356060D02*
X26024210Y29377030D01*
G01X26450370Y29101290D02*
X26105610D01*
X26035000Y29171900D01*
G01X26450370Y29151070D02*
X26157430D01*
X26047700Y29260800D01*
G01X26085800Y29832300D02*
X26110720Y29807380D01*
X26280840D01*
X26318940Y29845480D01*
X26401320D01*
X26439420Y29807380D01*
X26567920D01*
X26619680Y29755620D01*
X26645080D01*
X26805210Y29595490D01*
Y29406090D01*
G01X26885900Y30683200D02*
X26949400Y30619700D01*
X27160260D01*
X27193290Y30586670D01*
X29217630D01*
X29514800Y30289500D01*
Y28625320D01*
X29489400Y28599920D01*
Y28549600D01*
G01X26605680Y23714290D02*
X26606500Y23713470D01*
Y23571200D01*
X26631900Y23545800D01*
X26682700D01*
X26705680Y23568780D01*
Y23714640D01*
G01X26555660Y23714120D02*
X26555700Y23714160D01*
Y23876000D01*
X26568400Y23888700D01*
G01D02*
X26644600D01*
X26655660Y23877640D01*
Y23714470D01*
G01X26579760Y26636920D02*
Y26782960D01*
X26670000Y26873200D01*
G01X26770000Y27734480D02*
X26761220D01*
X26746200Y27749500D01*
Y27779020D01*
X26705390Y27819830D01*
Y27896310D01*
G01X26690220Y27763840D02*
X26685040Y27758660D01*
X26673540D01*
X26655630Y27776570D01*
Y27896030D01*
X26655350Y27896310D01*
G01X26605310D02*
Y27776090D01*
G01X26450370Y28301190D02*
X26455960Y28295600D01*
X26631900D01*
X26714450Y28378150D01*
X26822400D01*
G01X26784300Y28295600D02*
X26739850Y28251150D01*
X26450370D01*
G01Y28651200D02*
X26581100D01*
X26695400Y28536900D01*
X27033260D01*
X27114900Y28455260D01*
Y28372200D01*
X27038300Y28295600D01*
Y28181300D01*
G01X26644600Y28740100D02*
X26720800D01*
X26758900Y28702000D01*
G01X26250900Y28601160D02*
X26251180Y28600880D01*
X26335240D01*
X26335520Y28601160D01*
X26450370D01*
G01X27127200Y28524200D02*
X26936700Y28714700D01*
X26827890D01*
X26789790Y28752800D01*
X26771600D01*
X26695400Y28829000D01*
X26631900D01*
G01X26450370Y28651200D02*
X26314400D01*
G01X26705390Y29406090D02*
Y29490890D01*
X26708310Y29493810D01*
Y29578090D01*
X26631900Y29654500D01*
X26457400D01*
X26444700Y29641800D01*
G01X26568410Y29248110D02*
X26460020Y29260800D01*
X26450370Y29251150D01*
G01X27330400Y28244800D02*
Y28689300D01*
X26889460Y29130240D01*
X26749760D01*
X26618730Y29261270D01*
Y29268950D01*
X26589250Y29298430D01*
X26581570D01*
X26530300Y29349700D01*
X26517600D01*
G01X26466800Y30010100D02*
Y30200600D01*
X26414550Y30252850D01*
X26362480D01*
G01X26758900Y30111700D02*
Y30267730D01*
X26648680Y30377170D01*
X26621120Y30377070D01*
G01X27258030Y24396220D02*
X27270250Y24384000D01*
X29171900D01*
X29337000Y24218900D01*
Y23914100D01*
X29095700Y23672800D01*
X28841700D01*
X28752800Y23583900D01*
Y23431500D01*
X28625800Y23304500D01*
Y23266400D01*
G01X27229730Y26639190D02*
Y26378830D01*
X27127200Y26276300D01*
X27089100D01*
G01X27179750Y26639020D02*
Y26773350D01*
X27368500Y26962100D01*
G01X29772560Y28199900D02*
X28722720Y27150060D01*
X27124660D01*
X26779760Y26805160D01*
Y26637620D01*
G01X26829740Y26637800D02*
Y26804340D01*
X27139900Y27114500D01*
X28752800D01*
X29711200Y28072900D01*
X29901330D01*
X30027440Y27946790D01*
G01X29773450Y27945910D02*
X29754840Y27927300D01*
X29629100D01*
X28778200Y27076400D01*
X27165300D01*
X26879760Y26790860D01*
Y26637970D01*
G01X26929740Y26638150D02*
Y26777340D01*
X27190700Y27038300D01*
X28841700D01*
X29622310Y27818910D01*
X29902210D01*
X30028330Y27692790D01*
G01X27079760Y26638670D02*
Y26851160D01*
X27203400Y26974800D01*
G01X27279600Y26962100D02*
X27266900D01*
X27129730Y26824930D01*
Y26638840D01*
G01X27927300Y27241500D02*
X27863800Y27178000D01*
X27101800D01*
X26873200Y26949400D01*
X26847800D01*
G01X26805210Y27896310D02*
Y28024410D01*
G01X26860500Y27736800D02*
X26840400D01*
X26755170Y27822030D01*
Y27896310D01*
G01X26905290D02*
Y28060990D01*
X26911300Y28067000D01*
G01X27719650Y27571700D02*
X27654100Y27637250D01*
X27493450D01*
X27457400Y27673300D01*
X27343100D01*
X27255300Y27761100D01*
Y27896310D01*
G01X26797000Y28117800D02*
Y28232100D01*
X26974800Y28409900D01*
Y28486100D01*
G01X26962190Y28206610D02*
Y28206790D01*
X26975280Y28219880D01*
Y28346880D01*
X27063700Y28435300D01*
G01X26758900Y29210000D02*
Y29402360D01*
X26755170Y29406090D01*
G01X26826570Y30412870D02*
X26894570D01*
X26955320Y30352120D01*
Y29406090D01*
G01X26905290D02*
Y30346310D01*
X26891690Y30359910D01*
X26876370D01*
G01X27089100Y30530800D02*
X27101800D01*
X27164820Y30467780D01*
Y29558490D01*
X27146460Y29540130D01*
Y29493040D01*
X27164820Y29474680D01*
Y29415690D01*
X27155220Y29406090D01*
G01X27005360D02*
X27012900Y29413630D01*
Y30365700D01*
X26949400Y30429200D01*
G01X27165300Y30543500D02*
X27205260Y30503540D01*
Y29406090D01*
G01X26847800Y30289500D02*
X26859980Y30277320D01*
Y29971620D01*
X26861480Y29970120D01*
X26861820Y29873260D01*
X26860630Y29872060D01*
Y29411470D01*
X26855250Y29406090D01*
G01X27063700Y29552900D02*
Y30400440D01*
X27020680Y30443460D01*
G01X27255300Y29406090D02*
Y30445840D01*
X27255020Y30446120D01*
Y30487800D01*
X27255300Y30488080D01*
Y30529700D01*
G01X27228800Y29146500D02*
Y29305310D01*
X27255300Y29331810D01*
Y29406090D01*
G01X27114500Y29654500D02*
Y30441900D01*
X27101800Y30454600D01*
G01X27329010Y24434320D02*
X27341230Y24422100D01*
X29184600D01*
X29375100Y24231600D01*
Y23787100D01*
X28879800Y23291800D01*
Y23266400D01*
G01X27470100Y26962100D02*
X27508200Y27000200D01*
X28371800D01*
X28384500Y26987500D01*
G01X27719650Y27571700D02*
Y27419430D01*
X27719780Y27419300D01*
G01X27724100Y27305000D02*
Y27414980D01*
X27719780Y27419300D01*
G01X27305340Y27896310D02*
Y28028560D01*
G01X27805210Y27896310D02*
Y27795390D01*
X27927500Y27673100D01*
X28018120Y27647400D01*
X28155560Y27509960D01*
X28540600D01*
X28603560Y27562160D01*
G01X27529920Y27729190D02*
X27523440D01*
X27508200Y27744430D01*
Y27749500D01*
X27455200Y27802500D01*
Y27896310D01*
G01X27755170D02*
Y27807330D01*
X27777270Y27785230D01*
Y27783810D01*
X27912880Y27648200D01*
X27960440Y27634710D01*
X28003500Y27622500D01*
X28143980Y27482020D01*
X28601180D01*
X28613100Y27470100D01*
G01X27355370Y27896310D02*
Y27762630D01*
G01X27457400Y27724100D02*
X27444700D01*
X27405690Y27763110D01*
Y27783470D01*
X27405160Y27784000D01*
Y27896310D01*
G01X27705130D02*
Y27743070D01*
X27749500Y27698700D01*
G01X27655350Y27896310D02*
Y27729350D01*
G01X27369760Y27587950D02*
X27508970D01*
X27533600Y27563320D01*
G01X27673300Y28194000D02*
X27749500Y28270200D01*
X27807960D01*
X27827010Y28251150D01*
X27960150D01*
G01X27800300Y28206700D02*
X27954560D01*
X27960150Y28201110D01*
G01X27755170Y29406090D02*
Y29480370D01*
X27804850Y29530050D01*
X27950150D01*
X28094940Y29385260D01*
X28577540D01*
X28643680Y29319120D01*
X28664050D01*
G01X27655350Y29406090D02*
Y29509550D01*
X27734260Y29588460D01*
X28004620D01*
X28131620Y29461460D01*
X28133040D01*
X28143200Y29451300D01*
X28606510D01*
X28658210Y29399600D01*
X28664800D01*
X28667020Y29397380D01*
X28743570D01*
X28785360Y29355590D01*
Y29329850D01*
X28805120Y29310090D01*
Y29306010D01*
G01X27805210Y29406090D02*
Y29481610D01*
X27825700Y29502100D01*
X27927300D01*
X28072080Y29357320D01*
X28529280D01*
X28575000Y29311600D01*
X28580040D01*
X28590220Y29301420D01*
G01X28735040Y29334750D02*
X28719580D01*
X28684890Y29369440D01*
X28645580D01*
X28601820Y29413200D01*
X28130500D01*
X27983180Y29560520D01*
X27745840D01*
X27705130Y29519810D01*
Y29406090D01*
G01X28679050Y29449920D02*
Y29461550D01*
X28651200Y29489400D01*
X28143200D01*
X28016200Y29616400D01*
X27722680D01*
X27605310Y29499030D01*
Y29406090D01*
G01X28816300Y29514800D02*
X28778200Y29552900D01*
X28168600D01*
X28042870Y29678630D01*
X27668080D01*
X27505230Y29515780D01*
Y29406090D01*
G01X27368500Y30048200D02*
Y29946600D01*
X27405160Y29909940D01*
Y29406090D01*
G01X28740100Y29489400D02*
X28712160Y29517340D01*
X28166060D01*
X28158440Y29524960D01*
X28157020D01*
X28031290Y29650690D01*
X27694890D01*
X27555270Y29511070D01*
Y29406090D01*
G01X27305340D02*
Y29755760D01*
X27289750Y29771350D01*
Y30464540D01*
X27317830Y30492620D01*
G01X27301490Y29146500D02*
Y29168390D01*
X27305340Y29172240D01*
Y29406090D01*
G01X27355370D02*
Y29769230D01*
X27317700Y29806900D01*
Y30416500D01*
X27344380Y30443180D01*
X27508200D01*
G01X27520900Y30187900D02*
X27444700D01*
X27417020Y30160220D01*
Y30125850D01*
G01X28841700Y28054300D02*
Y27559000D01*
X28524200Y27241500D01*
X27927300D01*
G01X28776590Y28580980D02*
X28776880Y28498170D01*
Y27533700D01*
X28522780Y27279600D01*
X28100060D01*
X28083530Y27296130D01*
G01X28549600Y27800300D02*
X28487520D01*
X28058770Y28229050D01*
X28058070D01*
X28035970Y28251150D01*
X27960150D01*
G01X28613100Y27647900D02*
X28539400D01*
X28035970Y28151330D01*
X27960150D01*
G01X28625800Y27724100D02*
X28512980D01*
X28035970Y28201110D01*
X27960150D01*
G01Y28301190D02*
X28034590D01*
X28372920Y27962860D01*
X28374340D01*
X28435300Y27901900D01*
X28536900D01*
G01X28575000Y28003020D02*
X28523720Y28054300D01*
X28384490D01*
X28061790Y28377000D01*
X28060230D01*
X28035970Y28401260D01*
X27960150D01*
G01X28498800Y27990800D02*
X28394860D01*
X28060230Y28325430D01*
Y28326970D01*
X28035970Y28351230D01*
X27960150D01*
G01X28270200Y28486100D02*
X28194000D01*
X28179010Y28501090D01*
X27960150D01*
G01X28155900Y28422600D02*
X28105580D01*
X28076880Y28451300D01*
X27960150D01*
G01Y29051250D02*
X28070260D01*
X28076610Y29057600D01*
X28295600D01*
G01X28206700Y28549600D02*
X28137910D01*
X28137160Y28550350D01*
X28095480D01*
X28094710Y28551120D01*
X27960150D01*
G01X28120680Y28802160D02*
X28119830Y28801310D01*
X27960150D01*
G01X28174740Y28753560D02*
X28163080D01*
X28161360Y28751840D01*
X28096960D01*
X28096400Y28751280D01*
X27960150D01*
G01Y29001210D02*
X28135490D01*
X28135770Y29000930D01*
X28143200D01*
G01X28117780Y28701310D02*
X28104410D01*
X28104340Y28701240D01*
X27960150D01*
G01X28195770Y28859720D02*
X28188530Y28852480D01*
X28099840D01*
X28098460Y28851100D01*
X27960150D01*
G01Y28951170D02*
X28121800D01*
X28122360Y28950610D01*
X28164040D01*
X28164600Y28951170D01*
X28203220D01*
X28212410Y28960360D01*
G01X28259970Y28893820D02*
X28243750Y28910040D01*
X28174930D01*
X28166030Y28901140D01*
X27960150D01*
G01Y28651200D02*
X28096730D01*
X28096940Y28650990D01*
X28138620D01*
X28138840Y28651200D01*
X28172260D01*
X28172840Y28651780D01*
G01X27960150Y28601160D02*
X28115830D01*
X28116320Y28600670D01*
G01X27960150Y29101290D02*
X28186890D01*
X28194000Y29108400D01*
G01X28826570Y28581160D02*
X28828420Y28054300D01*
X28841700D01*
G01X28676590Y28580630D02*
Y28117310D01*
X28651200Y28091920D01*
Y28041600D01*
G01X28600400Y28155900D02*
Y28206220D01*
X28626860Y28232680D01*
Y28497650D01*
X28626570Y28580460D01*
G01X29337290Y29281760D02*
X29324300Y29268770D01*
Y29133800D01*
X29273500Y29083000D01*
X28778200D01*
X28758360Y29063160D01*
X28752470Y29063130D01*
X28726150Y29036730D01*
Y28828850D01*
X28726570Y28828430D01*
Y28580810D01*
G01X29184870Y29283040D02*
X29022930Y29121100D01*
X28740100D01*
X28676170Y29057170D01*
Y28828670D01*
X28676590Y28828250D01*
Y28580630D01*
G01X29045170Y29283040D02*
X28921330Y29159200D01*
X28702000D01*
X28626150Y29083350D01*
Y28828500D01*
X28626570Y28828080D01*
Y28580460D01*
G01X29243050Y25908430D02*
X29579110D01*
X29719650Y26048970D01*
X29795590D01*
X29883100Y26136480D01*
Y26199360D01*
X29778770Y26303690D01*
Y26421910D01*
G01X29779650Y26167920D02*
X29685470Y26073740D01*
X29303380D01*
X29243050Y26073530D01*
G01X30029220Y27438790D02*
X29901340Y27310910D01*
X29746870D01*
X29532120Y27096160D01*
Y26757920D01*
G01X29222700Y26448500D02*
X28960000Y26185800D01*
G01X29629100Y28511500D02*
Y28143200D01*
X29006800Y27520900D01*
X28956000D01*
X28943300Y27533600D01*
G54D42*
X29398440Y30205760D03*
G54D33*
X27139640Y27403040D03*
Y27587950D03*
X27369760Y27403040D03*
Y27587950D03*
G54D15*
X25106790Y23608680D03*
X26198990Y23621380D03*
X25970790Y23611700D03*
X27062990Y23624400D03*
G54D24*
X25567910Y30123070D03*
X25566580Y30504070D03*
X25567020Y30377070D03*
X25567460Y30250070D03*
X26362920Y30125850D03*
X26622010Y30123070D03*
X26362480Y30252850D03*
X26362040Y30379850D03*
X26361590Y30506850D03*
X26620680Y30504070D03*
X26621120Y30377070D03*
X26621560Y30250070D03*
X27417020Y30125850D03*
X27416580Y30252850D03*
X27416140Y30379850D03*
X27415690Y30506850D03*
G54D52*
G01X25511000Y25069520D02*
X24523980D01*
X24472900Y25120600D01*
Y25760330D01*
G01X25365060Y25349200D02*
X25361900Y25352360D01*
Y25438100D01*
X25298400Y25501600D01*
X24790400D01*
X24633730Y25658270D01*
Y25666270D01*
G01X24472900Y25760330D02*
X24632840Y25920270D01*
G01X25488900Y23177500D02*
Y23202900D01*
X25273000Y23418800D01*
X25095200D01*
X24930100Y23583900D01*
Y23723600D01*
X24980900Y23774400D01*
X25120600D01*
X25194450Y23700550D01*
X25215970D01*
G01X25539700Y23139400D02*
X25527000D01*
X25488900Y23177500D01*
G01D02*
X25527000D01*
X25781000Y23431500D01*
X26047700D01*
G01X25293460Y23700820D02*
X25310420Y23683860D01*
X25310680Y23612580D01*
X25321760Y23601570D01*
Y23522440D01*
X25387300Y23456900D01*
X25621440D01*
X25783480Y23618940D01*
Y23702530D01*
G01X25603200Y24028400D02*
Y24112990D01*
X25552990Y24163200D01*
G01X25365060Y25349200D02*
X25793700D01*
G01X25438100Y30099000D02*
Y30120710D01*
X25567460Y30250070D01*
G01X25793700Y26441400D02*
X25731340D01*
X25425400Y26747340D01*
Y27631460D01*
X25463500Y27669560D01*
Y27927300D01*
X25349550Y28041250D01*
Y28267250D01*
X25349200Y28267600D01*
Y28282900D01*
X25298400Y28333700D01*
G01X25567460Y30250070D02*
X25665370D01*
G01X27139900Y23461960D02*
X26941760D01*
X26822400Y23342600D01*
X26530300D01*
X26441400Y23431500D01*
X26047700D01*
G01D02*
X26098500Y23482300D01*
Y23815770D01*
G01D02*
X25911270D01*
G01X25783480Y23702530D02*
Y23810020D01*
G01X26098500Y23815770D02*
X26257370D01*
X26308170Y23764970D01*
Y23713250D01*
G01X25844500Y24028400D02*
Y24149910D01*
X25845090Y24150500D01*
G01X25787350Y26600150D02*
X25895300Y26492200D01*
X26593800D01*
X26631900Y26454100D01*
G01X26136600Y27389580D02*
X26758900D01*
G01X25857200Y30010100D02*
X25793700Y29946600D01*
Y29917160D01*
X25785320Y29908780D01*
G01X26250900Y29857700D02*
Y30367150D01*
X26238200Y30379850D01*
G01X26385660Y23713520D02*
Y23630600D01*
X26413960Y23602300D01*
Y23595600D01*
X26552660Y23456900D01*
X26758900D01*
X26809700Y23507700D01*
Y23565660D01*
X26875680Y23631640D01*
Y23715230D01*
G01X26263600Y25501600D02*
Y25488900D01*
G01X26771600Y27203960D02*
X26529740Y26962100D01*
G01X26771600Y27402280D02*
Y27410920D01*
X26924000Y27563320D01*
G01X27369760Y27403040D02*
Y27395160D01*
X27203400Y27228800D01*
X26796440D01*
X26771600Y27203960D01*
G01X26758900Y27389580D02*
X26771600Y27402280D01*
G01Y27562300D02*
X26630120D01*
X26614120Y27546300D01*
G01X26952670Y23715500D02*
Y23816730D01*
X26973840Y23837900D01*
X27101800D01*
X27190700Y23749000D01*
Y23512760D01*
X27139900Y23461960D01*
G01D02*
X27338040D01*
X27406600Y23393400D01*
Y23164800D01*
X27495500Y23075900D01*
X28282900D01*
G01X26875680Y23715230D02*
Y23873520D01*
X26847800Y23901400D01*
G01X26771600Y27402280D02*
Y27266900D01*
G01Y27203960D02*
Y27266900D01*
G01X26924000Y27563320D02*
X27115010D01*
X27139640Y27587950D01*
G01X27320500Y31179240D02*
X27398820Y31100920D01*
X27426150D01*
X27488360Y31039140D01*
X27488460Y31011700D01*
G01X27139900Y31356300D02*
X27152600D01*
G01D02*
Y31360360D01*
X27135580Y31377380D01*
G01X27533600Y27403300D02*
Y27241500D01*
X27538200Y27236900D01*
X27795700D01*
X27879800Y27321000D01*
Y27419300D01*
G01X27533600Y27403300D02*
X27370020D01*
X27369760Y27403040D01*
G01X27508200Y28168600D02*
X27552640Y28213040D01*
Y28530560D01*
X27444700Y28638500D01*
Y28778200D01*
X27559000Y28892500D01*
X27635200D01*
G01X27415690Y30506850D02*
X27458850D01*
X27482800Y30530800D01*
G01D02*
X27439640D01*
X27415690Y30506850D01*
G01X28346400Y30530800D02*
X27482800D01*
G01X27648460Y30853380D02*
X27557400Y30761690D01*
X27467490D01*
X27394340Y30761430D01*
G01X27648610Y31270450D02*
X27648730Y31270570D01*
X27648460Y31348680D01*
G01X27759320Y30886400D02*
X27726570Y30853650D01*
X27648460Y30853380D01*
G01X27647900Y31508700D02*
X27803890D01*
X27805110Y31160190D01*
G01D02*
X27923220Y31160600D01*
X28146620Y30937200D01*
X29212940D01*
X29395250Y31120780D01*
X29395090Y31165740D01*
G01X27488460Y31011700D02*
X27490160Y31013400D01*
X27647900D01*
G01X27648460Y31348680D02*
X27570350Y31348410D01*
X27568330Y31346390D01*
X27456030D01*
X27394240Y31284170D01*
X27394340Y31256730D01*
G01X27488460Y31507000D02*
X27568360D01*
X27569790Y31508430D01*
X27647900Y31508700D01*
G01X29514800Y23622000D02*
X28968700Y23075900D01*
X28282900D01*
G01D02*
X28333700Y23126700D01*
G01D02*
Y23228300D01*
X28371800Y23266400D01*
G01X27879800Y27419300D02*
X28422600D01*
G01X28168600Y29311600D02*
X28016200D01*
X27927300Y29400500D01*
G01X28308570Y29765640D02*
X28460970D01*
G01X27978100Y30048200D02*
X27898980D01*
X27898450Y30200520D01*
G01D02*
X28041600Y30201010D01*
Y30314900D01*
G01X28371800Y23266400D02*
Y23520400D01*
G01X28460700Y29159200D02*
X28469590Y29168090D01*
X28480810D01*
X28546040Y29233320D01*
X28865020D01*
X28917900Y29286200D01*
Y29337000D01*
X29023940Y29443040D01*
X29044610D01*
G01X28708630Y30153340D02*
X28702450Y30159520D01*
G01X28440590Y30530800D02*
X28714700Y30256690D01*
Y30171770D01*
X28702450Y30159520D01*
G01X28854400Y30353000D02*
X28927920D01*
G01X29184310Y29443040D02*
X29044610D01*
G01X29095970Y29765640D02*
Y29494400D01*
X29044610Y29443040D01*
G01X29336730Y29441760D02*
X29185590D01*
X29184310Y29443040D01*
G01X29095970Y29765640D02*
X29168740D01*
X29235400Y29832300D01*
Y29997400D01*
G01X29108110Y29753500D02*
X29095970Y29765640D01*
G01X28943570D02*
X29095970D01*
G01X29398440Y30205760D02*
X29362970Y30170290D01*
Y30098430D01*
X29400500Y30060900D01*
G01X28927920Y30353000D02*
X29275280D01*
X29398350Y30230780D01*
X29398440Y30205760D01*
G01X28927920Y30353000D02*
X28928620Y30154110D01*
G01X29513200Y31166150D02*
X29395090Y31165740D01*
G01X29640950Y24258730D02*
X29692600Y24207080D01*
Y23990300D01*
X29756380Y23926520D01*
X29981400D01*
G01X29651200Y25120320D02*
Y25272720D01*
X29638500Y25285420D01*
G01X29895800Y30010100D02*
Y30783550D01*
X29513200Y31166150D01*
G01X29981400Y23926520D02*
Y23786820D01*
X29994100Y23774120D01*
G01X29984700Y24015700D02*
Y23929820D01*
X29981400Y23926520D01*
G54D43*
X29589910Y23824910D03*
X29769920Y23825530D03*
G54D25*
X25359160Y31014970D03*
X25409380Y31015150D03*
X25459370Y31015320D03*
X25509380Y31015500D03*
X25559370Y31015670D03*
X25609380Y31015850D03*
X25659360Y31016020D03*
X25809380Y31016550D03*
X25859360Y31016720D03*
X25909380Y31016890D03*
X25959360Y31017070D03*
X26009380Y31017240D03*
X26059360Y31017420D03*
X26109380Y31017590D03*
X26159360Y31017770D03*
X26209380Y31017940D03*
X25709380Y31016200D03*
X25759360Y31016370D03*
X26259360Y31018120D03*
X26309380Y31018290D03*
X26359360Y31018470D03*
X26409380Y31018640D03*
X26459360Y31018810D03*
X26509370Y31018990D03*
X28826570Y28581160D03*
X28776590Y28580980D03*
X28726570Y28580810D03*
X28676590Y28580630D03*
X28626570Y28580460D03*
X28576590Y28580280D03*
G54D34*
X27298460Y31011040D03*
Y31506340D03*
X27394340Y30761430D03*
X27488460Y31011700D03*
X27394340Y31256730D03*
X27488460Y31507000D03*
G54D16*
X25133010Y24324940D03*
X25133570Y24164940D03*
X24815510Y24324940D03*
X24816070Y24164940D03*
X24967910Y24324940D03*
X24968470Y24164940D03*
X25298110Y24324940D03*
X25298670Y24164940D03*
X25671020Y25070080D03*
X25511000Y25069520D03*
X25625300Y29908220D03*
X25697150Y30771670D03*
X25311150Y30771970D03*
X25471150Y30772530D03*
X26026740Y27190990D03*
X25866740Y27190430D03*
X25785320Y29908780D03*
X25857150Y30772230D03*
X26200050D03*
X26040050Y30771670D03*
X26416290Y26894160D03*
X26415730Y27054160D03*
X26641300Y29920920D03*
X26428750Y30771970D03*
X26588750Y30772530D03*
X26801320Y29921480D03*
X27139900Y30962600D03*
X27140460Y30802580D03*
X27152600Y31356300D03*
X27152040Y31516320D03*
X27647900Y31013400D03*
X27648460Y30853380D03*
X27647900Y31508700D03*
X27648460Y31348680D03*
X28308010Y29925640D03*
X28308570Y29765640D03*
X28897580Y28955440D03*
Y28803040D03*
X28460410Y29925640D03*
X28460970Y29765640D03*
X28638210Y29925640D03*
X28638770Y29765640D03*
X29248100Y25615900D03*
X29088080Y25615340D03*
X29248100Y25438100D03*
X29088080Y25437540D03*
X29083050Y25907870D03*
X29243050Y25908430D03*
X29083050Y26072970D03*
X29243050Y26073530D03*
X29057600Y28956000D03*
Y28803600D03*
X29337290Y29281760D03*
X29336730Y29441760D03*
X29184310Y29443040D03*
X29184870Y29283040D03*
X29044610Y29443040D03*
X29045170Y29283040D03*
X29095410Y29925640D03*
X29095970Y29765640D03*
X28943010Y29925640D03*
X28943570Y29765640D03*
X29798520Y25285980D03*
X29638500Y25285420D03*
X29811220Y25120880D03*
X29651200Y25120320D03*
X30154120Y23774680D03*
X29994100Y23774120D03*
X30141420Y23927080D03*
X29981400Y23926520D03*
G54D53*
G01X25911270Y23815770D02*
X25860470Y23764970D01*
Y23702800D01*
G01X27101800Y31280100D02*
Y31250750D01*
X27107350Y31245200D01*
Y31188000D01*
X27101800Y31182450D01*
Y31140390D01*
X27139900Y31102290D01*
Y30962600D01*
G01X27298460Y31011040D02*
X27302710Y31006790D01*
Y30909510D01*
X27195780Y30802580D01*
X27140460D01*
G01X27101800Y31280100D02*
X27219640D01*
X27320500Y31179240D01*
G01X27152600Y31356300D02*
X27305000D01*
X27365370Y31416670D01*
X27426100D01*
X27488560Y31479560D01*
X27488460Y31507000D01*
G01X27152040Y31516320D02*
X27288480D01*
X27298460Y31506340D01*
G01X28440590Y30530800D02*
X28346400D01*
G01X27635200Y31165800D02*
Y31234860D01*
X27648610Y31248270D01*
Y31270450D01*
G01X28168600Y30746700D02*
X28028900Y30886400D01*
G01X28897580Y28955440D02*
X28804160D01*
G01X28550160D02*
X28498240D01*
X28474910Y28932110D01*
G01X28708630Y30153340D02*
Y30080230D01*
X28663900Y30035500D01*
G01X28536900Y30530800D02*
X28440590D01*
G01X29638500Y25285420D02*
X29126860D01*
X29088480Y25323800D01*
X29088080Y25437540D01*
G01X29248100Y25615900D02*
Y25438100D01*
G01X29798520Y25285980D02*
Y25347960D01*
X29708380Y25438100D01*
X29248100D01*
G01X29088080Y25615340D02*
Y25437540D01*
G01X29057600Y28803600D02*
Y28956000D01*
G01X29336730Y29441760D02*
X29339890Y29438600D01*
X29373200D01*
X29425900Y29385900D01*
Y28994100D01*
X29387800Y28956000D01*
X29057600D01*
G01X28897580Y28955440D02*
Y28803040D01*
G54D35*
X27863800Y23266400D03*
G54D26*
X26166720Y26070480D03*
X28546710Y26078790D03*
G54D44*
X29640950Y24258730D03*
X29894950Y24259620D03*
X30148950Y24260500D03*
G54D17*
X25168490Y31266660D03*
X26698480Y31272000D03*
G54D54*
G01X24632840Y25796930D02*
Y25920270D01*
G01D02*
Y26043610D01*
G01X24509500Y25920270D02*
X24632840D01*
G01X24886840Y25797810D02*
Y25921150D01*
G01D02*
Y26044490D01*
G01X24763500Y25921150D02*
X24886840D01*
G54D36*
X27863800Y23520400D03*
X28117800Y23266400D03*
X28371800D03*
X28117800Y23520400D03*
X28371800D03*
X28625800Y23266400D03*
X28879800D03*
Y23520400D03*
X28625800D03*
G54D45*
X29892820Y24869210D03*
G54D18*
X25215970Y23700550D03*
X25293460Y23700820D03*
X25860470Y23702800D03*
X25783480Y23702530D03*
X26308170Y23713250D03*
X26385660Y23713520D03*
X26952670Y23715500D03*
X26875680Y23715230D03*
G54D27*
X26121860Y26937140D03*
X25872250Y26841260D03*
X25871590Y27031260D03*
G54D55*
G01X25031700Y30200600D02*
X25133300Y30099000D01*
X25146000D01*
X25298400Y29946600D01*
Y29895800D01*
G01X25843910Y24490500D02*
X25775510Y24422100D01*
X25628600D01*
X25551810Y24498890D01*
Y24503200D01*
G01X25742900Y26644600D02*
X25730200Y26657300D01*
G01D02*
X25515540Y26871960D01*
Y27612510D01*
X25527000Y27623970D01*
Y27625290D01*
X25552400Y27650690D01*
Y27952700D01*
X25438100Y28067000D01*
Y30073600D01*
G01X25298400Y28333700D02*
Y29895800D01*
G01X25843910Y24490500D02*
X25966600D01*
G01X25742900Y26644600D02*
X25787350Y26600150D01*
G01X28028900Y30886400D02*
X27759320D01*
G01X30154120Y23774680D02*
X30137100Y23757660D01*
Y23749000D01*
X30060900Y23672800D01*
X29883100D01*
X29769920Y23785980D01*
Y23825530D01*
G01X29894950Y24259620D02*
Y24867080D01*
X29892820Y24869210D01*
G01X29476700Y23964900D02*
Y23938120D01*
X29589910Y23824910D01*
G01X29892820Y25039280D02*
X29811220Y25120880D01*
G01D02*
Y25273280D01*
X29798520Y25285980D01*
G01X30154120Y23774680D02*
Y23914380D01*
X30141420Y23927080D01*
G01D02*
Y24252970D01*
X30148950Y24260500D01*
G54D46*
G01X25568790Y30251400D02*
X25567460Y30250070D01*
G01X26450370Y28051250D02*
X26362150D01*
X26301700Y27990800D01*
Y27838400D01*
X26047700Y27584400D01*
Y27324260D01*
X26133530Y27238430D01*
Y27136830D01*
X26009600Y27012900D01*
Y26708100D01*
X25946100Y26644600D01*
X25742900D01*
G01X26364690Y29757060D02*
Y29578810D01*
X26416000Y29527500D01*
X26582540D01*
X26584600Y29525440D01*
X26595860D01*
X26605310Y29515990D01*
Y29406090D01*
G01X27081480Y28122430D02*
X26928640D01*
X26926070Y28119860D01*
X26881610D01*
X26858260Y28096510D01*
Y27899320D01*
X26855250Y27896310D01*
G01X27081480Y28122430D02*
X27101800Y28102110D01*
Y27899690D01*
X27105180Y27896310D01*
G01X27490870Y28122430D02*
X27081480D01*
G01X27605310Y27896310D02*
Y27753610D01*
X27582780Y27731080D01*
Y27693620D01*
X27603100Y27673300D01*
X27700140D01*
X27727600Y27645840D01*
X27805510D01*
X27879650Y27571700D01*
G01X27555270Y27896310D02*
X27546300Y27905280D01*
Y28067000D01*
X27520900Y28092400D01*
G01X27605310Y27896310D02*
X27609800Y27900800D01*
Y28067000D01*
X27584400Y28092400D01*
X27520900D01*
G01X27655350Y27729350D02*
X27629430D01*
G01X27960150Y28101290D02*
X27778710D01*
X27736800Y28143200D01*
G01X27520900Y28092400D02*
X27490870Y28122430D01*
G01X27508200Y28168600D02*
Y28139760D01*
X27490870Y28122430D01*
G01X27635200Y28892500D02*
X27787600Y29044900D01*
Y29222700D01*
X27816050Y29251150D01*
X27960150D01*
G01Y29151070D02*
X28161910D01*
X28258940Y29248100D01*
X28266900D01*
G01X28168600Y29311600D02*
X28409900D01*
G01X27960150Y29201110D02*
X27963960Y29197300D01*
X28054300D01*
X28168600Y29311600D01*
G01X28426920Y29248100D02*
X28370740Y29191920D01*
Y29036280D01*
X28474910Y28932110D01*
G01D02*
X28576590Y28830430D01*
Y28580280D01*
G01X28409900Y29311600D02*
X28426920Y29294580D01*
Y29248100D01*
G01X28460700Y29832300D02*
Y29765910D01*
X28460970Y29765640D01*
G01X28638770D02*
Y29832030D01*
X28608200Y29862600D01*
X28582800D01*
X28523300Y29922100D01*
X28523110Y29975340D01*
X28509670Y29988680D01*
X28507450D01*
X28486030Y30010100D01*
G01X28702450Y30159520D02*
X28663900D01*
G01X29775220Y27437910D02*
X29501640Y27164330D01*
Y26821940D01*
X28892500Y26212800D01*
G54D37*
X27898450Y30200520D03*
G54D19*
X25412470Y23699740D03*
X25513480Y23701590D03*
X25563460Y23701770D03*
X25663460Y23702110D03*
X25613480Y23701940D03*
X25463460Y23701420D03*
X25363460Y23701070D03*
X25713480Y23702290D03*
X26504670Y23712440D03*
X26605680Y23714290D03*
X26655660Y23714470D03*
X26755660Y23714810D03*
X26705680Y23714640D03*
X26555660Y23714120D03*
X26455660Y23713770D03*
X26805680Y23714990D03*
G54D28*
X26379760Y26636230D03*
X26429740Y26636400D03*
X26479760Y26636570D03*
X26529740Y26636750D03*
X26579760Y26636920D03*
X26629740Y26637100D03*
X26679760Y26637270D03*
X26729740Y26637450D03*
X26829740Y26637800D03*
X26879760Y26637970D03*
X26929740Y26638150D03*
X26979760Y26638320D03*
X27029740Y26638490D03*
X27079760Y26638670D03*
X27129730Y26638840D03*
X27179750Y26639020D03*
X27229730Y26639190D03*
X27279750Y26639370D03*
X26779760Y26637620D03*
X27329760Y26639540D03*
X27379750Y26639720D03*
X27429730Y26639890D03*
X27479750Y26640060D03*
X27529760Y26640240D03*
X27579740Y26640410D03*
X27629730Y26640590D03*
X27679740Y26640760D03*
X27729730Y26640940D03*
X27779740Y26641110D03*
X27829730Y26641290D03*
X27879740Y26641460D03*
X27929760Y26641640D03*
X27979740Y26641810D03*
X28029760Y26641980D03*
X28079740Y26642160D03*
X28129760Y26642330D03*
X28179740Y26642510D03*
X28229760Y26642680D03*
X28279740Y26642860D03*
X28329760Y26643030D03*
G54D56*
G01X25031700Y30873700D02*
Y30200600D01*
G01X25247600Y30899100D02*
X25057100D01*
X25031700Y30873700D01*
G01X25311100Y31534100D02*
Y31516480D01*
X25308010Y31513390D01*
Y31411460D01*
X25348830Y31370640D01*
Y31165430D01*
X25313030Y31129630D01*
Y31128910D01*
X25287310Y31103020D01*
X25286410Y31103010D01*
X25057100Y30873700D01*
X25031700D01*
G01X27135580Y31377380D02*
X27101800Y31343600D01*
Y31280100D01*
G54D47*
G01X24765000Y29552900D02*
X24777710D01*
X24873540Y29648730D01*
Y29731130D01*
G01X25444450Y30664150D02*
X25511900Y30596700D01*
X25651510D01*
X25651530Y30596690D01*
X25651590D01*
X25838820Y30411010D01*
X25840690D01*
X25871170Y30380530D01*
Y30378930D01*
X25970080Y30280840D01*
Y30211880D01*
G01X26085800Y30070760D02*
X26085810Y30070770D01*
Y30352990D01*
X25770050Y30668750D01*
Y30808450D01*
X25692100Y30886400D01*
G01X25590500Y30810200D02*
Y30708600D01*
X25641300Y30657800D01*
X25740730D01*
X26060410Y30338120D01*
Y30084890D01*
X26053620Y30078100D01*
G01X25209500Y30632400D02*
X25296090Y30545810D01*
X25630610D01*
X25819100Y30358940D01*
Y30238700D01*
X25572910Y29992510D01*
X25534660Y29992350D01*
X25501600Y29959290D01*
Y28092400D01*
X25615900Y27978100D01*
Y27609800D01*
X25596340Y27590240D01*
Y27579040D01*
G01X25323800Y30657800D02*
X25387300Y30594300D01*
X25410360Y30571250D01*
X25641100D01*
X25828320Y30385610D01*
X25830160D01*
X25845770Y30370000D01*
Y30227650D01*
X25585260Y29967140D01*
X25552500Y29967020D01*
X25539700Y29954220D01*
G01X26154220Y30859440D02*
X26119520Y30824740D01*
Y30649480D01*
X26162000Y30607000D01*
Y30492700D01*
G01X25946100Y30759400D02*
Y30543500D01*
X26126440Y30363160D01*
G01X25539700Y30683200D02*
X25590500Y30632400D01*
X25730200D01*
X26035000Y30327600D01*
Y30099000D01*
X26000380Y30064380D01*
G01X25609380Y31015850D02*
X25609100Y31097400D01*
Y31175890D01*
X25507500Y31269890D01*
Y31387600D01*
X25615900Y31496000D01*
X26860490D01*
X26921450Y31435040D01*
Y30692050D01*
X26924000Y30689500D01*
G01X25488900Y30899100D02*
X25603200D01*
X25643470Y30858830D01*
Y30824970D01*
X25697150Y30771670D01*
G01X25559370Y31015670D02*
X25559090Y31097220D01*
Y31159250D01*
X25470800Y31249560D01*
Y31414400D01*
X25577800Y31521400D01*
X26873210D01*
X26949400Y31445210D01*
Y30703620D01*
G01X25565100Y31356300D02*
Y31259680D01*
X25658820Y31173080D01*
Y31097830D01*
X25659080Y31097570D01*
X25659360Y31016020D01*
G01X27200080Y30698440D02*
X27197540Y30700980D01*
X27195750D01*
X27194480Y30702250D01*
X27005760D01*
X26974800Y30733210D01*
Y31455740D01*
X26883740Y31546800D01*
X25412700D01*
X25358410Y31492510D01*
Y31432340D01*
X25400000Y31390750D01*
Y31203900D01*
X25459060Y31144840D01*
Y31096900D01*
X25459090Y31096870D01*
X25459370Y31015320D01*
G01X25616500Y31292800D02*
X25708740Y31200560D01*
Y31098110D01*
X25709100Y31097750D01*
X25709380Y31016200D01*
G01X26136600Y27549600D02*
X26290780D01*
X26294080Y27546300D01*
G01X26024210Y29377030D02*
X26045770D01*
X26225500Y29197300D01*
X26446560D01*
X26450370Y29201110D01*
G01X26193740Y30664140D02*
Y29976600D01*
X26162000Y29944860D01*
Y29895800D01*
G01X25819100Y30708600D02*
Y30734180D01*
X25857150Y30772230D01*
G01X25901820Y30906350D02*
X25907960D01*
X25920660Y30919050D01*
Y30923470D01*
X25943670Y30946620D01*
Y31006400D01*
X25959360Y31017070D01*
G01X26060400Y30861000D02*
X26095100Y30895700D01*
X26119120D01*
X26159640Y30936220D01*
X26159360Y31017770D01*
G01X25759360Y31016370D02*
X25759080Y31097920D01*
Y31347080D01*
X25882580Y31470580D01*
X26061210D01*
X26061830Y31469960D01*
X26822000D01*
X26822360Y31469610D01*
X26835780D01*
X26885900Y31419800D01*
Y30683200D01*
G01X26289000Y30784920D02*
X26250900D01*
X26238350Y30772370D01*
X26200050Y30772230D01*
G01X25999920Y30901330D02*
X26010390Y30911800D01*
X26073100D01*
X26109380Y30948080D01*
Y31017590D01*
G01X26225500Y30873700D02*
X26209380Y30889820D01*
Y31017940D01*
G01X25926290Y31138880D02*
X25919180D01*
X25909100Y31128800D01*
Y31098440D01*
X25909380Y31016890D01*
G01X25958800Y31203900D02*
X26008950Y31153750D01*
Y31098940D01*
X26009100Y31098790D01*
X26009380Y31017240D01*
G01X26955320Y27896310D02*
Y27755420D01*
X26873200Y27673300D01*
X26365200D01*
X26294080Y27602180D01*
Y27546300D01*
G01X27005360Y27896310D02*
Y27767360D01*
X26885900Y27647900D01*
X26568400D01*
X26555700Y27635200D01*
Y27604720D01*
X26614120Y27546300D01*
G01X26605310Y27896310D02*
X26606500Y27897500D01*
Y27990800D01*
X26619200Y28003500D01*
Y28092400D01*
G01X26797000Y28460700D02*
X26784300Y28448000D01*
X26453670D01*
X26450370Y28451300D01*
G01X27165300Y28397200D02*
X27200000Y28431900D01*
Y28520770D01*
X26890020Y28830750D01*
X26827160D01*
X26701910Y28956000D01*
X26619200D01*
G01X26846050Y28778200D02*
X26844780Y28779470D01*
X26795730D01*
X26682700Y28892500D01*
X26459010D01*
X26450370Y28901140D01*
G01X26848010Y28962940D02*
X26790050D01*
X26651700Y29101290D01*
X26450370D01*
G01Y29051250D02*
X26456720Y29044900D01*
X26648940D01*
X26826740Y28867100D01*
X26924000D01*
X26936700Y28879800D01*
G01X26846050Y29035610D02*
X26793590D01*
X26682700Y29146500D01*
X26563790D01*
X26559220Y29151070D01*
X26450370D01*
G01X26362920Y30125850D02*
Y29982420D01*
X26327100Y29946600D01*
G01X26707500Y30060300D02*
Y30233470D01*
X26690660Y30250310D01*
X26621560Y30250070D01*
G01X26359360Y31018470D02*
X26359640Y30936920D01*
X26365200Y30931360D01*
Y30632390D01*
X26428690Y30568900D01*
X26708100D01*
X26746200Y30530800D01*
X27089100D01*
G01X26259360Y31018120D02*
X26259640Y30936570D01*
X26339800Y30856410D01*
Y30706860D01*
X26301700Y30668760D01*
Y30619700D01*
G01X26620680Y30504070D02*
X26648240Y30504170D01*
X26797000Y30356440D01*
Y30233280D01*
X26822400Y30207880D01*
Y30060940D01*
X26809660Y30048200D01*
G01X26454100Y30886400D02*
X26459360Y30891660D01*
Y31018810D01*
G01X26428750Y30771970D02*
X26509760Y30853570D01*
Y30937330D01*
X26509650Y30937440D01*
X26509370Y31018990D01*
G01X26408870Y31165820D02*
X26409380Y31018640D01*
G01X26292990Y31153110D02*
X26309110Y31137080D01*
Y31099850D01*
X26309100Y31099840D01*
X26309380Y31018290D01*
G01X26924000Y27403300D02*
X27139380D01*
X27139640Y27403040D01*
G01D02*
X27174440D01*
X27254700Y27483300D01*
Y27685500D01*
X27155220Y27784980D01*
Y27896310D01*
G01X27369760Y27587950D02*
Y27608540D01*
X27216100Y27762200D01*
Y27885470D01*
X27205260Y27896310D01*
G01X27105180Y29406090D02*
X27114500Y29415410D01*
Y29654500D01*
G01X27055150Y29406090D02*
X27051000Y29410240D01*
Y29540200D01*
X27063700Y29552900D01*
G01X27705130Y27896310D02*
X27711400Y27902580D01*
Y28067000D01*
X27624250Y28154150D01*
Y28298160D01*
X27609800Y28312610D01*
Y28778200D01*
G01X27686000Y28308300D02*
X27953040D01*
X27960150Y28301190D01*
G01X27736800Y28549600D02*
X27958630D01*
X27960150Y28551120D01*
G01X27417020Y30125850D02*
X27432000Y30110870D01*
Y29547030D01*
X27455200Y29523830D01*
Y29406090D01*
G01X27800300Y29946600D02*
X27660600Y30086300D01*
Y30187900D01*
X27468650Y30379850D01*
X27416140D01*
G01X28638210Y29925640D02*
X28659460D01*
X28727400Y29857700D01*
Y29692600D01*
X28714700Y29679900D01*
X28232100D01*
X28130500Y29781500D01*
X27589920D01*
X27550980Y29820440D01*
X27487400D01*
G01X27416580Y30252850D02*
X27557550D01*
X27635200Y30175200D01*
Y30022800D01*
X27724100Y29933900D01*
G01X27481050Y29892860D02*
X27490810Y29883100D01*
X27524250D01*
X27600450Y29806900D01*
X28143200D01*
X28244800Y29705300D01*
X28524200D01*
X28536900Y29718000D01*
Y29858340D01*
X28469600Y29925640D01*
X28460410D01*
G01X27499100Y29665450D02*
X27523000Y29689350D01*
X27523520D01*
X27564870Y29730700D01*
X28079690D01*
X28193990Y29616400D01*
X28737930D01*
X28844010Y29722480D01*
Y29898110D01*
X28871540Y29925640D01*
X28943010D01*
G01X27571690Y29654480D02*
X27584860D01*
X27635680Y29705300D01*
X28054300D01*
X28168600Y29591000D01*
X28765500D01*
X28829000Y29654500D01*
Y29671540D01*
X28869410Y29711950D01*
Y29833080D01*
X28882110Y29845780D01*
X29071080D01*
X29095410Y29870110D01*
Y29925640D01*
G01X28308010D02*
Y29870110D01*
X28270200Y29832300D01*
X27610980D01*
X27508200Y29935080D01*
Y30022800D01*
G01X28818610Y30153720D02*
Y29733010D01*
X28727400Y29641800D01*
X28219400D01*
X28105100Y29756100D01*
X27520900D01*
X27503200Y29738400D01*
G01X28378630Y30152190D02*
X28308010Y30151940D01*
Y29925640D01*
G01X28778200Y25666700D02*
Y25857200D01*
X28993650Y26072650D01*
X29023870D01*
X29023980Y26072760D01*
X29083050Y26072970D01*
G01X28752800Y25463500D02*
X28917900Y25628600D01*
Y25741540D01*
X29083050Y25907870D01*
G01X28598620Y30152950D02*
X28549600Y30103930D01*
Y30013620D01*
X28638210Y29925640D01*
G01X28488610Y30152570D02*
X28435300Y30152380D01*
Y29950570D01*
X28460410Y29925640D01*
G01X29532120Y26757920D02*
X29222700Y26448500D01*
G01X29038630Y30154490D02*
X28984520Y30154300D01*
Y30026430D01*
X28942800Y29984710D01*
X28943010Y29925640D01*
G01X29148630Y30154870D02*
X29149010Y30045760D01*
X29097000Y29993750D01*
Y29986510D01*
X29095200Y29984710D01*
X29095410Y29925640D01*
G54D38*
X27805110Y31160190D03*
X29395090Y31165740D03*
G54D29*
X26614120Y27546300D03*
G54D57*
G01X24632840Y25920270D02*
X24885960D01*
X24886840Y25921150D01*
G01X25273000Y25781000D02*
X25132850Y25921150D01*
G01D02*
X24886840D01*
G01X24887720Y25667160D02*
X25189270D01*
X25215130Y25641300D01*
X25438100D01*
X25552400Y25527000D01*
G01X26263600Y25488900D02*
X25590500Y26162000D01*
X25577800D01*
X25400000Y26339800D01*
G01X26263600Y25488900D02*
X26936700Y24815800D01*
X29636920D01*
X29689620Y24868500D01*
X29892820Y24869210D01*
G01X27927250Y25857250D02*
X27851000Y25781000D01*
X27736800D01*
G01X27622500Y26428700D02*
X27660600Y26390600D01*
Y26123900D01*
X27927250Y25857250D01*
G01X29108400Y25031700D02*
X28473400D01*
X28117800Y25387300D01*
X28067000D01*
G01X27927250Y25857250D02*
X28613100Y25171400D01*
X29298900D01*
X29400500Y25069800D01*
G01D02*
X29600680D01*
X29651200Y25120320D01*
G01X29640950Y24258730D02*
Y24588050D01*
X29578300Y24650700D01*
G01X29892820Y24869210D02*
Y25039280D01*
G01X30124400Y24561800D02*
Y24285050D01*
X30148950Y24260500D01*
G54D48*
G01X25409380Y31015150D02*
X25409680Y30928600D01*
X25393510Y30912430D01*
X25362310D01*
X25310930Y30861050D01*
Y30836040D01*
X25311150Y30771970D01*
G01X26040050Y30771670D02*
X25962880Y30848300D01*
X25883430D01*
X25847770Y30883960D01*
Y30928740D01*
X25848670Y30929640D01*
Y30998460D01*
X25849600Y30999370D01*
X25849720Y31009680D01*
X25859360Y31016720D01*
G54D39*
X28337420Y28339440D03*
X29067420Y28341980D03*
G54D49*
G01X25095200Y24612600D02*
X25281380Y24798780D01*
G01X25383550D02*
X25531320D01*
G01D02*
X25556720Y24824180D01*
Y25023800D01*
X25511000Y25069520D01*
G01X25281380Y24798780D02*
X25383550D01*
G01X25873940Y24750490D02*
X25784430D01*
X25748140Y24714200D01*
X25692100D01*
G01X25873420Y24900490D02*
X25908000Y24935070D01*
Y24955500D01*
X25793420Y25070080D01*
X25671020D01*
G01X25438100Y30073600D02*
Y30099000D01*
G01X25628600Y29756100D02*
Y29904920D01*
X25625300Y29908220D01*
G01X25567910Y30123070D02*
X25595470Y30123170D01*
G01X25625300Y29908220D02*
X25683080Y29966400D01*
Y30013780D01*
X25920700Y30251400D01*
G01X25595470Y30123170D02*
X25666480Y30194670D01*
X25688320D01*
X25724420Y30230770D01*
G01X25843910Y24490500D02*
X25750700D01*
X25730200Y24511000D01*
G01X26098500Y26784300D02*
X26111200Y26797000D01*
X26136600D01*
X26297370Y26636230D01*
X26379760D01*
G01X25895300Y26758900D02*
Y26818210D01*
X25872250Y26841260D01*
G01D02*
X25971550Y26940560D01*
Y26997980D01*
X25971220Y27089370D01*
X25946100Y27114350D01*
Y27597100D01*
G01X26131840Y26927160D02*
X26121860Y26937140D01*
G01X26415730Y27054160D02*
X26238880D01*
X26121860Y26937140D01*
G01X25871590Y27031260D02*
Y27185580D01*
X25866740Y27190430D01*
G01X25946100Y27597100D02*
X26238200Y27889200D01*
Y28003500D01*
X26250900Y28016200D01*
G01X25815950Y28092400D02*
Y28127350D01*
X25869900Y28181300D01*
G01X26073100Y29743400D02*
X26263560D01*
G01X26284680Y29641800D02*
X26174700D01*
X26073100Y29743400D01*
G01X26631900Y26454100D02*
X26679760Y26501960D01*
Y26637270D01*
G01X26593800Y26466800D02*
X26606500Y26454100D01*
X26631900D01*
G01X26593800Y26466800D02*
X26629740Y26502740D01*
Y26637100D01*
G01X26593800Y26466800D02*
X26377900D01*
X26429740Y26518640D01*
Y26636400D01*
G01X26529740Y26962100D02*
Y26636750D01*
G01X26735350Y27007630D02*
Y26643060D01*
X26729740Y26637450D01*
G01X26479760Y26636570D02*
Y26830690D01*
X26416290Y26894160D01*
G01X26529740Y26962100D02*
Y26986940D01*
X26568400Y27025600D01*
X26717380D01*
X26735350Y27007630D01*
G01X26771600Y27266900D02*
X26753630Y27284870D01*
Y27384310D01*
X26758900Y27389580D01*
G01X26450370Y28101290D02*
X26335990D01*
X26250900Y28016200D01*
G01D02*
Y28067000D01*
G01X26606500Y29578300D02*
X26655350Y29529450D01*
G01D02*
Y29406090D01*
G01X26250900Y29857700D02*
X26271700Y29878500D01*
X26415000D01*
X26452590Y29840910D01*
X26716710D01*
X26797280Y29921480D01*
X26801320D01*
G01X26581100Y30035500D02*
Y30082160D01*
X26622010Y30123070D01*
G01X26581100Y30035500D02*
Y29981120D01*
X26641300Y29920920D01*
G01X26263560Y29743400D02*
X26332620Y29812460D01*
X26387640D01*
X26494800Y29705300D01*
X26619200D01*
G01X26238200Y30379850D02*
Y30454600D01*
X26290450Y30506850D01*
X26361590D01*
G01X26238200Y30379850D02*
X26362040D01*
G01X27139640Y27587950D02*
X27055150Y27672440D01*
G01D02*
Y27896310D01*
G01X27178000Y28067000D02*
X27194960Y28083960D01*
X27440440D01*
X27505230Y28019170D01*
Y27896310D01*
G01X27145160Y31509440D02*
X27152040Y31516320D01*
G01X27533600Y27403300D02*
X27546300Y27390600D01*
G01X27352240Y27403040D02*
X27369760D01*
G01X28155900Y27889200D02*
Y27970690D01*
X28075340Y28051250D01*
X27960150D01*
M02*
